G04 #@! TF.GenerationSoftware,KiCad,Pcbnew,(6.0.7-1)-1*
G04 #@! TF.CreationDate,2023-06-08T21:11:32-04:00*
G04 #@! TF.ProjectId,stm8l151k6t6_board,73746d38-6c31-4353-916b-3674365f626f,rev?*
G04 #@! TF.SameCoordinates,Original*
G04 #@! TF.FileFunction,Legend,Top*
G04 #@! TF.FilePolarity,Positive*
%FSLAX46Y46*%
G04 Gerber Fmt 4.6, Leading zero omitted, Abs format (unit mm)*
G04 Created by KiCad (PCBNEW (6.0.7-1)-1) date 2023-06-08 21:11:32*
%MOMM*%
%LPD*%
G01*
G04 APERTURE LIST*
G04 Aperture macros list*
%AMRoundRect*
0 Rectangle with rounded corners*
0 $1 Rounding radius*
0 $2 $3 $4 $5 $6 $7 $8 $9 X,Y pos of 4 corners*
0 Add a 4 corners polygon primitive as box body*
4,1,4,$2,$3,$4,$5,$6,$7,$8,$9,$2,$3,0*
0 Add four circle primitives for the rounded corners*
1,1,$1+$1,$2,$3*
1,1,$1+$1,$4,$5*
1,1,$1+$1,$6,$7*
1,1,$1+$1,$8,$9*
0 Add four rect primitives between the rounded corners*
20,1,$1+$1,$2,$3,$4,$5,0*
20,1,$1+$1,$4,$5,$6,$7,0*
20,1,$1+$1,$6,$7,$8,$9,0*
20,1,$1+$1,$8,$9,$2,$3,0*%
%AMRotRect*
0 Rectangle, with rotation*
0 The origin of the aperture is its center*
0 $1 length*
0 $2 width*
0 $3 Rotation angle, in degrees counterclockwise*
0 Add horizontal line*
21,1,$1,$2,0,0,$3*%
G04 Aperture macros list end*
%ADD10C,0.160000*%
%ADD11C,0.150000*%
%ADD12C,0.120000*%
%ADD13C,0.254001*%
%ADD14C,0.059995*%
%ADD15RoundRect,0.140000X-0.219203X-0.021213X-0.021213X-0.219203X0.219203X0.021213X0.021213X0.219203X0*%
%ADD16R,1.700000X1.700000*%
%ADD17O,1.700000X1.700000*%
%ADD18C,3.200000*%
%ADD19RoundRect,0.150000X0.512500X0.150000X-0.512500X0.150000X-0.512500X-0.150000X0.512500X-0.150000X0*%
%ADD20RoundRect,0.225000X0.225000X0.250000X-0.225000X0.250000X-0.225000X-0.250000X0.225000X-0.250000X0*%
%ADD21RotRect,1.400000X1.200000X225.000000*%
%ADD22RoundRect,0.140000X-0.140000X-0.170000X0.140000X-0.170000X0.140000X0.170000X-0.140000X0.170000X0*%
%ADD23RoundRect,0.140000X0.021213X-0.219203X0.219203X-0.021213X-0.021213X0.219203X-0.219203X0.021213X0*%
%ADD24RoundRect,0.200000X-0.200000X-0.275000X0.200000X-0.275000X0.200000X0.275000X-0.200000X0.275000X0*%
%ADD25RoundRect,0.200000X-0.275000X0.200000X-0.275000X-0.200000X0.275000X-0.200000X0.275000X0.200000X0*%
%ADD26C,0.600000*%
%ADD27R,1.350013X0.400000*%
%ADD28R,1.199898X1.600000*%
%ADD29O,2.400000X1.200000*%
%ADD30RoundRect,0.125000X-0.530330X0.353553X0.353553X-0.530330X0.530330X-0.353553X-0.353553X0.530330X0*%
%ADD31RoundRect,0.125000X-0.530330X-0.353553X-0.353553X-0.530330X0.530330X0.353553X0.353553X0.530330X0*%
%ADD32RoundRect,0.225000X0.250000X-0.225000X0.250000X0.225000X-0.250000X0.225000X-0.250000X-0.225000X0*%
%ADD33RoundRect,0.140000X0.219203X0.021213X0.021213X0.219203X-0.219203X-0.021213X-0.021213X-0.219203X0*%
%ADD34R,0.700000X1.050013*%
%ADD35RoundRect,0.243750X-0.243750X-0.456250X0.243750X-0.456250X0.243750X0.456250X-0.243750X0.456250X0*%
%ADD36RotRect,0.600000X1.100000X135.000000*%
%ADD37RoundRect,0.140000X-0.170000X0.140000X-0.170000X-0.140000X0.170000X-0.140000X0.170000X0.140000X0*%
%ADD38RoundRect,0.225000X-0.250000X0.225000X-0.250000X-0.225000X0.250000X-0.225000X0.250000X0.225000X0*%
%ADD39RoundRect,0.140000X-0.021213X0.219203X-0.219203X0.021213X0.021213X-0.219203X0.219203X-0.021213X0*%
%ADD40RoundRect,0.243750X-0.456250X0.243750X-0.456250X-0.243750X0.456250X-0.243750X0.456250X0.243750X0*%
G04 APERTURE END LIST*
D10*
X109252380Y-88457904D02*
X108252380Y-88457904D01*
X109252380Y-87886476D01*
X108252380Y-87886476D01*
X109157142Y-86838857D02*
X109204761Y-86886476D01*
X109252380Y-87029333D01*
X109252380Y-87124571D01*
X109204761Y-87267428D01*
X109109523Y-87362666D01*
X109014285Y-87410285D01*
X108823809Y-87457904D01*
X108680952Y-87457904D01*
X108490476Y-87410285D01*
X108395238Y-87362666D01*
X108300000Y-87267428D01*
X108252380Y-87124571D01*
X108252380Y-87029333D01*
X108300000Y-86886476D01*
X108347619Y-86838857D01*
X121852380Y-111557904D02*
X120852380Y-111557904D01*
X120852380Y-111176952D01*
X120900000Y-111081714D01*
X120947619Y-111034095D01*
X121042857Y-110986476D01*
X121185714Y-110986476D01*
X121280952Y-111034095D01*
X121328571Y-111081714D01*
X121376190Y-111176952D01*
X121376190Y-111557904D01*
X121852380Y-110557904D02*
X120852380Y-110557904D01*
X120852380Y-110319809D01*
X120900000Y-110176952D01*
X120995238Y-110081714D01*
X121090476Y-110034095D01*
X121280952Y-109986476D01*
X121423809Y-109986476D01*
X121614285Y-110034095D01*
X121709523Y-110081714D01*
X121804761Y-110176952D01*
X121852380Y-110319809D01*
X121852380Y-110557904D01*
X120852380Y-109653142D02*
X120852380Y-108986476D01*
X121852380Y-109415047D01*
X111652380Y-111557904D02*
X110652380Y-111557904D01*
X110652380Y-111176952D01*
X110700000Y-111081714D01*
X110747619Y-111034095D01*
X110842857Y-110986476D01*
X110985714Y-110986476D01*
X111080952Y-111034095D01*
X111128571Y-111081714D01*
X111176190Y-111176952D01*
X111176190Y-111557904D01*
X111652380Y-110557904D02*
X110652380Y-110557904D01*
X110652380Y-110319809D01*
X110700000Y-110176952D01*
X110795238Y-110081714D01*
X110890476Y-110034095D01*
X111080952Y-109986476D01*
X111223809Y-109986476D01*
X111414285Y-110034095D01*
X111509523Y-110081714D01*
X111604761Y-110176952D01*
X111652380Y-110319809D01*
X111652380Y-110557904D01*
X110652380Y-109653142D02*
X110652380Y-109034095D01*
X111033333Y-109367428D01*
X111033333Y-109224571D01*
X111080952Y-109129333D01*
X111128571Y-109081714D01*
X111223809Y-109034095D01*
X111461904Y-109034095D01*
X111557142Y-109081714D01*
X111604761Y-109129333D01*
X111652380Y-109224571D01*
X111652380Y-109510285D01*
X111604761Y-109605523D01*
X111557142Y-109653142D01*
X116752380Y-111557904D02*
X115752380Y-111557904D01*
X115752380Y-111176952D01*
X115800000Y-111081714D01*
X115847619Y-111034095D01*
X115942857Y-110986476D01*
X116085714Y-110986476D01*
X116180952Y-111034095D01*
X116228571Y-111081714D01*
X116276190Y-111176952D01*
X116276190Y-111557904D01*
X116752380Y-110557904D02*
X115752380Y-110557904D01*
X115752380Y-110319809D01*
X115800000Y-110176952D01*
X115895238Y-110081714D01*
X115990476Y-110034095D01*
X116180952Y-109986476D01*
X116323809Y-109986476D01*
X116514285Y-110034095D01*
X116609523Y-110081714D01*
X116704761Y-110176952D01*
X116752380Y-110319809D01*
X116752380Y-110557904D01*
X115752380Y-109081714D02*
X115752380Y-109557904D01*
X116228571Y-109605523D01*
X116180952Y-109557904D01*
X116133333Y-109462666D01*
X116133333Y-109224571D01*
X116180952Y-109129333D01*
X116228571Y-109081714D01*
X116323809Y-109034095D01*
X116561904Y-109034095D01*
X116657142Y-109081714D01*
X116704761Y-109129333D01*
X116752380Y-109224571D01*
X116752380Y-109462666D01*
X116704761Y-109557904D01*
X116657142Y-109605523D01*
X119352380Y-111557904D02*
X118352380Y-111557904D01*
X118352380Y-111176952D01*
X118400000Y-111081714D01*
X118447619Y-111034095D01*
X118542857Y-110986476D01*
X118685714Y-110986476D01*
X118780952Y-111034095D01*
X118828571Y-111081714D01*
X118876190Y-111176952D01*
X118876190Y-111557904D01*
X119352380Y-110557904D02*
X118352380Y-110557904D01*
X118352380Y-110319809D01*
X118400000Y-110176952D01*
X118495238Y-110081714D01*
X118590476Y-110034095D01*
X118780952Y-109986476D01*
X118923809Y-109986476D01*
X119114285Y-110034095D01*
X119209523Y-110081714D01*
X119304761Y-110176952D01*
X119352380Y-110319809D01*
X119352380Y-110557904D01*
X118352380Y-109129333D02*
X118352380Y-109319809D01*
X118400000Y-109415047D01*
X118447619Y-109462666D01*
X118590476Y-109557904D01*
X118780952Y-109605523D01*
X119161904Y-109605523D01*
X119257142Y-109557904D01*
X119304761Y-109510285D01*
X119352380Y-109415047D01*
X119352380Y-109224571D01*
X119304761Y-109129333D01*
X119257142Y-109081714D01*
X119161904Y-109034095D01*
X118923809Y-109034095D01*
X118828571Y-109081714D01*
X118780952Y-109129333D01*
X118733333Y-109224571D01*
X118733333Y-109415047D01*
X118780952Y-109510285D01*
X118828571Y-109557904D01*
X118923809Y-109605523D01*
D11*
X99166666Y-102652380D02*
X99500000Y-103652380D01*
X99833333Y-102652380D01*
X100166666Y-103652380D02*
X100166666Y-102652380D01*
X100404761Y-102652380D01*
X100547619Y-102700000D01*
X100642857Y-102795238D01*
X100690476Y-102890476D01*
X100738095Y-103080952D01*
X100738095Y-103223809D01*
X100690476Y-103414285D01*
X100642857Y-103509523D01*
X100547619Y-103604761D01*
X100404761Y-103652380D01*
X100166666Y-103652380D01*
X101166666Y-103652380D02*
X101166666Y-102652380D01*
X101404761Y-102652380D01*
X101547619Y-102700000D01*
X101642857Y-102795238D01*
X101690476Y-102890476D01*
X101738095Y-103080952D01*
X101738095Y-103223809D01*
X101690476Y-103414285D01*
X101642857Y-103509523D01*
X101547619Y-103604761D01*
X101404761Y-103652380D01*
X101166666Y-103652380D01*
D10*
X148052380Y-89457904D02*
X147052380Y-89457904D01*
X147052380Y-89076952D01*
X147100000Y-88981714D01*
X147147619Y-88934095D01*
X147242857Y-88886476D01*
X147385714Y-88886476D01*
X147480952Y-88934095D01*
X147528571Y-88981714D01*
X147576190Y-89076952D01*
X147576190Y-89457904D01*
X147957142Y-87886476D02*
X148004761Y-87934095D01*
X148052380Y-88076952D01*
X148052380Y-88172190D01*
X148004761Y-88315047D01*
X147909523Y-88410285D01*
X147814285Y-88457904D01*
X147623809Y-88505523D01*
X147480952Y-88505523D01*
X147290476Y-88457904D01*
X147195238Y-88410285D01*
X147100000Y-88315047D01*
X147052380Y-88172190D01*
X147052380Y-88076952D01*
X147100000Y-87934095D01*
X147147619Y-87886476D01*
X147052380Y-87267428D02*
X147052380Y-87172190D01*
X147100000Y-87076952D01*
X147147619Y-87029333D01*
X147242857Y-86981714D01*
X147433333Y-86934095D01*
X147671428Y-86934095D01*
X147861904Y-86981714D01*
X147957142Y-87029333D01*
X148004761Y-87076952D01*
X148052380Y-87172190D01*
X148052380Y-87267428D01*
X148004761Y-87362666D01*
X147957142Y-87410285D01*
X147861904Y-87457904D01*
X147671428Y-87505523D01*
X147433333Y-87505523D01*
X147242857Y-87457904D01*
X147147619Y-87410285D01*
X147100000Y-87362666D01*
X147052380Y-87267428D01*
X111752380Y-89257904D02*
X110752380Y-89257904D01*
X110752380Y-88876952D01*
X110800000Y-88781714D01*
X110847619Y-88734095D01*
X110942857Y-88686476D01*
X111085714Y-88686476D01*
X111180952Y-88734095D01*
X111228571Y-88781714D01*
X111276190Y-88876952D01*
X111276190Y-89257904D01*
X111466666Y-88305523D02*
X111466666Y-87829333D01*
X111752380Y-88400761D02*
X110752380Y-88067428D01*
X111752380Y-87734095D01*
X110752380Y-86972190D02*
X110752380Y-87162666D01*
X110800000Y-87257904D01*
X110847619Y-87305523D01*
X110990476Y-87400761D01*
X111180952Y-87448380D01*
X111561904Y-87448380D01*
X111657142Y-87400761D01*
X111704761Y-87353142D01*
X111752380Y-87257904D01*
X111752380Y-87067428D01*
X111704761Y-86972190D01*
X111657142Y-86924571D01*
X111561904Y-86876952D01*
X111323809Y-86876952D01*
X111228571Y-86924571D01*
X111180952Y-86972190D01*
X111133333Y-87067428D01*
X111133333Y-87257904D01*
X111180952Y-87353142D01*
X111228571Y-87400761D01*
X111323809Y-87448380D01*
X137852380Y-89457904D02*
X136852380Y-89457904D01*
X136852380Y-89076952D01*
X136900000Y-88981714D01*
X136947619Y-88934095D01*
X137042857Y-88886476D01*
X137185714Y-88886476D01*
X137280952Y-88934095D01*
X137328571Y-88981714D01*
X137376190Y-89076952D01*
X137376190Y-89457904D01*
X137757142Y-87886476D02*
X137804761Y-87934095D01*
X137852380Y-88076952D01*
X137852380Y-88172190D01*
X137804761Y-88315047D01*
X137709523Y-88410285D01*
X137614285Y-88457904D01*
X137423809Y-88505523D01*
X137280952Y-88505523D01*
X137090476Y-88457904D01*
X136995238Y-88410285D01*
X136900000Y-88315047D01*
X136852380Y-88172190D01*
X136852380Y-88076952D01*
X136900000Y-87934095D01*
X136947619Y-87886476D01*
X137185714Y-87029333D02*
X137852380Y-87029333D01*
X136804761Y-87267428D02*
X137519047Y-87505523D01*
X137519047Y-86886476D01*
X147952380Y-111457904D02*
X146952380Y-111457904D01*
X146952380Y-111076952D01*
X147000000Y-110981714D01*
X147047619Y-110934095D01*
X147142857Y-110886476D01*
X147285714Y-110886476D01*
X147380952Y-110934095D01*
X147428571Y-110981714D01*
X147476190Y-111076952D01*
X147476190Y-111457904D01*
X147428571Y-110124571D02*
X147476190Y-109981714D01*
X147523809Y-109934095D01*
X147619047Y-109886476D01*
X147761904Y-109886476D01*
X147857142Y-109934095D01*
X147904761Y-109981714D01*
X147952380Y-110076952D01*
X147952380Y-110457904D01*
X146952380Y-110457904D01*
X146952380Y-110124571D01*
X147000000Y-110029333D01*
X147047619Y-109981714D01*
X147142857Y-109934095D01*
X147238095Y-109934095D01*
X147333333Y-109981714D01*
X147380952Y-110029333D01*
X147428571Y-110124571D01*
X147428571Y-110457904D01*
X146952380Y-109553142D02*
X146952380Y-108886476D01*
X147952380Y-109315047D01*
D11*
X99752380Y-101052380D02*
X99419047Y-100576190D01*
X99180952Y-101052380D02*
X99180952Y-100052380D01*
X99561904Y-100052380D01*
X99657142Y-100100000D01*
X99704761Y-100147619D01*
X99752380Y-100242857D01*
X99752380Y-100385714D01*
X99704761Y-100480952D01*
X99657142Y-100528571D01*
X99561904Y-100576190D01*
X99180952Y-100576190D01*
X100133333Y-101004761D02*
X100276190Y-101052380D01*
X100514285Y-101052380D01*
X100609523Y-101004761D01*
X100657142Y-100957142D01*
X100704761Y-100861904D01*
X100704761Y-100766666D01*
X100657142Y-100671428D01*
X100609523Y-100623809D01*
X100514285Y-100576190D01*
X100323809Y-100528571D01*
X100228571Y-100480952D01*
X100180952Y-100433333D01*
X100133333Y-100338095D01*
X100133333Y-100242857D01*
X100180952Y-100147619D01*
X100228571Y-100100000D01*
X100323809Y-100052380D01*
X100561904Y-100052380D01*
X100704761Y-100100000D01*
X100990476Y-100052380D02*
X101561904Y-100052380D01*
X101276190Y-101052380D02*
X101276190Y-100052380D01*
D10*
X132752380Y-111557904D02*
X131752380Y-111557904D01*
X131752380Y-111176952D01*
X131800000Y-111081714D01*
X131847619Y-111034095D01*
X131942857Y-110986476D01*
X132085714Y-110986476D01*
X132180952Y-111034095D01*
X132228571Y-111081714D01*
X132276190Y-111176952D01*
X132276190Y-111557904D01*
X132228571Y-110224571D02*
X132276190Y-110081714D01*
X132323809Y-110034095D01*
X132419047Y-109986476D01*
X132561904Y-109986476D01*
X132657142Y-110034095D01*
X132704761Y-110081714D01*
X132752380Y-110176952D01*
X132752380Y-110557904D01*
X131752380Y-110557904D01*
X131752380Y-110224571D01*
X131800000Y-110129333D01*
X131847619Y-110081714D01*
X131942857Y-110034095D01*
X132038095Y-110034095D01*
X132133333Y-110081714D01*
X132180952Y-110129333D01*
X132228571Y-110224571D01*
X132228571Y-110557904D01*
X132752380Y-109034095D02*
X132752380Y-109605523D01*
X132752380Y-109319809D02*
X131752380Y-109319809D01*
X131895238Y-109415047D01*
X131990476Y-109510285D01*
X132038095Y-109605523D01*
X131752380Y-89453142D02*
X131752380Y-88834095D01*
X132133333Y-89167428D01*
X132133333Y-89024571D01*
X132180952Y-88929333D01*
X132228571Y-88881714D01*
X132323809Y-88834095D01*
X132561904Y-88834095D01*
X132657142Y-88881714D01*
X132704761Y-88929333D01*
X132752380Y-89024571D01*
X132752380Y-89310285D01*
X132704761Y-89405523D01*
X132657142Y-89453142D01*
X131752380Y-88548380D02*
X132752380Y-88215047D01*
X131752380Y-87881714D01*
X131752380Y-87643619D02*
X131752380Y-87024571D01*
X132133333Y-87357904D01*
X132133333Y-87215047D01*
X132180952Y-87119809D01*
X132228571Y-87072190D01*
X132323809Y-87024571D01*
X132561904Y-87024571D01*
X132657142Y-87072190D01*
X132704761Y-87119809D01*
X132752380Y-87215047D01*
X132752380Y-87500761D01*
X132704761Y-87596000D01*
X132657142Y-87643619D01*
D11*
X99538095Y-97500000D02*
X99442857Y-97452380D01*
X99300000Y-97452380D01*
X99157142Y-97500000D01*
X99061904Y-97595238D01*
X99014285Y-97690476D01*
X98966666Y-97880952D01*
X98966666Y-98023809D01*
X99014285Y-98214285D01*
X99061904Y-98309523D01*
X99157142Y-98404761D01*
X99300000Y-98452380D01*
X99395238Y-98452380D01*
X99538095Y-98404761D01*
X99585714Y-98357142D01*
X99585714Y-98023809D01*
X99395238Y-98023809D01*
X100014285Y-98452380D02*
X100014285Y-97452380D01*
X100585714Y-98452380D01*
X100585714Y-97452380D01*
X101061904Y-98452380D02*
X101061904Y-97452380D01*
X101300000Y-97452380D01*
X101442857Y-97500000D01*
X101538095Y-97595238D01*
X101585714Y-97690476D01*
X101633333Y-97880952D01*
X101633333Y-98023809D01*
X101585714Y-98214285D01*
X101538095Y-98309523D01*
X101442857Y-98404761D01*
X101300000Y-98452380D01*
X101061904Y-98452380D01*
D10*
X121952380Y-89257904D02*
X120952380Y-89257904D01*
X120952380Y-88876952D01*
X121000000Y-88781714D01*
X121047619Y-88734095D01*
X121142857Y-88686476D01*
X121285714Y-88686476D01*
X121380952Y-88734095D01*
X121428571Y-88781714D01*
X121476190Y-88876952D01*
X121476190Y-89257904D01*
X121666666Y-88305523D02*
X121666666Y-87829333D01*
X121952380Y-88400761D02*
X120952380Y-88067428D01*
X121952380Y-87734095D01*
X120952380Y-87210285D02*
X120952380Y-87115047D01*
X121000000Y-87019809D01*
X121047619Y-86972190D01*
X121142857Y-86924571D01*
X121333333Y-86876952D01*
X121571428Y-86876952D01*
X121761904Y-86924571D01*
X121857142Y-86972190D01*
X121904761Y-87019809D01*
X121952380Y-87115047D01*
X121952380Y-87210285D01*
X121904761Y-87305523D01*
X121857142Y-87353142D01*
X121761904Y-87400761D01*
X121571428Y-87448380D01*
X121333333Y-87448380D01*
X121142857Y-87400761D01*
X121047619Y-87353142D01*
X121000000Y-87305523D01*
X120952380Y-87210285D01*
X140352380Y-111457904D02*
X139352380Y-111457904D01*
X139352380Y-111076952D01*
X139400000Y-110981714D01*
X139447619Y-110934095D01*
X139542857Y-110886476D01*
X139685714Y-110886476D01*
X139780952Y-110934095D01*
X139828571Y-110981714D01*
X139876190Y-111076952D01*
X139876190Y-111457904D01*
X139828571Y-110124571D02*
X139876190Y-109981714D01*
X139923809Y-109934095D01*
X140019047Y-109886476D01*
X140161904Y-109886476D01*
X140257142Y-109934095D01*
X140304761Y-109981714D01*
X140352380Y-110076952D01*
X140352380Y-110457904D01*
X139352380Y-110457904D01*
X139352380Y-110124571D01*
X139400000Y-110029333D01*
X139447619Y-109981714D01*
X139542857Y-109934095D01*
X139638095Y-109934095D01*
X139733333Y-109981714D01*
X139780952Y-110029333D01*
X139828571Y-110124571D01*
X139828571Y-110457904D01*
X139685714Y-109029333D02*
X140352380Y-109029333D01*
X139304761Y-109267428D02*
X140019047Y-109505523D01*
X140019047Y-108886476D01*
X114352380Y-89257904D02*
X113352380Y-89257904D01*
X113352380Y-88876952D01*
X113400000Y-88781714D01*
X113447619Y-88734095D01*
X113542857Y-88686476D01*
X113685714Y-88686476D01*
X113780952Y-88734095D01*
X113828571Y-88781714D01*
X113876190Y-88876952D01*
X113876190Y-89257904D01*
X114066666Y-88305523D02*
X114066666Y-87829333D01*
X114352380Y-88400761D02*
X113352380Y-88067428D01*
X114352380Y-87734095D01*
X113352380Y-86924571D02*
X113352380Y-87400761D01*
X113828571Y-87448380D01*
X113780952Y-87400761D01*
X113733333Y-87305523D01*
X113733333Y-87067428D01*
X113780952Y-86972190D01*
X113828571Y-86924571D01*
X113923809Y-86876952D01*
X114161904Y-86876952D01*
X114257142Y-86924571D01*
X114304761Y-86972190D01*
X114352380Y-87067428D01*
X114352380Y-87305523D01*
X114304761Y-87400761D01*
X114257142Y-87448380D01*
X106652380Y-111657904D02*
X105652380Y-111657904D01*
X105652380Y-111276952D01*
X105700000Y-111181714D01*
X105747619Y-111134095D01*
X105842857Y-111086476D01*
X105985714Y-111086476D01*
X106080952Y-111134095D01*
X106128571Y-111181714D01*
X106176190Y-111276952D01*
X106176190Y-111657904D01*
X106652380Y-110657904D02*
X105652380Y-110657904D01*
X105652380Y-110419809D01*
X105700000Y-110276952D01*
X105795238Y-110181714D01*
X105890476Y-110134095D01*
X106080952Y-110086476D01*
X106223809Y-110086476D01*
X106414285Y-110134095D01*
X106509523Y-110181714D01*
X106604761Y-110276952D01*
X106652380Y-110419809D01*
X106652380Y-110657904D01*
X106652380Y-109134095D02*
X106652380Y-109705523D01*
X106652380Y-109419809D02*
X105652380Y-109419809D01*
X105795238Y-109515047D01*
X105890476Y-109610285D01*
X105938095Y-109705523D01*
X119452380Y-89257904D02*
X118452380Y-89257904D01*
X118452380Y-88876952D01*
X118500000Y-88781714D01*
X118547619Y-88734095D01*
X118642857Y-88686476D01*
X118785714Y-88686476D01*
X118880952Y-88734095D01*
X118928571Y-88781714D01*
X118976190Y-88876952D01*
X118976190Y-89257904D01*
X119166666Y-88305523D02*
X119166666Y-87829333D01*
X119452380Y-88400761D02*
X118452380Y-88067428D01*
X119452380Y-87734095D01*
X119452380Y-86876952D02*
X119452380Y-87448380D01*
X119452380Y-87162666D02*
X118452380Y-87162666D01*
X118595238Y-87257904D01*
X118690476Y-87353142D01*
X118738095Y-87448380D01*
X142952380Y-89457904D02*
X141952380Y-89457904D01*
X141952380Y-89076952D01*
X142000000Y-88981714D01*
X142047619Y-88934095D01*
X142142857Y-88886476D01*
X142285714Y-88886476D01*
X142380952Y-88934095D01*
X142428571Y-88981714D01*
X142476190Y-89076952D01*
X142476190Y-89457904D01*
X142857142Y-87886476D02*
X142904761Y-87934095D01*
X142952380Y-88076952D01*
X142952380Y-88172190D01*
X142904761Y-88315047D01*
X142809523Y-88410285D01*
X142714285Y-88457904D01*
X142523809Y-88505523D01*
X142380952Y-88505523D01*
X142190476Y-88457904D01*
X142095238Y-88410285D01*
X142000000Y-88315047D01*
X141952380Y-88172190D01*
X141952380Y-88076952D01*
X142000000Y-87934095D01*
X142047619Y-87886476D01*
X142047619Y-87505523D02*
X142000000Y-87457904D01*
X141952380Y-87362666D01*
X141952380Y-87124571D01*
X142000000Y-87029333D01*
X142047619Y-86981714D01*
X142142857Y-86934095D01*
X142238095Y-86934095D01*
X142380952Y-86981714D01*
X142952380Y-87553142D01*
X142952380Y-86934095D01*
X103300000Y-88734095D02*
X103252380Y-88829333D01*
X103252380Y-88972190D01*
X103300000Y-89115047D01*
X103395238Y-89210285D01*
X103490476Y-89257904D01*
X103680952Y-89305523D01*
X103823809Y-89305523D01*
X104014285Y-89257904D01*
X104109523Y-89210285D01*
X104204761Y-89115047D01*
X104252380Y-88972190D01*
X104252380Y-88876952D01*
X104204761Y-88734095D01*
X104157142Y-88686476D01*
X103823809Y-88686476D01*
X103823809Y-88876952D01*
X104252380Y-88257904D02*
X103252380Y-88257904D01*
X104252380Y-87686476D01*
X103252380Y-87686476D01*
X104252380Y-87210285D02*
X103252380Y-87210285D01*
X103252380Y-86972190D01*
X103300000Y-86829333D01*
X103395238Y-86734095D01*
X103490476Y-86686476D01*
X103680952Y-86638857D01*
X103823809Y-86638857D01*
X104014285Y-86686476D01*
X104109523Y-86734095D01*
X104204761Y-86829333D01*
X104252380Y-86972190D01*
X104252380Y-87210285D01*
X116852380Y-89257904D02*
X115852380Y-89257904D01*
X115852380Y-88876952D01*
X115900000Y-88781714D01*
X115947619Y-88734095D01*
X116042857Y-88686476D01*
X116185714Y-88686476D01*
X116280952Y-88734095D01*
X116328571Y-88781714D01*
X116376190Y-88876952D01*
X116376190Y-89257904D01*
X116566666Y-88305523D02*
X116566666Y-87829333D01*
X116852380Y-88400761D02*
X115852380Y-88067428D01*
X116852380Y-87734095D01*
X116185714Y-86972190D02*
X116852380Y-86972190D01*
X115804761Y-87210285D02*
X116519047Y-87448380D01*
X116519047Y-86829333D01*
X137752380Y-111457904D02*
X136752380Y-111457904D01*
X136752380Y-111076952D01*
X136800000Y-110981714D01*
X136847619Y-110934095D01*
X136942857Y-110886476D01*
X137085714Y-110886476D01*
X137180952Y-110934095D01*
X137228571Y-110981714D01*
X137276190Y-111076952D01*
X137276190Y-111457904D01*
X137228571Y-110124571D02*
X137276190Y-109981714D01*
X137323809Y-109934095D01*
X137419047Y-109886476D01*
X137561904Y-109886476D01*
X137657142Y-109934095D01*
X137704761Y-109981714D01*
X137752380Y-110076952D01*
X137752380Y-110457904D01*
X136752380Y-110457904D01*
X136752380Y-110124571D01*
X136800000Y-110029333D01*
X136847619Y-109981714D01*
X136942857Y-109934095D01*
X137038095Y-109934095D01*
X137133333Y-109981714D01*
X137180952Y-110029333D01*
X137228571Y-110124571D01*
X137228571Y-110457904D01*
X136752380Y-109553142D02*
X136752380Y-108934095D01*
X137133333Y-109267428D01*
X137133333Y-109124571D01*
X137180952Y-109029333D01*
X137228571Y-108981714D01*
X137323809Y-108934095D01*
X137561904Y-108934095D01*
X137657142Y-108981714D01*
X137704761Y-109029333D01*
X137752380Y-109124571D01*
X137752380Y-109410285D01*
X137704761Y-109505523D01*
X137657142Y-109553142D01*
X129400000Y-88934095D02*
X129352380Y-89029333D01*
X129352380Y-89172190D01*
X129400000Y-89315047D01*
X129495238Y-89410285D01*
X129590476Y-89457904D01*
X129780952Y-89505523D01*
X129923809Y-89505523D01*
X130114285Y-89457904D01*
X130209523Y-89410285D01*
X130304761Y-89315047D01*
X130352380Y-89172190D01*
X130352380Y-89076952D01*
X130304761Y-88934095D01*
X130257142Y-88886476D01*
X129923809Y-88886476D01*
X129923809Y-89076952D01*
X130352380Y-88457904D02*
X129352380Y-88457904D01*
X130352380Y-87886476D01*
X129352380Y-87886476D01*
X130352380Y-87410285D02*
X129352380Y-87410285D01*
X129352380Y-87172190D01*
X129400000Y-87029333D01*
X129495238Y-86934095D01*
X129590476Y-86886476D01*
X129780952Y-86838857D01*
X129923809Y-86838857D01*
X130114285Y-86886476D01*
X130209523Y-86934095D01*
X130304761Y-87029333D01*
X130352380Y-87172190D01*
X130352380Y-87410285D01*
X114252380Y-111557904D02*
X113252380Y-111557904D01*
X113252380Y-111176952D01*
X113300000Y-111081714D01*
X113347619Y-111034095D01*
X113442857Y-110986476D01*
X113585714Y-110986476D01*
X113680952Y-111034095D01*
X113728571Y-111081714D01*
X113776190Y-111176952D01*
X113776190Y-111557904D01*
X114252380Y-110557904D02*
X113252380Y-110557904D01*
X113252380Y-110319809D01*
X113300000Y-110176952D01*
X113395238Y-110081714D01*
X113490476Y-110034095D01*
X113680952Y-109986476D01*
X113823809Y-109986476D01*
X114014285Y-110034095D01*
X114109523Y-110081714D01*
X114204761Y-110176952D01*
X114252380Y-110319809D01*
X114252380Y-110557904D01*
X113585714Y-109129333D02*
X114252380Y-109129333D01*
X113204761Y-109367428D02*
X113919047Y-109605523D01*
X113919047Y-108986476D01*
X145552380Y-89457904D02*
X144552380Y-89457904D01*
X144552380Y-89076952D01*
X144600000Y-88981714D01*
X144647619Y-88934095D01*
X144742857Y-88886476D01*
X144885714Y-88886476D01*
X144980952Y-88934095D01*
X145028571Y-88981714D01*
X145076190Y-89076952D01*
X145076190Y-89457904D01*
X145457142Y-87886476D02*
X145504761Y-87934095D01*
X145552380Y-88076952D01*
X145552380Y-88172190D01*
X145504761Y-88315047D01*
X145409523Y-88410285D01*
X145314285Y-88457904D01*
X145123809Y-88505523D01*
X144980952Y-88505523D01*
X144790476Y-88457904D01*
X144695238Y-88410285D01*
X144600000Y-88315047D01*
X144552380Y-88172190D01*
X144552380Y-88076952D01*
X144600000Y-87934095D01*
X144647619Y-87886476D01*
X145552380Y-86934095D02*
X145552380Y-87505523D01*
X145552380Y-87219809D02*
X144552380Y-87219809D01*
X144695238Y-87315047D01*
X144790476Y-87410285D01*
X144838095Y-87505523D01*
D11*
X99033333Y-95804761D02*
X99176190Y-95852380D01*
X99414285Y-95852380D01*
X99509523Y-95804761D01*
X99557142Y-95757142D01*
X99604761Y-95661904D01*
X99604761Y-95566666D01*
X99557142Y-95471428D01*
X99509523Y-95423809D01*
X99414285Y-95376190D01*
X99223809Y-95328571D01*
X99128571Y-95280952D01*
X99080952Y-95233333D01*
X99033333Y-95138095D01*
X99033333Y-95042857D01*
X99080952Y-94947619D01*
X99128571Y-94900000D01*
X99223809Y-94852380D01*
X99461904Y-94852380D01*
X99604761Y-94900000D01*
X99938095Y-94852380D02*
X100176190Y-95852380D01*
X100366666Y-95138095D01*
X100557142Y-95852380D01*
X100795238Y-94852380D01*
X101176190Y-95852380D02*
X101176190Y-94852380D01*
X101652380Y-95852380D02*
X101652380Y-94852380D01*
X101985714Y-95566666D01*
X102319047Y-94852380D01*
X102319047Y-95852380D01*
D10*
X109152380Y-111557904D02*
X108152380Y-111557904D01*
X108152380Y-111176952D01*
X108200000Y-111081714D01*
X108247619Y-111034095D01*
X108342857Y-110986476D01*
X108485714Y-110986476D01*
X108580952Y-111034095D01*
X108628571Y-111081714D01*
X108676190Y-111176952D01*
X108676190Y-111557904D01*
X109152380Y-110557904D02*
X108152380Y-110557904D01*
X108152380Y-110319809D01*
X108200000Y-110176952D01*
X108295238Y-110081714D01*
X108390476Y-110034095D01*
X108580952Y-109986476D01*
X108723809Y-109986476D01*
X108914285Y-110034095D01*
X109009523Y-110081714D01*
X109104761Y-110176952D01*
X109152380Y-110319809D01*
X109152380Y-110557904D01*
X108247619Y-109605523D02*
X108200000Y-109557904D01*
X108152380Y-109462666D01*
X108152380Y-109224571D01*
X108200000Y-109129333D01*
X108247619Y-109081714D01*
X108342857Y-109034095D01*
X108438095Y-109034095D01*
X108580952Y-109081714D01*
X109152380Y-109653142D01*
X109152380Y-109034095D01*
X142852380Y-111457904D02*
X141852380Y-111457904D01*
X141852380Y-111076952D01*
X141900000Y-110981714D01*
X141947619Y-110934095D01*
X142042857Y-110886476D01*
X142185714Y-110886476D01*
X142280952Y-110934095D01*
X142328571Y-110981714D01*
X142376190Y-111076952D01*
X142376190Y-111457904D01*
X142328571Y-110124571D02*
X142376190Y-109981714D01*
X142423809Y-109934095D01*
X142519047Y-109886476D01*
X142661904Y-109886476D01*
X142757142Y-109934095D01*
X142804761Y-109981714D01*
X142852380Y-110076952D01*
X142852380Y-110457904D01*
X141852380Y-110457904D01*
X141852380Y-110124571D01*
X141900000Y-110029333D01*
X141947619Y-109981714D01*
X142042857Y-109934095D01*
X142138095Y-109934095D01*
X142233333Y-109981714D01*
X142280952Y-110029333D01*
X142328571Y-110124571D01*
X142328571Y-110457904D01*
X141852380Y-108981714D02*
X141852380Y-109457904D01*
X142328571Y-109505523D01*
X142280952Y-109457904D01*
X142233333Y-109362666D01*
X142233333Y-109124571D01*
X142280952Y-109029333D01*
X142328571Y-108981714D01*
X142423809Y-108934095D01*
X142661904Y-108934095D01*
X142757142Y-108981714D01*
X142804761Y-109029333D01*
X142852380Y-109124571D01*
X142852380Y-109362666D01*
X142804761Y-109457904D01*
X142757142Y-109505523D01*
X135252380Y-111457904D02*
X134252380Y-111457904D01*
X134252380Y-111076952D01*
X134300000Y-110981714D01*
X134347619Y-110934095D01*
X134442857Y-110886476D01*
X134585714Y-110886476D01*
X134680952Y-110934095D01*
X134728571Y-110981714D01*
X134776190Y-111076952D01*
X134776190Y-111457904D01*
X134728571Y-110124571D02*
X134776190Y-109981714D01*
X134823809Y-109934095D01*
X134919047Y-109886476D01*
X135061904Y-109886476D01*
X135157142Y-109934095D01*
X135204761Y-109981714D01*
X135252380Y-110076952D01*
X135252380Y-110457904D01*
X134252380Y-110457904D01*
X134252380Y-110124571D01*
X134300000Y-110029333D01*
X134347619Y-109981714D01*
X134442857Y-109934095D01*
X134538095Y-109934095D01*
X134633333Y-109981714D01*
X134680952Y-110029333D01*
X134728571Y-110124571D01*
X134728571Y-110457904D01*
X134347619Y-109505523D02*
X134300000Y-109457904D01*
X134252380Y-109362666D01*
X134252380Y-109124571D01*
X134300000Y-109029333D01*
X134347619Y-108981714D01*
X134442857Y-108934095D01*
X134538095Y-108934095D01*
X134680952Y-108981714D01*
X135252380Y-109553142D01*
X135252380Y-108934095D01*
X104152380Y-111557904D02*
X103152380Y-111557904D01*
X103152380Y-111176952D01*
X103200000Y-111081714D01*
X103247619Y-111034095D01*
X103342857Y-110986476D01*
X103485714Y-110986476D01*
X103580952Y-111034095D01*
X103628571Y-111081714D01*
X103676190Y-111176952D01*
X103676190Y-111557904D01*
X104152380Y-110557904D02*
X103152380Y-110557904D01*
X103152380Y-110319809D01*
X103200000Y-110176952D01*
X103295238Y-110081714D01*
X103390476Y-110034095D01*
X103580952Y-109986476D01*
X103723809Y-109986476D01*
X103914285Y-110034095D01*
X104009523Y-110081714D01*
X104104761Y-110176952D01*
X104152380Y-110319809D01*
X104152380Y-110557904D01*
X103152380Y-109367428D02*
X103152380Y-109272190D01*
X103200000Y-109176952D01*
X103247619Y-109129333D01*
X103342857Y-109081714D01*
X103533333Y-109034095D01*
X103771428Y-109034095D01*
X103961904Y-109081714D01*
X104057142Y-109129333D01*
X104104761Y-109176952D01*
X104152380Y-109272190D01*
X104152380Y-109367428D01*
X104104761Y-109462666D01*
X104057142Y-109510285D01*
X103961904Y-109557904D01*
X103771428Y-109605523D01*
X103533333Y-109605523D01*
X103342857Y-109557904D01*
X103247619Y-109510285D01*
X103200000Y-109462666D01*
X103152380Y-109367428D01*
X130252380Y-111457904D02*
X129252380Y-111457904D01*
X129252380Y-111076952D01*
X129300000Y-110981714D01*
X129347619Y-110934095D01*
X129442857Y-110886476D01*
X129585714Y-110886476D01*
X129680952Y-110934095D01*
X129728571Y-110981714D01*
X129776190Y-111076952D01*
X129776190Y-111457904D01*
X129728571Y-110124571D02*
X129776190Y-109981714D01*
X129823809Y-109934095D01*
X129919047Y-109886476D01*
X130061904Y-109886476D01*
X130157142Y-109934095D01*
X130204761Y-109981714D01*
X130252380Y-110076952D01*
X130252380Y-110457904D01*
X129252380Y-110457904D01*
X129252380Y-110124571D01*
X129300000Y-110029333D01*
X129347619Y-109981714D01*
X129442857Y-109934095D01*
X129538095Y-109934095D01*
X129633333Y-109981714D01*
X129680952Y-110029333D01*
X129728571Y-110124571D01*
X129728571Y-110457904D01*
X129252380Y-109267428D02*
X129252380Y-109172190D01*
X129300000Y-109076952D01*
X129347619Y-109029333D01*
X129442857Y-108981714D01*
X129633333Y-108934095D01*
X129871428Y-108934095D01*
X130061904Y-108981714D01*
X130157142Y-109029333D01*
X130204761Y-109076952D01*
X130252380Y-109172190D01*
X130252380Y-109267428D01*
X130204761Y-109362666D01*
X130157142Y-109410285D01*
X130061904Y-109457904D01*
X129871428Y-109505523D01*
X129633333Y-109505523D01*
X129442857Y-109457904D01*
X129347619Y-109410285D01*
X129300000Y-109362666D01*
X129252380Y-109267428D01*
X105652380Y-89253142D02*
X105652380Y-88634095D01*
X106033333Y-88967428D01*
X106033333Y-88824571D01*
X106080952Y-88729333D01*
X106128571Y-88681714D01*
X106223809Y-88634095D01*
X106461904Y-88634095D01*
X106557142Y-88681714D01*
X106604761Y-88729333D01*
X106652380Y-88824571D01*
X106652380Y-89110285D01*
X106604761Y-89205523D01*
X106557142Y-89253142D01*
X105652380Y-88348380D02*
X106652380Y-88015047D01*
X105652380Y-87681714D01*
X105652380Y-87443619D02*
X105652380Y-86824571D01*
X106033333Y-87157904D01*
X106033333Y-87015047D01*
X106080952Y-86919809D01*
X106128571Y-86872190D01*
X106223809Y-86824571D01*
X106461904Y-86824571D01*
X106557142Y-86872190D01*
X106604761Y-86919809D01*
X106652380Y-87015047D01*
X106652380Y-87300761D01*
X106604761Y-87396000D01*
X106557142Y-87443619D01*
X145452380Y-111457904D02*
X144452380Y-111457904D01*
X144452380Y-111076952D01*
X144500000Y-110981714D01*
X144547619Y-110934095D01*
X144642857Y-110886476D01*
X144785714Y-110886476D01*
X144880952Y-110934095D01*
X144928571Y-110981714D01*
X144976190Y-111076952D01*
X144976190Y-111457904D01*
X144928571Y-110124571D02*
X144976190Y-109981714D01*
X145023809Y-109934095D01*
X145119047Y-109886476D01*
X145261904Y-109886476D01*
X145357142Y-109934095D01*
X145404761Y-109981714D01*
X145452380Y-110076952D01*
X145452380Y-110457904D01*
X144452380Y-110457904D01*
X144452380Y-110124571D01*
X144500000Y-110029333D01*
X144547619Y-109981714D01*
X144642857Y-109934095D01*
X144738095Y-109934095D01*
X144833333Y-109981714D01*
X144880952Y-110029333D01*
X144928571Y-110124571D01*
X144928571Y-110457904D01*
X144452380Y-109029333D02*
X144452380Y-109219809D01*
X144500000Y-109315047D01*
X144547619Y-109362666D01*
X144690476Y-109457904D01*
X144880952Y-109505523D01*
X145261904Y-109505523D01*
X145357142Y-109457904D01*
X145404761Y-109410285D01*
X145452380Y-109315047D01*
X145452380Y-109124571D01*
X145404761Y-109029333D01*
X145357142Y-108981714D01*
X145261904Y-108934095D01*
X145023809Y-108934095D01*
X144928571Y-108981714D01*
X144880952Y-109029333D01*
X144833333Y-109124571D01*
X144833333Y-109315047D01*
X144880952Y-109410285D01*
X144928571Y-109457904D01*
X145023809Y-109505523D01*
X140452380Y-89457904D02*
X139452380Y-89457904D01*
X139452380Y-89076952D01*
X139500000Y-88981714D01*
X139547619Y-88934095D01*
X139642857Y-88886476D01*
X139785714Y-88886476D01*
X139880952Y-88934095D01*
X139928571Y-88981714D01*
X139976190Y-89076952D01*
X139976190Y-89457904D01*
X140452380Y-88457904D02*
X139452380Y-88457904D01*
X139452380Y-88219809D01*
X139500000Y-88076952D01*
X139595238Y-87981714D01*
X139690476Y-87934095D01*
X139880952Y-87886476D01*
X140023809Y-87886476D01*
X140214285Y-87934095D01*
X140309523Y-87981714D01*
X140404761Y-88076952D01*
X140452380Y-88219809D01*
X140452380Y-88457904D01*
X139452380Y-87553142D02*
X139452380Y-86934095D01*
X139833333Y-87267428D01*
X139833333Y-87124571D01*
X139880952Y-87029333D01*
X139928571Y-86981714D01*
X140023809Y-86934095D01*
X140261904Y-86934095D01*
X140357142Y-86981714D01*
X140404761Y-87029333D01*
X140452380Y-87124571D01*
X140452380Y-87410285D01*
X140404761Y-87505523D01*
X140357142Y-87553142D01*
X135352380Y-88657904D02*
X134352380Y-88657904D01*
X135352380Y-88086476D01*
X134352380Y-88086476D01*
X135257142Y-87038857D02*
X135304761Y-87086476D01*
X135352380Y-87229333D01*
X135352380Y-87324571D01*
X135304761Y-87467428D01*
X135209523Y-87562666D01*
X135114285Y-87610285D01*
X134923809Y-87657904D01*
X134780952Y-87657904D01*
X134590476Y-87610285D01*
X134495238Y-87562666D01*
X134400000Y-87467428D01*
X134352380Y-87324571D01*
X134352380Y-87229333D01*
X134400000Y-87086476D01*
X134447619Y-87038857D01*
D11*
X133734687Y-95370389D02*
X133734687Y-95437732D01*
X133667343Y-95572419D01*
X133600000Y-95639763D01*
X133465312Y-95707106D01*
X133330625Y-95707106D01*
X133229610Y-95673435D01*
X133061251Y-95572419D01*
X132960236Y-95471404D01*
X132859221Y-95303045D01*
X132825549Y-95202030D01*
X132825549Y-95067343D01*
X132892893Y-94932656D01*
X132960236Y-94865312D01*
X133094923Y-94797969D01*
X133162267Y-94797969D01*
X133802030Y-94629610D02*
X133701015Y-94663282D01*
X133633671Y-94663282D01*
X133532656Y-94629610D01*
X133498984Y-94595938D01*
X133465312Y-94494923D01*
X133465312Y-94427580D01*
X133498984Y-94326564D01*
X133633671Y-94191877D01*
X133734687Y-94158206D01*
X133802030Y-94158206D01*
X133903045Y-94191877D01*
X133936717Y-94225549D01*
X133970389Y-94326564D01*
X133970389Y-94393908D01*
X133936717Y-94494923D01*
X133802030Y-94629610D01*
X133768358Y-94730625D01*
X133768358Y-94797969D01*
X133802030Y-94898984D01*
X133936717Y-95033671D01*
X134037732Y-95067343D01*
X134105076Y-95067343D01*
X134206091Y-95033671D01*
X134340778Y-94898984D01*
X134374450Y-94797969D01*
X134374450Y-94730625D01*
X134340778Y-94629610D01*
X134206091Y-94494923D01*
X134105076Y-94461251D01*
X134037732Y-94461251D01*
X133936717Y-94494923D01*
X143238095Y-92552380D02*
X143238095Y-93361904D01*
X143285714Y-93457142D01*
X143333333Y-93504761D01*
X143428571Y-93552380D01*
X143619047Y-93552380D01*
X143714285Y-93504761D01*
X143761904Y-93457142D01*
X143809523Y-93361904D01*
X143809523Y-92552380D01*
X144238095Y-92647619D02*
X144285714Y-92600000D01*
X144380952Y-92552380D01*
X144619047Y-92552380D01*
X144714285Y-92600000D01*
X144761904Y-92647619D01*
X144809523Y-92742857D01*
X144809523Y-92838095D01*
X144761904Y-92980952D01*
X144190476Y-93552380D01*
X144809523Y-93552380D01*
X117157142Y-96966666D02*
X117204761Y-97014285D01*
X117252380Y-97157142D01*
X117252380Y-97252380D01*
X117204761Y-97395238D01*
X117109523Y-97490476D01*
X117014285Y-97538095D01*
X116823809Y-97585714D01*
X116680952Y-97585714D01*
X116490476Y-97538095D01*
X116395238Y-97490476D01*
X116300000Y-97395238D01*
X116252380Y-97252380D01*
X116252380Y-97157142D01*
X116300000Y-97014285D01*
X116347619Y-96966666D01*
X116585714Y-96109523D02*
X117252380Y-96109523D01*
X116204761Y-96347619D02*
X116919047Y-96585714D01*
X116919047Y-95966666D01*
X123546447Y-88719881D02*
X123883165Y-89056599D01*
X122940356Y-88585194D02*
X123546447Y-88719881D01*
X123411760Y-88113790D01*
X124724958Y-88214805D02*
X124320897Y-88618866D01*
X124522928Y-88416835D02*
X123815821Y-87709729D01*
X123849493Y-87878087D01*
X123849493Y-88012774D01*
X123815821Y-88113790D01*
X103198319Y-91207142D02*
X103150700Y-91254761D01*
X103007843Y-91302380D01*
X102912605Y-91302380D01*
X102769747Y-91254761D01*
X102674509Y-91159523D01*
X102626890Y-91064285D01*
X102579271Y-90873809D01*
X102579271Y-90730952D01*
X102626890Y-90540476D01*
X102674509Y-90445238D01*
X102769747Y-90350000D01*
X102912605Y-90302380D01*
X103007843Y-90302380D01*
X103150700Y-90350000D01*
X103198319Y-90397619D01*
X103531652Y-90302380D02*
X104150700Y-90302380D01*
X103817366Y-90683333D01*
X103960224Y-90683333D01*
X104055462Y-90730952D01*
X104103081Y-90778571D01*
X104150700Y-90873809D01*
X104150700Y-91111904D01*
X104103081Y-91207142D01*
X104055462Y-91254761D01*
X103960224Y-91302380D01*
X103674509Y-91302380D01*
X103579271Y-91254761D01*
X103531652Y-91207142D01*
X121634687Y-95470389D02*
X121634687Y-95537732D01*
X121567343Y-95672419D01*
X121500000Y-95739763D01*
X121365312Y-95807106D01*
X121230625Y-95807106D01*
X121129610Y-95773435D01*
X120961251Y-95672419D01*
X120860236Y-95571404D01*
X120759221Y-95403045D01*
X120725549Y-95302030D01*
X120725549Y-95167343D01*
X120792893Y-95032656D01*
X120860236Y-94965312D01*
X120994923Y-94897969D01*
X121062267Y-94897969D01*
X121601015Y-94224534D02*
X121466328Y-94359221D01*
X121432656Y-94460236D01*
X121432656Y-94527580D01*
X121466328Y-94695938D01*
X121567343Y-94864297D01*
X121836717Y-95133671D01*
X121937732Y-95167343D01*
X122005076Y-95167343D01*
X122106091Y-95133671D01*
X122240778Y-94998984D01*
X122274450Y-94897969D01*
X122274450Y-94830625D01*
X122240778Y-94729610D01*
X122072419Y-94561251D01*
X121971404Y-94527580D01*
X121904061Y-94527580D01*
X121803045Y-94561251D01*
X121668358Y-94695938D01*
X121634687Y-94796954D01*
X121634687Y-94864297D01*
X121668358Y-94965312D01*
X107910333Y-99385380D02*
X107577000Y-98909190D01*
X107338904Y-99385380D02*
X107338904Y-98385380D01*
X107719857Y-98385380D01*
X107815095Y-98433000D01*
X107862714Y-98480619D01*
X107910333Y-98575857D01*
X107910333Y-98718714D01*
X107862714Y-98813952D01*
X107815095Y-98861571D01*
X107719857Y-98909190D01*
X107338904Y-98909190D01*
X108243666Y-98385380D02*
X108862714Y-98385380D01*
X108529380Y-98766333D01*
X108672238Y-98766333D01*
X108767476Y-98813952D01*
X108815095Y-98861571D01*
X108862714Y-98956809D01*
X108862714Y-99194904D01*
X108815095Y-99290142D01*
X108767476Y-99337761D01*
X108672238Y-99385380D01*
X108386523Y-99385380D01*
X108291285Y-99337761D01*
X108243666Y-99290142D01*
X115448319Y-105075552D02*
X115114986Y-104599362D01*
X114876890Y-105075552D02*
X114876890Y-104075552D01*
X115257843Y-104075552D01*
X115353081Y-104123172D01*
X115400700Y-104170791D01*
X115448319Y-104266029D01*
X115448319Y-104408886D01*
X115400700Y-104504124D01*
X115353081Y-104551743D01*
X115257843Y-104599362D01*
X114876890Y-104599362D01*
X115829271Y-104170791D02*
X115876890Y-104123172D01*
X115972128Y-104075552D01*
X116210224Y-104075552D01*
X116305462Y-104123172D01*
X116353081Y-104170791D01*
X116400700Y-104266029D01*
X116400700Y-104361267D01*
X116353081Y-104504124D01*
X115781652Y-105075552D01*
X116400700Y-105075552D01*
X128434687Y-91070389D02*
X128434687Y-91137732D01*
X128367343Y-91272419D01*
X128300000Y-91339763D01*
X128165312Y-91407106D01*
X128030625Y-91407106D01*
X127929610Y-91373435D01*
X127761251Y-91272419D01*
X127660236Y-91171404D01*
X127559221Y-91003045D01*
X127525549Y-90902030D01*
X127525549Y-90767343D01*
X127592893Y-90632656D01*
X127660236Y-90565312D01*
X127794923Y-90497969D01*
X127862267Y-90497969D01*
X128030625Y-90194923D02*
X128502030Y-89723519D01*
X128906091Y-90733671D01*
X138733333Y-96857142D02*
X138685714Y-96904761D01*
X138542857Y-96952380D01*
X138447619Y-96952380D01*
X138304761Y-96904761D01*
X138209523Y-96809523D01*
X138161904Y-96714285D01*
X138114285Y-96523809D01*
X138114285Y-96380952D01*
X138161904Y-96190476D01*
X138209523Y-96095238D01*
X138304761Y-96000000D01*
X138447619Y-95952380D01*
X138542857Y-95952380D01*
X138685714Y-96000000D01*
X138733333Y-96047619D01*
X139114285Y-96047619D02*
X139161904Y-96000000D01*
X139257142Y-95952380D01*
X139495238Y-95952380D01*
X139590476Y-96000000D01*
X139638095Y-96047619D01*
X139685714Y-96142857D01*
X139685714Y-96238095D01*
X139638095Y-96380952D01*
X139066666Y-96952380D01*
X139685714Y-96952380D01*
X129897969Y-91607106D02*
X129897969Y-91674450D01*
X129830625Y-91809137D01*
X129763282Y-91876480D01*
X129628595Y-91943824D01*
X129493908Y-91943824D01*
X129392893Y-91910152D01*
X129224534Y-91809137D01*
X129123519Y-91708122D01*
X129022503Y-91539763D01*
X128988832Y-91438748D01*
X128988832Y-91304061D01*
X129056175Y-91169374D01*
X129123519Y-91102030D01*
X129258206Y-91034687D01*
X129325549Y-91034687D01*
X130638748Y-91001015D02*
X130234687Y-91405076D01*
X130436717Y-91203045D02*
X129729610Y-90495938D01*
X129763282Y-90664297D01*
X129763282Y-90798984D01*
X129729610Y-90900000D01*
X130369374Y-89856175D02*
X130436717Y-89788832D01*
X130537732Y-89755160D01*
X130605076Y-89755160D01*
X130706091Y-89788832D01*
X130874450Y-89889847D01*
X131042809Y-90058206D01*
X131143824Y-90226564D01*
X131177496Y-90327580D01*
X131177496Y-90394923D01*
X131143824Y-90495938D01*
X131076480Y-90563282D01*
X130975465Y-90596954D01*
X130908122Y-90596954D01*
X130807106Y-90563282D01*
X130638748Y-90462267D01*
X130470389Y-90293908D01*
X130369374Y-90125549D01*
X130335702Y-90024534D01*
X130335702Y-89957190D01*
X130369374Y-89856175D01*
X107738095Y-105152380D02*
X107738095Y-105961904D01*
X107785714Y-106057142D01*
X107833333Y-106104761D01*
X107928571Y-106152380D01*
X108119047Y-106152380D01*
X108214285Y-106104761D01*
X108261904Y-106057142D01*
X108309523Y-105961904D01*
X108309523Y-105152380D01*
X108738095Y-106104761D02*
X108880952Y-106152380D01*
X109119047Y-106152380D01*
X109214285Y-106104761D01*
X109261904Y-106057142D01*
X109309523Y-105961904D01*
X109309523Y-105866666D01*
X109261904Y-105771428D01*
X109214285Y-105723809D01*
X109119047Y-105676190D01*
X108928571Y-105628571D01*
X108833333Y-105580952D01*
X108785714Y-105533333D01*
X108738095Y-105438095D01*
X108738095Y-105342857D01*
X108785714Y-105247619D01*
X108833333Y-105200000D01*
X108928571Y-105152380D01*
X109166666Y-105152380D01*
X109309523Y-105200000D01*
X110309523Y-106152380D02*
X109976190Y-105676190D01*
X109738095Y-106152380D02*
X109738095Y-105152380D01*
X110119047Y-105152380D01*
X110214285Y-105200000D01*
X110261904Y-105247619D01*
X110309523Y-105342857D01*
X110309523Y-105485714D01*
X110261904Y-105580952D01*
X110214285Y-105628571D01*
X110119047Y-105676190D01*
X109738095Y-105676190D01*
X142966666Y-105852380D02*
X142966666Y-104852380D01*
X143347619Y-104852380D01*
X143442857Y-104900000D01*
X143490476Y-104947619D01*
X143538095Y-105042857D01*
X143538095Y-105185714D01*
X143490476Y-105280952D01*
X143442857Y-105328571D01*
X143347619Y-105376190D01*
X142966666Y-105376190D01*
X143871428Y-104852380D02*
X144109523Y-105852380D01*
X144300000Y-105138095D01*
X144490476Y-105852380D01*
X144728571Y-104852380D01*
X145680952Y-105852380D02*
X145347619Y-105376190D01*
X145109523Y-105852380D02*
X145109523Y-104852380D01*
X145490476Y-104852380D01*
X145585714Y-104900000D01*
X145633333Y-104947619D01*
X145680952Y-105042857D01*
X145680952Y-105185714D01*
X145633333Y-105280952D01*
X145585714Y-105328571D01*
X145490476Y-105376190D01*
X145109523Y-105376190D01*
X134546446Y-93119881D02*
X134883164Y-93456599D01*
X133940355Y-92985194D02*
X134546446Y-93119881D01*
X134411759Y-92513790D01*
X134681133Y-92379103D02*
X134681133Y-92311759D01*
X134714805Y-92210744D01*
X134883164Y-92042385D01*
X134984179Y-92008713D01*
X135051522Y-92008713D01*
X135152538Y-92042385D01*
X135219881Y-92109729D01*
X135287225Y-92244416D01*
X135287225Y-93052538D01*
X135724957Y-92614805D01*
X120857142Y-98766666D02*
X120904761Y-98814285D01*
X120952380Y-98957142D01*
X120952380Y-99052380D01*
X120904761Y-99195238D01*
X120809523Y-99290476D01*
X120714285Y-99338095D01*
X120523809Y-99385714D01*
X120380952Y-99385714D01*
X120190476Y-99338095D01*
X120095238Y-99290476D01*
X120000000Y-99195238D01*
X119952380Y-99052380D01*
X119952380Y-98957142D01*
X120000000Y-98814285D01*
X120047619Y-98766666D01*
X119952380Y-97861904D02*
X119952380Y-98338095D01*
X120428571Y-98385714D01*
X120380952Y-98338095D01*
X120333333Y-98242857D01*
X120333333Y-98004761D01*
X120380952Y-97909523D01*
X120428571Y-97861904D01*
X120523809Y-97814285D01*
X120761904Y-97814285D01*
X120857142Y-97861904D01*
X120904761Y-97909523D01*
X120952380Y-98004761D01*
X120952380Y-98242857D01*
X120904761Y-98338095D01*
X120857142Y-98385714D01*
X149335819Y-95887814D02*
X149288200Y-95935433D01*
X149145343Y-95983052D01*
X149050105Y-95983052D01*
X148907247Y-95935433D01*
X148812009Y-95840195D01*
X148764390Y-95744957D01*
X148716771Y-95554481D01*
X148716771Y-95411624D01*
X148764390Y-95221148D01*
X148812009Y-95125910D01*
X148907247Y-95030672D01*
X149050105Y-94983052D01*
X149145343Y-94983052D01*
X149288200Y-95030672D01*
X149335819Y-95078291D01*
X150288200Y-95983052D02*
X149716771Y-95983052D01*
X150002486Y-95983052D02*
X150002486Y-94983052D01*
X149907247Y-95125910D01*
X149812009Y-95221148D01*
X149716771Y-95268767D01*
X141533333Y-101852380D02*
X141200000Y-101376190D01*
X140961904Y-101852380D02*
X140961904Y-100852380D01*
X141342857Y-100852380D01*
X141438095Y-100900000D01*
X141485714Y-100947619D01*
X141533333Y-101042857D01*
X141533333Y-101185714D01*
X141485714Y-101280952D01*
X141438095Y-101328571D01*
X141342857Y-101376190D01*
X140961904Y-101376190D01*
X142485714Y-101852380D02*
X141914285Y-101852380D01*
X142200000Y-101852380D02*
X142200000Y-100852380D01*
X142104761Y-100995238D01*
X142009523Y-101090476D01*
X141914285Y-101138095D01*
X108418380Y-94178380D02*
X108085047Y-93702190D01*
X107846952Y-94178380D02*
X107846952Y-93178380D01*
X108227904Y-93178380D01*
X108323142Y-93226000D01*
X108370761Y-93273619D01*
X108418380Y-93368857D01*
X108418380Y-93511714D01*
X108370761Y-93606952D01*
X108323142Y-93654571D01*
X108227904Y-93702190D01*
X107846952Y-93702190D01*
X108799333Y-94130761D02*
X108942190Y-94178380D01*
X109180285Y-94178380D01*
X109275523Y-94130761D01*
X109323142Y-94083142D01*
X109370761Y-93987904D01*
X109370761Y-93892666D01*
X109323142Y-93797428D01*
X109275523Y-93749809D01*
X109180285Y-93702190D01*
X108989809Y-93654571D01*
X108894571Y-93606952D01*
X108846952Y-93559333D01*
X108799333Y-93464095D01*
X108799333Y-93368857D01*
X108846952Y-93273619D01*
X108894571Y-93226000D01*
X108989809Y-93178380D01*
X109227904Y-93178380D01*
X109370761Y-93226000D01*
X109656476Y-93178380D02*
X110227904Y-93178380D01*
X109942190Y-94178380D02*
X109942190Y-93178380D01*
X123534687Y-94370389D02*
X123534687Y-94437732D01*
X123467343Y-94572419D01*
X123400000Y-94639763D01*
X123265312Y-94707106D01*
X123130625Y-94707106D01*
X123029610Y-94673435D01*
X122861251Y-94572419D01*
X122760236Y-94471404D01*
X122659221Y-94303045D01*
X122625549Y-94202030D01*
X122625549Y-94067343D01*
X122692893Y-93932656D01*
X122760236Y-93865312D01*
X122894923Y-93797969D01*
X122962267Y-93797969D01*
X123938748Y-94101015D02*
X124073435Y-93966328D01*
X124107106Y-93865312D01*
X124107106Y-93797969D01*
X124073435Y-93629610D01*
X123972419Y-93461251D01*
X123703045Y-93191877D01*
X123602030Y-93158206D01*
X123534687Y-93158206D01*
X123433671Y-93191877D01*
X123298984Y-93326564D01*
X123265312Y-93427580D01*
X123265312Y-93494923D01*
X123298984Y-93595938D01*
X123467343Y-93764297D01*
X123568358Y-93797969D01*
X123635702Y-93797969D01*
X123736717Y-93764297D01*
X123871404Y-93629610D01*
X123905076Y-93528595D01*
X123905076Y-93461251D01*
X123871404Y-93360236D01*
X111656952Y-99258380D02*
X111180761Y-99258380D01*
X111180761Y-98258380D01*
X111990285Y-98734571D02*
X112323619Y-98734571D01*
X112466476Y-99258380D02*
X111990285Y-99258380D01*
X111990285Y-98258380D01*
X112466476Y-98258380D01*
X112895047Y-99258380D02*
X112895047Y-98258380D01*
X113133142Y-98258380D01*
X113276000Y-98306000D01*
X113371238Y-98401238D01*
X113418857Y-98496476D01*
X113466476Y-98686952D01*
X113466476Y-98829809D01*
X113418857Y-99020285D01*
X113371238Y-99115523D01*
X113276000Y-99210761D01*
X113133142Y-99258380D01*
X112895047Y-99258380D01*
X114418857Y-99258380D02*
X113847428Y-99258380D01*
X114133142Y-99258380D02*
X114133142Y-98258380D01*
X114037904Y-98401238D01*
X113942666Y-98496476D01*
X113847428Y-98544095D01*
D12*
X131869190Y-94178307D02*
X132021693Y-94330810D01*
X132378307Y-93669190D02*
X132530810Y-93821693D01*
X147614986Y-83400672D02*
X148944986Y-83400672D01*
X146344986Y-86060672D02*
X128504986Y-86060672D01*
X146344986Y-83400672D02*
X146344986Y-86060672D01*
X146344986Y-83400672D02*
X128504986Y-83400672D01*
X148944986Y-83400672D02*
X148944986Y-84730672D01*
X128504986Y-83400672D02*
X128504986Y-86060672D01*
X144114986Y-94170672D02*
X143314986Y-94170672D01*
X144114986Y-94170672D02*
X144914986Y-94170672D01*
X144114986Y-97290672D02*
X143314986Y-97290672D01*
X144114986Y-97290672D02*
X145914986Y-97290672D01*
X119255566Y-96220672D02*
X118974406Y-96220672D01*
X119255566Y-97240672D02*
X118974406Y-97240672D01*
X124947487Y-88319060D02*
X122119060Y-91147487D01*
X127280940Y-90652513D02*
X124947487Y-88319060D01*
X105507150Y-90490000D02*
X105722822Y-90490000D01*
X105507150Y-91210000D02*
X105722822Y-91210000D01*
X122543293Y-96261482D02*
X122695796Y-96108979D01*
X122034176Y-95752365D02*
X122186679Y-95599862D01*
X105377728Y-99627500D02*
X105852244Y-99627500D01*
X105377728Y-100672500D02*
X105852244Y-100672500D01*
X115092486Y-101635914D02*
X115092486Y-102110430D01*
X116137486Y-101635914D02*
X116137486Y-102110430D01*
D13*
X157885980Y-100305399D02*
X157885980Y-99848198D01*
X157885980Y-97689194D02*
X157885980Y-97231967D01*
X159308408Y-97054192D02*
X159308408Y-97130393D01*
X156922251Y-102230494D02*
X156431040Y-102230494D01*
X160612828Y-102230494D02*
X160923013Y-102540553D01*
X161103023Y-96463895D02*
X160684939Y-96463895D01*
X159359132Y-100406974D02*
X159435409Y-100406974D01*
X160504979Y-95230469D02*
X159777776Y-95230469D01*
X160504979Y-102230494D02*
X160612828Y-102230494D01*
X160504979Y-102230494D02*
X160504979Y-95230469D01*
X159206757Y-97968543D02*
X158952757Y-97968543D01*
X159663984Y-100406974D02*
X159663984Y-99746547D01*
X159359132Y-97790769D02*
X159435409Y-97790769D01*
X159435409Y-99746547D02*
X159435409Y-100406974D01*
X159435409Y-99746547D02*
X159359132Y-99746547D01*
X155474956Y-101049290D02*
X155474956Y-100508549D01*
X159435409Y-97790769D02*
X159663984Y-97790769D01*
X160923013Y-94920283D02*
X160923013Y-95428284D01*
X155474956Y-96952541D02*
X155474956Y-96411800D01*
X158952757Y-99568772D02*
X159206757Y-99568772D01*
X159663984Y-99746547D02*
X159435409Y-99746547D01*
X159435409Y-97130393D02*
X159359132Y-97130393D01*
X160923013Y-95428284D02*
X160923013Y-95440934D01*
X160684939Y-100970601D02*
X161103023Y-100970601D01*
X160612828Y-95230469D02*
X160923013Y-94920283D01*
X161103023Y-100970601D02*
X161103023Y-96463895D01*
X159663984Y-97790769D02*
X159663984Y-97130393D01*
X159308408Y-100406974D02*
X159359132Y-100406974D01*
X160923013Y-102540553D02*
X160923013Y-102032552D01*
X158952757Y-96952541D02*
X159206757Y-96952541D01*
X160504979Y-95230469D02*
X160612828Y-95230469D01*
X156922251Y-95230469D02*
X156431040Y-95230469D01*
X159308408Y-100483199D02*
X159308408Y-100406974D01*
X159359132Y-97130393D02*
X159359132Y-97790769D01*
X159308408Y-97866969D02*
X159308408Y-97790769D01*
X158749556Y-97790769D02*
X157987555Y-97790769D01*
X160504979Y-102230494D02*
X159777700Y-102230494D01*
X159359132Y-99746547D02*
X159359132Y-100406974D01*
X160923013Y-102032552D02*
X160923013Y-102019902D01*
X157987555Y-97130393D02*
X158749556Y-97130393D01*
X160923013Y-95440934D02*
X160504979Y-95858968D01*
X159308408Y-97130393D02*
X159359132Y-97130393D01*
X157987555Y-99746547D02*
X158749556Y-99746547D01*
X159435409Y-97130393D02*
X159435409Y-97790769D01*
X158749556Y-100406974D02*
X157987555Y-100406974D01*
X159308408Y-99746547D02*
X159359132Y-99746547D01*
X159663984Y-97130393D02*
X159435409Y-97130393D01*
X159206757Y-100584774D02*
X158952757Y-100584774D01*
X159308408Y-99670398D02*
X159308408Y-99746547D01*
X159435409Y-100406974D02*
X159663984Y-100406974D01*
X160923013Y-102019902D02*
X160504979Y-101601894D01*
X159308408Y-97790769D02*
X159359132Y-97790769D01*
X157996344Y-99754574D02*
G75*
G03*
X157896343Y-99854573I75J-100076D01*
G01*
X158846330Y-100491555D02*
G75*
G03*
X158747321Y-100404713I-98975J-12981D01*
G01*
X157896344Y-97688355D02*
G75*
G03*
X157996343Y-97788356I100074J73D01*
G01*
X158846334Y-97875350D02*
G75*
G03*
X158747321Y-97788508I-98976J-12982D01*
G01*
X158947321Y-99580558D02*
G75*
G03*
X158847321Y-99680558I78J-100078D01*
G01*
X158747321Y-99754573D02*
G75*
G03*
X158846559Y-99666562I-108J100076D01*
G01*
X157996343Y-97138357D02*
G75*
G03*
X157896343Y-97238368I115J-100115D01*
G01*
X158747321Y-97138416D02*
G75*
G03*
X158846559Y-97050357I-263J100244D01*
G01*
X159196318Y-100579567D02*
G75*
G03*
X159296343Y-100479567I-51J100076D01*
G01*
X157896343Y-100304561D02*
G75*
G03*
X157996343Y-100404561I100078J78D01*
G01*
X159295328Y-99678577D02*
G75*
G03*
X159195327Y-99578576I-100077J-76D01*
G01*
X158847321Y-100481574D02*
G75*
G03*
X158947321Y-100581574I100078J78D01*
G01*
X158847322Y-97865368D02*
G75*
G03*
X158947321Y-97965368I100076J76D01*
G01*
X158947323Y-96964434D02*
G75*
G03*
X158847321Y-97064352I1035J-101038D01*
G01*
X159196318Y-97963357D02*
G75*
G03*
X159296343Y-97863362I-60J100085D01*
G01*
X159295329Y-97062371D02*
G75*
G03*
X159195327Y-96962371I-100121J-121D01*
G01*
D14*
X155204953Y-102730621D02*
G75*
G03*
X155204953Y-102730621I-29997J0D01*
G01*
D12*
X126978307Y-92330810D02*
X127130810Y-92178307D01*
X126469190Y-91821693D02*
X126621693Y-91669190D01*
X146344986Y-115060672D02*
X128504986Y-115060672D01*
X147614986Y-112400672D02*
X148944986Y-112400672D01*
X146344986Y-112400672D02*
X146344986Y-115060672D01*
X128504986Y-112400672D02*
X128504986Y-115060672D01*
X146344986Y-112400672D02*
X128504986Y-112400672D01*
X148944986Y-112400672D02*
X148944986Y-113730672D01*
X133258165Y-98518540D02*
X133470297Y-98730672D01*
X128152854Y-103623851D02*
X128364986Y-103835983D01*
X133470297Y-98730672D02*
X133258165Y-98942804D01*
X128364986Y-103835983D02*
X128577118Y-103623851D01*
X123471807Y-98942804D02*
X123259675Y-98730672D01*
X128152854Y-93837493D02*
X127223009Y-92907648D01*
X123259675Y-98730672D02*
X123471807Y-98518540D01*
X128364986Y-93625361D02*
X128152854Y-93837493D01*
X128577118Y-93837493D02*
X128364986Y-93625361D01*
X141124986Y-95871252D02*
X141124986Y-95590092D01*
X140104986Y-95871252D02*
X140104986Y-95590092D01*
X130521693Y-92830810D02*
X130369190Y-92678307D01*
X131030810Y-92321693D02*
X130878307Y-92169190D01*
D13*
X107164897Y-105781102D02*
X107164897Y-103018898D01*
X105071171Y-106599898D02*
X106158801Y-106599898D01*
X104598984Y-104908001D02*
X104598984Y-103891999D01*
X104091110Y-103033579D02*
X104091110Y-105766421D01*
X105071171Y-102200102D02*
X106158801Y-102200102D01*
X106630988Y-104908001D02*
X106630988Y-103891999D01*
X104598984Y-104908001D02*
G75*
G03*
X106630988Y-104908001I1016002J0D01*
G01*
X106630988Y-103891999D02*
G75*
G03*
X104598984Y-103891999I-1016002J0D01*
G01*
D14*
X104045009Y-106699975D02*
G75*
G03*
X104045009Y-106699975I-29972J0D01*
G01*
D12*
X145302486Y-102520672D02*
X142617486Y-102520672D01*
X142617486Y-104440672D02*
X145302486Y-104440672D01*
X142617486Y-102520672D02*
X142617486Y-104440672D01*
X132882843Y-93514214D02*
X134014214Y-92382843D01*
X131185786Y-91817157D02*
X132882843Y-93514214D01*
X134014214Y-92382843D02*
X132317157Y-90685786D01*
X121974986Y-98372836D02*
X121974986Y-98588508D01*
X121254986Y-98372836D02*
X121254986Y-98588508D01*
X147354986Y-95590092D02*
X147354986Y-95871252D01*
X148374986Y-95590092D02*
X148374986Y-95871252D01*
X144127728Y-101753172D02*
X144602244Y-101753172D01*
X144127728Y-100708172D02*
X144602244Y-100708172D01*
X104884986Y-83400672D02*
X122724986Y-83400672D01*
X104884986Y-86060672D02*
X104884986Y-83400672D01*
X102284986Y-86060672D02*
X102284986Y-84730672D01*
X104884986Y-86060672D02*
X122724986Y-86060672D01*
X122724986Y-86060672D02*
X122724986Y-83400672D01*
X103614986Y-86060672D02*
X102284986Y-86060672D01*
X104884986Y-112400672D02*
X122724986Y-112400672D01*
X103614986Y-115060672D02*
X102284986Y-115060672D01*
X104884986Y-115060672D02*
X122724986Y-115060672D01*
X104884986Y-115060672D02*
X104884986Y-112400672D01*
X122724986Y-115060672D02*
X122724986Y-112400672D01*
X102284986Y-115060672D02*
X102284986Y-113730672D01*
D13*
X106630988Y-94091999D02*
X106630988Y-95108001D01*
X107138862Y-95966421D02*
X107138862Y-93233579D01*
X106158801Y-96799898D02*
X105071171Y-96799898D01*
X104065075Y-93218898D02*
X104065075Y-95981102D01*
X106158801Y-92400102D02*
X105071171Y-92400102D01*
X104598984Y-94091999D02*
X104598984Y-95108001D01*
X106630988Y-94091999D02*
G75*
G03*
X104598984Y-94091999I-1016002J0D01*
G01*
X104598984Y-95108001D02*
G75*
G03*
X106630988Y-95108001I1016002J0D01*
G01*
D14*
X107244907Y-92300025D02*
G75*
G03*
X107244907Y-92300025I-29972J0D01*
G01*
D12*
X95784986Y-101800672D02*
X95784986Y-94120672D01*
X98444986Y-101800672D02*
X98444986Y-94120672D01*
X98444986Y-94120672D02*
X95784986Y-94120672D01*
X98444986Y-101800672D02*
X95784986Y-101800672D01*
X98444986Y-103070672D02*
X98444986Y-104400672D01*
X98444986Y-104400672D02*
X97114986Y-104400672D01*
X124521693Y-93869190D02*
X124369190Y-94021693D01*
X125030810Y-94378307D02*
X124878307Y-94530810D01*
X113824986Y-100295672D02*
X111904986Y-100295672D01*
X113824986Y-102980672D02*
X113824986Y-100295672D01*
X111904986Y-100295672D02*
X111904986Y-102980672D01*
%LPC*%
D15*
X131860589Y-93660589D03*
X132539411Y-94339411D03*
D16*
X147614986Y-84730672D03*
D17*
X145074986Y-84730672D03*
X142534986Y-84730672D03*
X139994986Y-84730672D03*
X137454986Y-84730672D03*
X134914986Y-84730672D03*
X132374986Y-84730672D03*
X129834986Y-84730672D03*
D18*
X97200000Y-113700000D03*
D19*
X145252486Y-96680672D03*
X145252486Y-95730672D03*
X145252486Y-94780672D03*
X142977486Y-94780672D03*
X142977486Y-96680672D03*
D20*
X119889986Y-96730672D03*
X118339986Y-96730672D03*
D21*
X124876777Y-89521142D03*
X123321142Y-91076777D03*
X124523223Y-92278858D03*
X126078858Y-90723223D03*
D22*
X105134986Y-90850000D03*
X106094986Y-90850000D03*
D23*
X122025575Y-96270083D03*
X122704397Y-95591261D03*
D24*
X104789986Y-100150000D03*
X106439986Y-100150000D03*
D25*
X115614986Y-101048172D03*
X115614986Y-102698172D03*
D26*
X156209373Y-100730672D03*
X156209373Y-96730672D03*
D27*
X155674956Y-100000675D03*
X155674956Y-99350433D03*
X155674956Y-98700192D03*
X155674956Y-98049951D03*
X155674956Y-97399709D03*
D28*
X155600026Y-101980608D03*
X155600026Y-95480736D03*
D29*
X158350090Y-102305729D03*
X158350090Y-95155615D03*
D23*
X126460589Y-92339411D03*
X127139411Y-91660589D03*
D16*
X147614986Y-113730672D03*
D17*
X145074986Y-113730672D03*
X142534986Y-113730672D03*
X139994986Y-113730672D03*
X137454986Y-113730672D03*
X134914986Y-113730672D03*
X132374986Y-113730672D03*
X129834986Y-113730672D03*
D18*
X155200000Y-84730672D03*
D30*
X127392714Y-93798602D03*
X126827029Y-94364288D03*
X126261343Y-94929973D03*
X125695658Y-95495658D03*
X125129972Y-96061344D03*
X124564287Y-96627029D03*
X123998602Y-97192715D03*
X123432916Y-97758400D03*
D31*
X123432916Y-99702944D03*
X123998602Y-100268629D03*
X124564287Y-100834315D03*
X125129972Y-101400000D03*
X125695658Y-101965686D03*
X126261343Y-102531371D03*
X126827029Y-103097056D03*
X127392714Y-103662742D03*
D30*
X129337258Y-103662742D03*
X129902943Y-103097056D03*
X130468629Y-102531371D03*
X131034314Y-101965686D03*
X131600000Y-101400000D03*
X132165685Y-100834315D03*
X132731370Y-100268629D03*
X133297056Y-99702944D03*
D31*
X133297056Y-97758400D03*
X132731370Y-97192715D03*
X132165685Y-96627029D03*
X131600000Y-96061344D03*
X131034314Y-95495658D03*
X130468629Y-94929973D03*
X129902943Y-94364288D03*
X129337258Y-93798602D03*
D32*
X140614986Y-96505672D03*
X140614986Y-94955672D03*
D33*
X131039411Y-92839411D03*
X130360589Y-92160589D03*
D34*
X104540056Y-106500076D03*
X104540056Y-102299924D03*
X106689916Y-106500076D03*
X106689916Y-102299924D03*
D35*
X143364986Y-103480672D03*
X145239986Y-103480672D03*
D36*
X133094975Y-92594975D03*
X132105025Y-91605025D03*
D37*
X121614986Y-98000672D03*
X121614986Y-98960672D03*
D38*
X147864986Y-94955672D03*
X147864986Y-96505672D03*
D18*
X155200000Y-113700000D03*
X97200000Y-84700000D03*
D24*
X143539986Y-101230672D03*
X145189986Y-101230672D03*
D16*
X103614986Y-84730672D03*
D17*
X106154986Y-84730672D03*
X108694986Y-84730672D03*
X111234986Y-84730672D03*
X113774986Y-84730672D03*
X116314986Y-84730672D03*
X118854986Y-84730672D03*
X121394986Y-84730672D03*
D16*
X103614986Y-113730672D03*
D17*
X106154986Y-113730672D03*
X108694986Y-113730672D03*
X111234986Y-113730672D03*
X113774986Y-113730672D03*
X116314986Y-113730672D03*
X118854986Y-113730672D03*
X121394986Y-113730672D03*
D34*
X106689916Y-92499924D03*
X106689916Y-96700076D03*
X104540056Y-92499924D03*
X104540056Y-96700076D03*
D16*
X97114986Y-103070672D03*
D17*
X97114986Y-100530672D03*
X97114986Y-97990672D03*
X97114986Y-95450672D03*
D39*
X125039411Y-93860589D03*
X124360589Y-94539411D03*
D40*
X112864986Y-101043172D03*
X112864986Y-102918172D03*
M02*
