G04 #@! TF.GenerationSoftware,KiCad,Pcbnew,(6.0.7-1)-1*
G04 #@! TF.CreationDate,2023-06-08T21:11:32-04:00*
G04 #@! TF.ProjectId,stm8l151k6t6_board,73746d38-6c31-4353-916b-3674365f626f,rev?*
G04 #@! TF.SameCoordinates,Original*
G04 #@! TF.FileFunction,Copper,L2,Bot*
G04 #@! TF.FilePolarity,Positive*
%FSLAX46Y46*%
G04 Gerber Fmt 4.6, Leading zero omitted, Abs format (unit mm)*
G04 Created by KiCad (PCBNEW (6.0.7-1)-1) date 2023-06-08 21:11:32*
%MOMM*%
%LPD*%
G01*
G04 APERTURE LIST*
G04 #@! TA.AperFunction,ComponentPad*
%ADD10R,1.700000X1.700000*%
G04 #@! TD*
G04 #@! TA.AperFunction,ComponentPad*
%ADD11O,1.700000X1.700000*%
G04 #@! TD*
G04 #@! TA.AperFunction,ComponentPad*
%ADD12O,2.400000X1.200000*%
G04 #@! TD*
G04 #@! TA.AperFunction,ViaPad*
%ADD13C,0.800000*%
G04 #@! TD*
G04 #@! TA.AperFunction,ViaPad*
%ADD14C,1.000000*%
G04 #@! TD*
G04 #@! TA.AperFunction,Conductor*
%ADD15C,0.350000*%
G04 #@! TD*
G04 #@! TA.AperFunction,Conductor*
%ADD16C,0.250000*%
G04 #@! TD*
G04 APERTURE END LIST*
D10*
X147614986Y-84730672D03*
D11*
X145074986Y-84730672D03*
X142534986Y-84730672D03*
X139994986Y-84730672D03*
X137454986Y-84730672D03*
X134914986Y-84730672D03*
X132374986Y-84730672D03*
X129834986Y-84730672D03*
D12*
X158350090Y-102305729D03*
X158350090Y-95155615D03*
D10*
X147614986Y-113730672D03*
D11*
X145074986Y-113730672D03*
X142534986Y-113730672D03*
X139994986Y-113730672D03*
X137454986Y-113730672D03*
X134914986Y-113730672D03*
X132374986Y-113730672D03*
X129834986Y-113730672D03*
D10*
X103614986Y-84730672D03*
D11*
X106154986Y-84730672D03*
X108694986Y-84730672D03*
X111234986Y-84730672D03*
X113774986Y-84730672D03*
X116314986Y-84730672D03*
X118854986Y-84730672D03*
X121394986Y-84730672D03*
D10*
X103614986Y-113730672D03*
D11*
X106154986Y-113730672D03*
X108694986Y-113730672D03*
X111234986Y-113730672D03*
X113774986Y-113730672D03*
X116314986Y-113730672D03*
X118854986Y-113730672D03*
X121394986Y-113730672D03*
D10*
X97114986Y-103070672D03*
D11*
X97114986Y-100530672D03*
X97114986Y-97990672D03*
X97114986Y-95450672D03*
D13*
X143900000Y-95800000D03*
X140600000Y-93900000D03*
X154319264Y-95480736D03*
X154300000Y-102000000D03*
X122800000Y-89900000D03*
X118300000Y-97900000D03*
X107700000Y-92500000D03*
X154200291Y-97399709D03*
X125000000Y-98100000D03*
X133400000Y-93800000D03*
X142000000Y-103500000D03*
X142977486Y-93822514D03*
X122700000Y-98900000D03*
X127598500Y-90900000D03*
X107700000Y-100200000D03*
X112800000Y-99900000D03*
X107700000Y-96700000D03*
X120269000Y-89916000D03*
X122000000Y-94900000D03*
X147800000Y-97500000D03*
X130600000Y-91200000D03*
X98890672Y-97990672D03*
X129900000Y-83100000D03*
X103614986Y-86285014D03*
X106100000Y-89900000D03*
D14*
X135800000Y-100200000D03*
X120500000Y-100200000D03*
D13*
X128250000Y-95125000D03*
X127075000Y-89425000D03*
X123975000Y-111275000D03*
X117064986Y-101030672D03*
X121575000Y-90575000D03*
X127325000Y-96350000D03*
X122607681Y-93492319D03*
X126225000Y-97300000D03*
X123475000Y-106250000D03*
X132864986Y-102630672D03*
X123275000Y-107325000D03*
X133964986Y-102530672D03*
X135064986Y-102430672D03*
X123475000Y-108450000D03*
X136064986Y-102230672D03*
X123240476Y-109421599D03*
X130000000Y-96600000D03*
X134675000Y-91925000D03*
D15*
X120500000Y-100200000D02*
X135800000Y-100200000D01*
D16*
X128250000Y-95125000D02*
X128250000Y-90600000D01*
X128250000Y-90600000D02*
X127075000Y-89425000D01*
X117430672Y-101030672D02*
X120600000Y-104200000D01*
X123725000Y-111300000D02*
X123950000Y-111300000D01*
X120600000Y-104200000D02*
X121625000Y-105225000D01*
X122975000Y-111300000D02*
X123725000Y-111300000D01*
X121625000Y-109950000D02*
X122975000Y-111300000D01*
X121625000Y-105225000D02*
X121625000Y-109950000D01*
X123950000Y-111300000D02*
X123975000Y-111275000D01*
X117064986Y-101030672D02*
X117430672Y-101030672D01*
X121750000Y-90775000D02*
X121750000Y-90750000D01*
X127325000Y-96350000D02*
X121750000Y-90775000D01*
X121750000Y-90750000D02*
X121575000Y-90575000D01*
X122607681Y-93492319D02*
X126225000Y-97109638D01*
X126225000Y-97109638D02*
X126225000Y-97300000D01*
X129245658Y-106250000D02*
X123475000Y-106250000D01*
X132864986Y-102630672D02*
X129245658Y-106250000D01*
X123280672Y-107330672D02*
X123275000Y-107325000D01*
X133964986Y-103130672D02*
X129764986Y-107330672D01*
X129764986Y-107330672D02*
X123280672Y-107330672D01*
X133964986Y-102530672D02*
X133964986Y-103130672D01*
X129764986Y-108430672D02*
X123494328Y-108430672D01*
X135064986Y-103130672D02*
X129764986Y-108430672D01*
X135064986Y-102430672D02*
X135064986Y-103130672D01*
X123494328Y-108430672D02*
X123475000Y-108450000D01*
X136064986Y-102230672D02*
X136064986Y-103130672D01*
X123300000Y-109175000D02*
X123300000Y-109362075D01*
X123300000Y-109362075D02*
X123240476Y-109421599D01*
X130020658Y-109175000D02*
X123300000Y-109175000D01*
X136064986Y-103130672D02*
X130020658Y-109175000D01*
X133600000Y-91900000D02*
X134650000Y-91900000D01*
X130000000Y-96600000D02*
X129800000Y-96400000D01*
X129800000Y-95700000D02*
X133600000Y-91900000D01*
X129800000Y-96400000D02*
X129800000Y-95700000D01*
X134650000Y-91900000D02*
X134675000Y-91925000D01*
G04 #@! TA.AperFunction,Conductor*
G36*
X158341050Y-81223502D02*
G01*
X158358054Y-81236603D01*
X158513335Y-81378893D01*
X158521107Y-81386665D01*
X158550653Y-81418908D01*
X158790189Y-81680315D01*
X158797241Y-81688718D01*
X158975419Y-81920925D01*
X159039707Y-82004707D01*
X159046011Y-82013711D01*
X159260004Y-82349613D01*
X159265494Y-82359122D01*
X159449409Y-82712418D01*
X159454042Y-82722353D01*
X159605594Y-83088231D01*
X159606465Y-83090334D01*
X159610221Y-83100655D01*
X159709542Y-83415661D01*
X159729987Y-83480504D01*
X159732830Y-83491115D01*
X159819037Y-83879968D01*
X159820943Y-83890773D01*
X159869630Y-84260594D01*
X159872929Y-84285655D01*
X159873887Y-84296604D01*
X159886269Y-84580184D01*
X159889603Y-84656552D01*
X159888223Y-84681429D01*
X159886309Y-84693724D01*
X159887473Y-84702626D01*
X159887473Y-84702628D01*
X159890436Y-84725283D01*
X159891500Y-84741621D01*
X159891500Y-94227908D01*
X159871498Y-94296029D01*
X159817842Y-94342522D01*
X159747568Y-94352626D01*
X159678370Y-94318926D01*
X159644265Y-94286278D01*
X159634894Y-94278877D01*
X159467349Y-94170694D01*
X159456745Y-94165198D01*
X159271778Y-94090654D01*
X159260320Y-94087260D01*
X159063162Y-94048758D01*
X159054299Y-94047681D01*
X159051590Y-94047615D01*
X158622205Y-94047615D01*
X158606966Y-94052090D01*
X158605761Y-94053480D01*
X158604090Y-94061163D01*
X158604090Y-96245500D01*
X158608565Y-96260739D01*
X158609955Y-96261944D01*
X158617638Y-96263615D01*
X158999922Y-96263615D01*
X159005898Y-96263330D01*
X159154584Y-96249144D01*
X159166318Y-96246885D01*
X159357689Y-96190743D01*
X159368765Y-96186313D01*
X159546068Y-96094996D01*
X159556114Y-96088546D01*
X159687667Y-95985210D01*
X159753593Y-95958860D01*
X159823299Y-95972335D01*
X159874654Y-96021357D01*
X159891500Y-96084296D01*
X159891500Y-101378022D01*
X159871498Y-101446143D01*
X159817842Y-101492636D01*
X159747568Y-101502740D01*
X159678370Y-101469040D01*
X159644265Y-101436392D01*
X159634894Y-101428991D01*
X159467349Y-101320808D01*
X159456745Y-101315312D01*
X159271778Y-101240768D01*
X159260320Y-101237374D01*
X159063162Y-101198872D01*
X159054299Y-101197795D01*
X159051590Y-101197729D01*
X158622205Y-101197729D01*
X158606966Y-101202204D01*
X158605761Y-101203594D01*
X158604090Y-101211277D01*
X158604090Y-103395614D01*
X158608565Y-103410853D01*
X158609955Y-103412058D01*
X158617638Y-103413729D01*
X158999922Y-103413729D01*
X159005898Y-103413444D01*
X159154584Y-103399258D01*
X159166318Y-103396999D01*
X159357689Y-103340857D01*
X159368765Y-103336427D01*
X159546068Y-103245110D01*
X159556114Y-103238660D01*
X159687667Y-103135324D01*
X159753593Y-103108974D01*
X159823299Y-103122449D01*
X159874654Y-103171471D01*
X159891500Y-103234410D01*
X159891500Y-113650633D01*
X159890000Y-113670018D01*
X159887690Y-113684851D01*
X159887690Y-113684855D01*
X159886309Y-113693724D01*
X159888984Y-113714183D01*
X159889928Y-113736007D01*
X159881657Y-113925439D01*
X159873887Y-114103395D01*
X159872929Y-114114345D01*
X159833230Y-114415898D01*
X159820944Y-114509219D01*
X159819037Y-114520032D01*
X159732832Y-114908879D01*
X159729987Y-114919495D01*
X159657417Y-115149661D01*
X159610224Y-115299337D01*
X159606468Y-115309658D01*
X159524416Y-115507750D01*
X159454046Y-115677638D01*
X159449409Y-115687582D01*
X159265494Y-116040878D01*
X159260004Y-116050387D01*
X159046011Y-116386289D01*
X159039707Y-116395293D01*
X158797241Y-116711282D01*
X158790181Y-116719694D01*
X158647295Y-116875625D01*
X158586527Y-116912335D01*
X158554399Y-116916500D01*
X94029500Y-116916500D01*
X93961379Y-116896498D01*
X93914886Y-116842842D01*
X93903500Y-116790500D01*
X93903500Y-113832703D01*
X95090743Y-113832703D01*
X95128268Y-114117734D01*
X95129401Y-114121874D01*
X95129401Y-114121876D01*
X95135326Y-114143534D01*
X95204129Y-114395036D01*
X95205813Y-114398984D01*
X95310236Y-114643798D01*
X95316923Y-114659476D01*
X95464561Y-114906161D01*
X95644313Y-115130528D01*
X95661397Y-115146740D01*
X95822201Y-115299337D01*
X95852851Y-115328423D01*
X96086317Y-115496186D01*
X96090112Y-115498195D01*
X96090113Y-115498196D01*
X96111869Y-115509715D01*
X96340392Y-115630712D01*
X96364699Y-115639607D01*
X96495849Y-115687601D01*
X96610373Y-115729511D01*
X96891264Y-115790755D01*
X96919841Y-115793004D01*
X97114282Y-115808307D01*
X97114291Y-115808307D01*
X97116739Y-115808500D01*
X97272271Y-115808500D01*
X97274407Y-115808354D01*
X97274418Y-115808354D01*
X97482548Y-115794165D01*
X97482554Y-115794164D01*
X97486825Y-115793873D01*
X97491020Y-115793004D01*
X97491022Y-115793004D01*
X97627584Y-115764723D01*
X97768342Y-115735574D01*
X98039343Y-115639607D01*
X98294812Y-115507750D01*
X98298313Y-115505289D01*
X98298317Y-115505287D01*
X98412417Y-115425096D01*
X98530023Y-115342441D01*
X98740622Y-115146740D01*
X98922713Y-114924268D01*
X99072927Y-114679142D01*
X99094466Y-114630076D01*
X99095023Y-114628806D01*
X102256486Y-114628806D01*
X102263241Y-114690988D01*
X102314371Y-114827377D01*
X102401725Y-114943933D01*
X102518281Y-115031287D01*
X102654670Y-115082417D01*
X102716852Y-115089172D01*
X104513120Y-115089172D01*
X104575302Y-115082417D01*
X104711691Y-115031287D01*
X104828247Y-114943933D01*
X104915601Y-114827377D01*
X104937785Y-114768201D01*
X104959584Y-114710054D01*
X105002226Y-114653290D01*
X105068788Y-114628590D01*
X105138136Y-114643798D01*
X105172803Y-114671786D01*
X105201236Y-114704610D01*
X105373112Y-114847304D01*
X105565986Y-114960010D01*
X105774678Y-115039702D01*
X105779746Y-115040733D01*
X105779749Y-115040734D01*
X105887003Y-115062555D01*
X105993583Y-115084239D01*
X105998758Y-115084429D01*
X105998760Y-115084429D01*
X106211659Y-115092236D01*
X106211663Y-115092236D01*
X106216823Y-115092425D01*
X106221943Y-115091769D01*
X106221945Y-115091769D01*
X106433274Y-115064697D01*
X106433275Y-115064697D01*
X106438402Y-115064040D01*
X106443352Y-115062555D01*
X106647415Y-115001333D01*
X106647420Y-115001331D01*
X106652370Y-114999846D01*
X106852980Y-114901568D01*
X107034846Y-114771845D01*
X107193082Y-114614161D01*
X107252580Y-114531361D01*
X107323439Y-114432749D01*
X107324762Y-114433700D01*
X107371631Y-114390529D01*
X107441566Y-114378297D01*
X107507012Y-114405816D01*
X107534861Y-114437666D01*
X107594973Y-114535760D01*
X107741236Y-114704610D01*
X107913112Y-114847304D01*
X108105986Y-114960010D01*
X108314678Y-115039702D01*
X108319746Y-115040733D01*
X108319749Y-115040734D01*
X108427003Y-115062555D01*
X108533583Y-115084239D01*
X108538758Y-115084429D01*
X108538760Y-115084429D01*
X108751659Y-115092236D01*
X108751663Y-115092236D01*
X108756823Y-115092425D01*
X108761943Y-115091769D01*
X108761945Y-115091769D01*
X108973274Y-115064697D01*
X108973275Y-115064697D01*
X108978402Y-115064040D01*
X108983352Y-115062555D01*
X109187415Y-115001333D01*
X109187420Y-115001331D01*
X109192370Y-114999846D01*
X109392980Y-114901568D01*
X109574846Y-114771845D01*
X109733082Y-114614161D01*
X109792580Y-114531361D01*
X109863439Y-114432749D01*
X109864762Y-114433700D01*
X109911631Y-114390529D01*
X109981566Y-114378297D01*
X110047012Y-114405816D01*
X110074861Y-114437666D01*
X110134973Y-114535760D01*
X110281236Y-114704610D01*
X110453112Y-114847304D01*
X110645986Y-114960010D01*
X110854678Y-115039702D01*
X110859746Y-115040733D01*
X110859749Y-115040734D01*
X110967003Y-115062555D01*
X111073583Y-115084239D01*
X111078758Y-115084429D01*
X111078760Y-115084429D01*
X111291659Y-115092236D01*
X111291663Y-115092236D01*
X111296823Y-115092425D01*
X111301943Y-115091769D01*
X111301945Y-115091769D01*
X111513274Y-115064697D01*
X111513275Y-115064697D01*
X111518402Y-115064040D01*
X111523352Y-115062555D01*
X111727415Y-115001333D01*
X111727420Y-115001331D01*
X111732370Y-114999846D01*
X111932980Y-114901568D01*
X112114846Y-114771845D01*
X112273082Y-114614161D01*
X112332580Y-114531361D01*
X112403439Y-114432749D01*
X112404762Y-114433700D01*
X112451631Y-114390529D01*
X112521566Y-114378297D01*
X112587012Y-114405816D01*
X112614861Y-114437666D01*
X112674973Y-114535760D01*
X112821236Y-114704610D01*
X112993112Y-114847304D01*
X113185986Y-114960010D01*
X113394678Y-115039702D01*
X113399746Y-115040733D01*
X113399749Y-115040734D01*
X113507003Y-115062555D01*
X113613583Y-115084239D01*
X113618758Y-115084429D01*
X113618760Y-115084429D01*
X113831659Y-115092236D01*
X113831663Y-115092236D01*
X113836823Y-115092425D01*
X113841943Y-115091769D01*
X113841945Y-115091769D01*
X114053274Y-115064697D01*
X114053275Y-115064697D01*
X114058402Y-115064040D01*
X114063352Y-115062555D01*
X114267415Y-115001333D01*
X114267420Y-115001331D01*
X114272370Y-114999846D01*
X114472980Y-114901568D01*
X114654846Y-114771845D01*
X114813082Y-114614161D01*
X114872580Y-114531361D01*
X114943439Y-114432749D01*
X114944762Y-114433700D01*
X114991631Y-114390529D01*
X115061566Y-114378297D01*
X115127012Y-114405816D01*
X115154861Y-114437666D01*
X115214973Y-114535760D01*
X115361236Y-114704610D01*
X115533112Y-114847304D01*
X115725986Y-114960010D01*
X115934678Y-115039702D01*
X115939746Y-115040733D01*
X115939749Y-115040734D01*
X116047003Y-115062555D01*
X116153583Y-115084239D01*
X116158758Y-115084429D01*
X116158760Y-115084429D01*
X116371659Y-115092236D01*
X116371663Y-115092236D01*
X116376823Y-115092425D01*
X116381943Y-115091769D01*
X116381945Y-115091769D01*
X116593274Y-115064697D01*
X116593275Y-115064697D01*
X116598402Y-115064040D01*
X116603352Y-115062555D01*
X116807415Y-115001333D01*
X116807420Y-115001331D01*
X116812370Y-114999846D01*
X117012980Y-114901568D01*
X117194846Y-114771845D01*
X117353082Y-114614161D01*
X117412580Y-114531361D01*
X117483439Y-114432749D01*
X117484762Y-114433700D01*
X117531631Y-114390529D01*
X117601566Y-114378297D01*
X117667012Y-114405816D01*
X117694861Y-114437666D01*
X117754973Y-114535760D01*
X117901236Y-114704610D01*
X118073112Y-114847304D01*
X118265986Y-114960010D01*
X118474678Y-115039702D01*
X118479746Y-115040733D01*
X118479749Y-115040734D01*
X118587003Y-115062555D01*
X118693583Y-115084239D01*
X118698758Y-115084429D01*
X118698760Y-115084429D01*
X118911659Y-115092236D01*
X118911663Y-115092236D01*
X118916823Y-115092425D01*
X118921943Y-115091769D01*
X118921945Y-115091769D01*
X119133274Y-115064697D01*
X119133275Y-115064697D01*
X119138402Y-115064040D01*
X119143352Y-115062555D01*
X119347415Y-115001333D01*
X119347420Y-115001331D01*
X119352370Y-114999846D01*
X119552980Y-114901568D01*
X119734846Y-114771845D01*
X119893082Y-114614161D01*
X119952580Y-114531361D01*
X120023439Y-114432749D01*
X120024762Y-114433700D01*
X120071631Y-114390529D01*
X120141566Y-114378297D01*
X120207012Y-114405816D01*
X120234861Y-114437666D01*
X120294973Y-114535760D01*
X120441236Y-114704610D01*
X120613112Y-114847304D01*
X120805986Y-114960010D01*
X121014678Y-115039702D01*
X121019746Y-115040733D01*
X121019749Y-115040734D01*
X121127003Y-115062555D01*
X121233583Y-115084239D01*
X121238758Y-115084429D01*
X121238760Y-115084429D01*
X121451659Y-115092236D01*
X121451663Y-115092236D01*
X121456823Y-115092425D01*
X121461943Y-115091769D01*
X121461945Y-115091769D01*
X121673274Y-115064697D01*
X121673275Y-115064697D01*
X121678402Y-115064040D01*
X121683352Y-115062555D01*
X121887415Y-115001333D01*
X121887420Y-115001331D01*
X121892370Y-114999846D01*
X122092980Y-114901568D01*
X122274846Y-114771845D01*
X122433082Y-114614161D01*
X122492580Y-114531361D01*
X122560421Y-114436949D01*
X122563439Y-114432749D01*
X122571768Y-114415898D01*
X122660122Y-114237125D01*
X122660123Y-114237123D01*
X122662416Y-114232483D01*
X122727356Y-114018741D01*
X122756515Y-113797262D01*
X122758142Y-113730672D01*
X122755404Y-113697367D01*
X128472237Y-113697367D01*
X128472534Y-113702520D01*
X128472534Y-113702523D01*
X128477997Y-113797262D01*
X128485096Y-113920387D01*
X128486233Y-113925433D01*
X128486234Y-113925439D01*
X128506105Y-114013611D01*
X128534208Y-114138311D01*
X128618252Y-114345288D01*
X128655671Y-114406350D01*
X128732277Y-114531360D01*
X128734973Y-114535760D01*
X128881236Y-114704610D01*
X129053112Y-114847304D01*
X129245986Y-114960010D01*
X129454678Y-115039702D01*
X129459746Y-115040733D01*
X129459749Y-115040734D01*
X129567003Y-115062555D01*
X129673583Y-115084239D01*
X129678758Y-115084429D01*
X129678760Y-115084429D01*
X129891659Y-115092236D01*
X129891663Y-115092236D01*
X129896823Y-115092425D01*
X129901943Y-115091769D01*
X129901945Y-115091769D01*
X130113274Y-115064697D01*
X130113275Y-115064697D01*
X130118402Y-115064040D01*
X130123352Y-115062555D01*
X130327415Y-115001333D01*
X130327420Y-115001331D01*
X130332370Y-114999846D01*
X130532980Y-114901568D01*
X130714846Y-114771845D01*
X130873082Y-114614161D01*
X130932580Y-114531361D01*
X131003439Y-114432749D01*
X131004762Y-114433700D01*
X131051631Y-114390529D01*
X131121566Y-114378297D01*
X131187012Y-114405816D01*
X131214861Y-114437666D01*
X131274973Y-114535760D01*
X131421236Y-114704610D01*
X131593112Y-114847304D01*
X131785986Y-114960010D01*
X131994678Y-115039702D01*
X131999746Y-115040733D01*
X131999749Y-115040734D01*
X132107003Y-115062555D01*
X132213583Y-115084239D01*
X132218758Y-115084429D01*
X132218760Y-115084429D01*
X132431659Y-115092236D01*
X132431663Y-115092236D01*
X132436823Y-115092425D01*
X132441943Y-115091769D01*
X132441945Y-115091769D01*
X132653274Y-115064697D01*
X132653275Y-115064697D01*
X132658402Y-115064040D01*
X132663352Y-115062555D01*
X132867415Y-115001333D01*
X132867420Y-115001331D01*
X132872370Y-114999846D01*
X133072980Y-114901568D01*
X133254846Y-114771845D01*
X133413082Y-114614161D01*
X133472580Y-114531361D01*
X133543439Y-114432749D01*
X133544762Y-114433700D01*
X133591631Y-114390529D01*
X133661566Y-114378297D01*
X133727012Y-114405816D01*
X133754861Y-114437666D01*
X133814973Y-114535760D01*
X133961236Y-114704610D01*
X134133112Y-114847304D01*
X134325986Y-114960010D01*
X134534678Y-115039702D01*
X134539746Y-115040733D01*
X134539749Y-115040734D01*
X134647003Y-115062555D01*
X134753583Y-115084239D01*
X134758758Y-115084429D01*
X134758760Y-115084429D01*
X134971659Y-115092236D01*
X134971663Y-115092236D01*
X134976823Y-115092425D01*
X134981943Y-115091769D01*
X134981945Y-115091769D01*
X135193274Y-115064697D01*
X135193275Y-115064697D01*
X135198402Y-115064040D01*
X135203352Y-115062555D01*
X135407415Y-115001333D01*
X135407420Y-115001331D01*
X135412370Y-114999846D01*
X135612980Y-114901568D01*
X135794846Y-114771845D01*
X135953082Y-114614161D01*
X136012580Y-114531361D01*
X136083439Y-114432749D01*
X136084762Y-114433700D01*
X136131631Y-114390529D01*
X136201566Y-114378297D01*
X136267012Y-114405816D01*
X136294861Y-114437666D01*
X136354973Y-114535760D01*
X136501236Y-114704610D01*
X136673112Y-114847304D01*
X136865986Y-114960010D01*
X137074678Y-115039702D01*
X137079746Y-115040733D01*
X137079749Y-115040734D01*
X137187003Y-115062555D01*
X137293583Y-115084239D01*
X137298758Y-115084429D01*
X137298760Y-115084429D01*
X137511659Y-115092236D01*
X137511663Y-115092236D01*
X137516823Y-115092425D01*
X137521943Y-115091769D01*
X137521945Y-115091769D01*
X137733274Y-115064697D01*
X137733275Y-115064697D01*
X137738402Y-115064040D01*
X137743352Y-115062555D01*
X137947415Y-115001333D01*
X137947420Y-115001331D01*
X137952370Y-114999846D01*
X138152980Y-114901568D01*
X138334846Y-114771845D01*
X138493082Y-114614161D01*
X138552580Y-114531361D01*
X138623439Y-114432749D01*
X138624762Y-114433700D01*
X138671631Y-114390529D01*
X138741566Y-114378297D01*
X138807012Y-114405816D01*
X138834861Y-114437666D01*
X138894973Y-114535760D01*
X139041236Y-114704610D01*
X139213112Y-114847304D01*
X139405986Y-114960010D01*
X139614678Y-115039702D01*
X139619746Y-115040733D01*
X139619749Y-115040734D01*
X139727003Y-115062555D01*
X139833583Y-115084239D01*
X139838758Y-115084429D01*
X139838760Y-115084429D01*
X140051659Y-115092236D01*
X140051663Y-115092236D01*
X140056823Y-115092425D01*
X140061943Y-115091769D01*
X140061945Y-115091769D01*
X140273274Y-115064697D01*
X140273275Y-115064697D01*
X140278402Y-115064040D01*
X140283352Y-115062555D01*
X140487415Y-115001333D01*
X140487420Y-115001331D01*
X140492370Y-114999846D01*
X140692980Y-114901568D01*
X140874846Y-114771845D01*
X141033082Y-114614161D01*
X141092580Y-114531361D01*
X141163439Y-114432749D01*
X141164762Y-114433700D01*
X141211631Y-114390529D01*
X141281566Y-114378297D01*
X141347012Y-114405816D01*
X141374861Y-114437666D01*
X141434973Y-114535760D01*
X141581236Y-114704610D01*
X141753112Y-114847304D01*
X141945986Y-114960010D01*
X142154678Y-115039702D01*
X142159746Y-115040733D01*
X142159749Y-115040734D01*
X142267003Y-115062555D01*
X142373583Y-115084239D01*
X142378758Y-115084429D01*
X142378760Y-115084429D01*
X142591659Y-115092236D01*
X142591663Y-115092236D01*
X142596823Y-115092425D01*
X142601943Y-115091769D01*
X142601945Y-115091769D01*
X142813274Y-115064697D01*
X142813275Y-115064697D01*
X142818402Y-115064040D01*
X142823352Y-115062555D01*
X143027415Y-115001333D01*
X143027420Y-115001331D01*
X143032370Y-114999846D01*
X143232980Y-114901568D01*
X143414846Y-114771845D01*
X143573082Y-114614161D01*
X143632580Y-114531361D01*
X143703439Y-114432749D01*
X143704762Y-114433700D01*
X143751631Y-114390529D01*
X143821566Y-114378297D01*
X143887012Y-114405816D01*
X143914861Y-114437666D01*
X143974973Y-114535760D01*
X144121236Y-114704610D01*
X144293112Y-114847304D01*
X144485986Y-114960010D01*
X144694678Y-115039702D01*
X144699746Y-115040733D01*
X144699749Y-115040734D01*
X144807003Y-115062555D01*
X144913583Y-115084239D01*
X144918758Y-115084429D01*
X144918760Y-115084429D01*
X145131659Y-115092236D01*
X145131663Y-115092236D01*
X145136823Y-115092425D01*
X145141943Y-115091769D01*
X145141945Y-115091769D01*
X145353274Y-115064697D01*
X145353275Y-115064697D01*
X145358402Y-115064040D01*
X145363352Y-115062555D01*
X145567415Y-115001333D01*
X145567420Y-115001331D01*
X145572370Y-114999846D01*
X145772980Y-114901568D01*
X145954846Y-114771845D01*
X146063077Y-114663991D01*
X146125448Y-114630076D01*
X146196254Y-114635264D01*
X146253016Y-114677910D01*
X146269998Y-114709013D01*
X146292187Y-114768201D01*
X146314371Y-114827377D01*
X146401725Y-114943933D01*
X146518281Y-115031287D01*
X146654670Y-115082417D01*
X146716852Y-115089172D01*
X148513120Y-115089172D01*
X148575302Y-115082417D01*
X148711691Y-115031287D01*
X148828247Y-114943933D01*
X148915601Y-114827377D01*
X148966731Y-114690988D01*
X148973486Y-114628806D01*
X148973486Y-113832703D01*
X153090743Y-113832703D01*
X153128268Y-114117734D01*
X153129401Y-114121874D01*
X153129401Y-114121876D01*
X153135326Y-114143534D01*
X153204129Y-114395036D01*
X153205813Y-114398984D01*
X153310236Y-114643798D01*
X153316923Y-114659476D01*
X153464561Y-114906161D01*
X153644313Y-115130528D01*
X153661397Y-115146740D01*
X153822201Y-115299337D01*
X153852851Y-115328423D01*
X154086317Y-115496186D01*
X154090112Y-115498195D01*
X154090113Y-115498196D01*
X154111869Y-115509715D01*
X154340392Y-115630712D01*
X154364699Y-115639607D01*
X154495849Y-115687601D01*
X154610373Y-115729511D01*
X154891264Y-115790755D01*
X154919841Y-115793004D01*
X155114282Y-115808307D01*
X155114291Y-115808307D01*
X155116739Y-115808500D01*
X155272271Y-115808500D01*
X155274407Y-115808354D01*
X155274418Y-115808354D01*
X155482548Y-115794165D01*
X155482554Y-115794164D01*
X155486825Y-115793873D01*
X155491020Y-115793004D01*
X155491022Y-115793004D01*
X155627584Y-115764723D01*
X155768342Y-115735574D01*
X156039343Y-115639607D01*
X156294812Y-115507750D01*
X156298313Y-115505289D01*
X156298317Y-115505287D01*
X156412417Y-115425096D01*
X156530023Y-115342441D01*
X156740622Y-115146740D01*
X156922713Y-114924268D01*
X157072927Y-114679142D01*
X157094466Y-114630076D01*
X157186757Y-114419830D01*
X157188483Y-114415898D01*
X157267244Y-114139406D01*
X157307751Y-113854784D01*
X157307845Y-113836951D01*
X157309235Y-113571583D01*
X157309235Y-113571576D01*
X157309257Y-113567297D01*
X157271732Y-113282266D01*
X157265635Y-113259977D01*
X157211487Y-113062047D01*
X157195871Y-113004964D01*
X157152503Y-112903289D01*
X157084763Y-112744476D01*
X157084761Y-112744472D01*
X157083077Y-112740524D01*
X156935439Y-112493839D01*
X156755687Y-112269472D01*
X156547149Y-112071577D01*
X156313683Y-111903814D01*
X156291843Y-111892250D01*
X156187869Y-111837199D01*
X156059608Y-111769288D01*
X155789627Y-111670489D01*
X155508736Y-111609245D01*
X155477685Y-111606801D01*
X155285718Y-111591693D01*
X155285709Y-111591693D01*
X155283261Y-111591500D01*
X155127729Y-111591500D01*
X155125593Y-111591646D01*
X155125582Y-111591646D01*
X154917452Y-111605835D01*
X154917446Y-111605836D01*
X154913175Y-111606127D01*
X154908980Y-111606996D01*
X154908978Y-111606996D01*
X154772416Y-111635277D01*
X154631658Y-111664426D01*
X154360657Y-111760393D01*
X154356848Y-111762359D01*
X154109788Y-111889876D01*
X154105188Y-111892250D01*
X154101687Y-111894711D01*
X154101683Y-111894713D01*
X154011992Y-111957749D01*
X153869977Y-112057559D01*
X153854892Y-112071577D01*
X153734449Y-112183500D01*
X153659378Y-112253260D01*
X153477287Y-112475732D01*
X153327073Y-112720858D01*
X153325347Y-112724791D01*
X153325346Y-112724792D01*
X153246991Y-112903289D01*
X153211517Y-112984102D01*
X153210342Y-112988229D01*
X153210341Y-112988230D01*
X153183583Y-113082164D01*
X153132756Y-113260594D01*
X153102917Y-113470260D01*
X153101477Y-113480379D01*
X153092249Y-113545216D01*
X153092227Y-113549505D01*
X153092226Y-113549512D01*
X153090911Y-113800580D01*
X153090743Y-113832703D01*
X148973486Y-113832703D01*
X148973486Y-112832538D01*
X148966731Y-112770356D01*
X148915601Y-112633967D01*
X148828247Y-112517411D01*
X148711691Y-112430057D01*
X148575302Y-112378927D01*
X148513120Y-112372172D01*
X146716852Y-112372172D01*
X146654670Y-112378927D01*
X146518281Y-112430057D01*
X146401725Y-112517411D01*
X146314371Y-112633967D01*
X146311219Y-112642375D01*
X146269905Y-112752579D01*
X146227263Y-112809343D01*
X146160702Y-112834043D01*
X146091353Y-112818835D01*
X146058729Y-112793148D01*
X146008137Y-112737547D01*
X146008128Y-112737538D01*
X146004656Y-112733723D01*
X146000605Y-112730524D01*
X146000601Y-112730520D01*
X145833400Y-112598472D01*
X145833396Y-112598470D01*
X145829345Y-112595270D01*
X145633775Y-112487310D01*
X145628906Y-112485586D01*
X145628902Y-112485584D01*
X145428073Y-112414467D01*
X145428069Y-112414466D01*
X145423198Y-112412741D01*
X145418105Y-112411834D01*
X145418102Y-112411833D01*
X145208359Y-112374472D01*
X145208353Y-112374471D01*
X145203270Y-112373566D01*
X145129438Y-112372664D01*
X144985067Y-112370900D01*
X144985065Y-112370900D01*
X144979897Y-112370837D01*
X144759077Y-112404627D01*
X144546742Y-112474029D01*
X144348593Y-112577179D01*
X144344460Y-112580282D01*
X144344457Y-112580284D01*
X144174086Y-112708202D01*
X144169951Y-112711307D01*
X144142031Y-112740524D01*
X144058715Y-112827709D01*
X144015615Y-112872810D01*
X143908187Y-113030293D01*
X143853279Y-113075293D01*
X143782754Y-113083464D01*
X143719007Y-113052210D01*
X143698310Y-113027726D01*
X143617808Y-112903289D01*
X143617806Y-112903286D01*
X143615000Y-112898949D01*
X143464656Y-112733723D01*
X143460605Y-112730524D01*
X143460601Y-112730520D01*
X143293400Y-112598472D01*
X143293396Y-112598470D01*
X143289345Y-112595270D01*
X143093775Y-112487310D01*
X143088906Y-112485586D01*
X143088902Y-112485584D01*
X142888073Y-112414467D01*
X142888069Y-112414466D01*
X142883198Y-112412741D01*
X142878105Y-112411834D01*
X142878102Y-112411833D01*
X142668359Y-112374472D01*
X142668353Y-112374471D01*
X142663270Y-112373566D01*
X142589438Y-112372664D01*
X142445067Y-112370900D01*
X142445065Y-112370900D01*
X142439897Y-112370837D01*
X142219077Y-112404627D01*
X142006742Y-112474029D01*
X141808593Y-112577179D01*
X141804460Y-112580282D01*
X141804457Y-112580284D01*
X141634086Y-112708202D01*
X141629951Y-112711307D01*
X141602031Y-112740524D01*
X141518715Y-112827709D01*
X141475615Y-112872810D01*
X141368187Y-113030293D01*
X141313279Y-113075293D01*
X141242754Y-113083464D01*
X141179007Y-113052210D01*
X141158310Y-113027726D01*
X141077808Y-112903289D01*
X141077806Y-112903286D01*
X141075000Y-112898949D01*
X140924656Y-112733723D01*
X140920605Y-112730524D01*
X140920601Y-112730520D01*
X140753400Y-112598472D01*
X140753396Y-112598470D01*
X140749345Y-112595270D01*
X140553775Y-112487310D01*
X140548906Y-112485586D01*
X140548902Y-112485584D01*
X140348073Y-112414467D01*
X140348069Y-112414466D01*
X140343198Y-112412741D01*
X140338105Y-112411834D01*
X140338102Y-112411833D01*
X140128359Y-112374472D01*
X140128353Y-112374471D01*
X140123270Y-112373566D01*
X140049438Y-112372664D01*
X139905067Y-112370900D01*
X139905065Y-112370900D01*
X139899897Y-112370837D01*
X139679077Y-112404627D01*
X139466742Y-112474029D01*
X139268593Y-112577179D01*
X139264460Y-112580282D01*
X139264457Y-112580284D01*
X139094086Y-112708202D01*
X139089951Y-112711307D01*
X139062031Y-112740524D01*
X138978715Y-112827709D01*
X138935615Y-112872810D01*
X138828187Y-113030293D01*
X138773279Y-113075293D01*
X138702754Y-113083464D01*
X138639007Y-113052210D01*
X138618310Y-113027726D01*
X138537808Y-112903289D01*
X138537806Y-112903286D01*
X138535000Y-112898949D01*
X138384656Y-112733723D01*
X138380605Y-112730524D01*
X138380601Y-112730520D01*
X138213400Y-112598472D01*
X138213396Y-112598470D01*
X138209345Y-112595270D01*
X138013775Y-112487310D01*
X138008906Y-112485586D01*
X138008902Y-112485584D01*
X137808073Y-112414467D01*
X137808069Y-112414466D01*
X137803198Y-112412741D01*
X137798105Y-112411834D01*
X137798102Y-112411833D01*
X137588359Y-112374472D01*
X137588353Y-112374471D01*
X137583270Y-112373566D01*
X137509438Y-112372664D01*
X137365067Y-112370900D01*
X137365065Y-112370900D01*
X137359897Y-112370837D01*
X137139077Y-112404627D01*
X136926742Y-112474029D01*
X136728593Y-112577179D01*
X136724460Y-112580282D01*
X136724457Y-112580284D01*
X136554086Y-112708202D01*
X136549951Y-112711307D01*
X136522031Y-112740524D01*
X136438715Y-112827709D01*
X136395615Y-112872810D01*
X136288187Y-113030293D01*
X136233279Y-113075293D01*
X136162754Y-113083464D01*
X136099007Y-113052210D01*
X136078310Y-113027726D01*
X135997808Y-112903289D01*
X135997806Y-112903286D01*
X135995000Y-112898949D01*
X135844656Y-112733723D01*
X135840605Y-112730524D01*
X135840601Y-112730520D01*
X135673400Y-112598472D01*
X135673396Y-112598470D01*
X135669345Y-112595270D01*
X135473775Y-112487310D01*
X135468906Y-112485586D01*
X135468902Y-112485584D01*
X135268073Y-112414467D01*
X135268069Y-112414466D01*
X135263198Y-112412741D01*
X135258105Y-112411834D01*
X135258102Y-112411833D01*
X135048359Y-112374472D01*
X135048353Y-112374471D01*
X135043270Y-112373566D01*
X134969438Y-112372664D01*
X134825067Y-112370900D01*
X134825065Y-112370900D01*
X134819897Y-112370837D01*
X134599077Y-112404627D01*
X134386742Y-112474029D01*
X134188593Y-112577179D01*
X134184460Y-112580282D01*
X134184457Y-112580284D01*
X134014086Y-112708202D01*
X134009951Y-112711307D01*
X133982031Y-112740524D01*
X133898715Y-112827709D01*
X133855615Y-112872810D01*
X133748187Y-113030293D01*
X133693279Y-113075293D01*
X133622754Y-113083464D01*
X133559007Y-113052210D01*
X133538310Y-113027726D01*
X133457808Y-112903289D01*
X133457806Y-112903286D01*
X133455000Y-112898949D01*
X133304656Y-112733723D01*
X133300605Y-112730524D01*
X133300601Y-112730520D01*
X133133400Y-112598472D01*
X133133396Y-112598470D01*
X133129345Y-112595270D01*
X132933775Y-112487310D01*
X132928906Y-112485586D01*
X132928902Y-112485584D01*
X132728073Y-112414467D01*
X132728069Y-112414466D01*
X132723198Y-112412741D01*
X132718105Y-112411834D01*
X132718102Y-112411833D01*
X132508359Y-112374472D01*
X132508353Y-112374471D01*
X132503270Y-112373566D01*
X132429438Y-112372664D01*
X132285067Y-112370900D01*
X132285065Y-112370900D01*
X132279897Y-112370837D01*
X132059077Y-112404627D01*
X131846742Y-112474029D01*
X131648593Y-112577179D01*
X131644460Y-112580282D01*
X131644457Y-112580284D01*
X131474086Y-112708202D01*
X131469951Y-112711307D01*
X131442031Y-112740524D01*
X131358715Y-112827709D01*
X131315615Y-112872810D01*
X131208187Y-113030293D01*
X131153279Y-113075293D01*
X131082754Y-113083464D01*
X131019007Y-113052210D01*
X130998310Y-113027726D01*
X130917808Y-112903289D01*
X130917806Y-112903286D01*
X130915000Y-112898949D01*
X130764656Y-112733723D01*
X130760605Y-112730524D01*
X130760601Y-112730520D01*
X130593400Y-112598472D01*
X130593396Y-112598470D01*
X130589345Y-112595270D01*
X130393775Y-112487310D01*
X130388906Y-112485586D01*
X130388902Y-112485584D01*
X130188073Y-112414467D01*
X130188069Y-112414466D01*
X130183198Y-112412741D01*
X130178105Y-112411834D01*
X130178102Y-112411833D01*
X129968359Y-112374472D01*
X129968353Y-112374471D01*
X129963270Y-112373566D01*
X129889438Y-112372664D01*
X129745067Y-112370900D01*
X129745065Y-112370900D01*
X129739897Y-112370837D01*
X129519077Y-112404627D01*
X129306742Y-112474029D01*
X129108593Y-112577179D01*
X129104460Y-112580282D01*
X129104457Y-112580284D01*
X128934086Y-112708202D01*
X128929951Y-112711307D01*
X128902031Y-112740524D01*
X128818715Y-112827709D01*
X128775615Y-112872810D01*
X128649729Y-113057352D01*
X128555674Y-113259977D01*
X128495975Y-113475242D01*
X128472237Y-113697367D01*
X122755404Y-113697367D01*
X122739838Y-113508033D01*
X122685417Y-113291374D01*
X122596340Y-113086512D01*
X122541030Y-113001016D01*
X122477808Y-112903289D01*
X122477806Y-112903286D01*
X122475000Y-112898949D01*
X122324656Y-112733723D01*
X122320605Y-112730524D01*
X122320601Y-112730520D01*
X122153400Y-112598472D01*
X122153396Y-112598470D01*
X122149345Y-112595270D01*
X121953775Y-112487310D01*
X121948906Y-112485586D01*
X121948902Y-112485584D01*
X121748073Y-112414467D01*
X121748069Y-112414466D01*
X121743198Y-112412741D01*
X121738105Y-112411834D01*
X121738102Y-112411833D01*
X121528359Y-112374472D01*
X121528353Y-112374471D01*
X121523270Y-112373566D01*
X121449438Y-112372664D01*
X121305067Y-112370900D01*
X121305065Y-112370900D01*
X121299897Y-112370837D01*
X121079077Y-112404627D01*
X120866742Y-112474029D01*
X120668593Y-112577179D01*
X120664460Y-112580282D01*
X120664457Y-112580284D01*
X120494086Y-112708202D01*
X120489951Y-112711307D01*
X120462031Y-112740524D01*
X120378715Y-112827709D01*
X120335615Y-112872810D01*
X120228187Y-113030293D01*
X120173279Y-113075293D01*
X120102754Y-113083464D01*
X120039007Y-113052210D01*
X120018310Y-113027726D01*
X119937808Y-112903289D01*
X119937806Y-112903286D01*
X119935000Y-112898949D01*
X119784656Y-112733723D01*
X119780605Y-112730524D01*
X119780601Y-112730520D01*
X119613400Y-112598472D01*
X119613396Y-112598470D01*
X119609345Y-112595270D01*
X119413775Y-112487310D01*
X119408906Y-112485586D01*
X119408902Y-112485584D01*
X119208073Y-112414467D01*
X119208069Y-112414466D01*
X119203198Y-112412741D01*
X119198105Y-112411834D01*
X119198102Y-112411833D01*
X118988359Y-112374472D01*
X118988353Y-112374471D01*
X118983270Y-112373566D01*
X118909438Y-112372664D01*
X118765067Y-112370900D01*
X118765065Y-112370900D01*
X118759897Y-112370837D01*
X118539077Y-112404627D01*
X118326742Y-112474029D01*
X118128593Y-112577179D01*
X118124460Y-112580282D01*
X118124457Y-112580284D01*
X117954086Y-112708202D01*
X117949951Y-112711307D01*
X117922031Y-112740524D01*
X117838715Y-112827709D01*
X117795615Y-112872810D01*
X117688187Y-113030293D01*
X117633279Y-113075293D01*
X117562754Y-113083464D01*
X117499007Y-113052210D01*
X117478310Y-113027726D01*
X117397808Y-112903289D01*
X117397806Y-112903286D01*
X117395000Y-112898949D01*
X117244656Y-112733723D01*
X117240605Y-112730524D01*
X117240601Y-112730520D01*
X117073400Y-112598472D01*
X117073396Y-112598470D01*
X117069345Y-112595270D01*
X116873775Y-112487310D01*
X116868906Y-112485586D01*
X116868902Y-112485584D01*
X116668073Y-112414467D01*
X116668069Y-112414466D01*
X116663198Y-112412741D01*
X116658105Y-112411834D01*
X116658102Y-112411833D01*
X116448359Y-112374472D01*
X116448353Y-112374471D01*
X116443270Y-112373566D01*
X116369438Y-112372664D01*
X116225067Y-112370900D01*
X116225065Y-112370900D01*
X116219897Y-112370837D01*
X115999077Y-112404627D01*
X115786742Y-112474029D01*
X115588593Y-112577179D01*
X115584460Y-112580282D01*
X115584457Y-112580284D01*
X115414086Y-112708202D01*
X115409951Y-112711307D01*
X115382031Y-112740524D01*
X115298715Y-112827709D01*
X115255615Y-112872810D01*
X115148187Y-113030293D01*
X115093279Y-113075293D01*
X115022754Y-113083464D01*
X114959007Y-113052210D01*
X114938310Y-113027726D01*
X114857808Y-112903289D01*
X114857806Y-112903286D01*
X114855000Y-112898949D01*
X114704656Y-112733723D01*
X114700605Y-112730524D01*
X114700601Y-112730520D01*
X114533400Y-112598472D01*
X114533396Y-112598470D01*
X114529345Y-112595270D01*
X114333775Y-112487310D01*
X114328906Y-112485586D01*
X114328902Y-112485584D01*
X114128073Y-112414467D01*
X114128069Y-112414466D01*
X114123198Y-112412741D01*
X114118105Y-112411834D01*
X114118102Y-112411833D01*
X113908359Y-112374472D01*
X113908353Y-112374471D01*
X113903270Y-112373566D01*
X113829438Y-112372664D01*
X113685067Y-112370900D01*
X113685065Y-112370900D01*
X113679897Y-112370837D01*
X113459077Y-112404627D01*
X113246742Y-112474029D01*
X113048593Y-112577179D01*
X113044460Y-112580282D01*
X113044457Y-112580284D01*
X112874086Y-112708202D01*
X112869951Y-112711307D01*
X112842031Y-112740524D01*
X112758715Y-112827709D01*
X112715615Y-112872810D01*
X112608187Y-113030293D01*
X112553279Y-113075293D01*
X112482754Y-113083464D01*
X112419007Y-113052210D01*
X112398310Y-113027726D01*
X112317808Y-112903289D01*
X112317806Y-112903286D01*
X112315000Y-112898949D01*
X112164656Y-112733723D01*
X112160605Y-112730524D01*
X112160601Y-112730520D01*
X111993400Y-112598472D01*
X111993396Y-112598470D01*
X111989345Y-112595270D01*
X111793775Y-112487310D01*
X111788906Y-112485586D01*
X111788902Y-112485584D01*
X111588073Y-112414467D01*
X111588069Y-112414466D01*
X111583198Y-112412741D01*
X111578105Y-112411834D01*
X111578102Y-112411833D01*
X111368359Y-112374472D01*
X111368353Y-112374471D01*
X111363270Y-112373566D01*
X111289438Y-112372664D01*
X111145067Y-112370900D01*
X111145065Y-112370900D01*
X111139897Y-112370837D01*
X110919077Y-112404627D01*
X110706742Y-112474029D01*
X110508593Y-112577179D01*
X110504460Y-112580282D01*
X110504457Y-112580284D01*
X110334086Y-112708202D01*
X110329951Y-112711307D01*
X110302031Y-112740524D01*
X110218715Y-112827709D01*
X110175615Y-112872810D01*
X110068187Y-113030293D01*
X110013279Y-113075293D01*
X109942754Y-113083464D01*
X109879007Y-113052210D01*
X109858310Y-113027726D01*
X109777808Y-112903289D01*
X109777806Y-112903286D01*
X109775000Y-112898949D01*
X109624656Y-112733723D01*
X109620605Y-112730524D01*
X109620601Y-112730520D01*
X109453400Y-112598472D01*
X109453396Y-112598470D01*
X109449345Y-112595270D01*
X109253775Y-112487310D01*
X109248906Y-112485586D01*
X109248902Y-112485584D01*
X109048073Y-112414467D01*
X109048069Y-112414466D01*
X109043198Y-112412741D01*
X109038105Y-112411834D01*
X109038102Y-112411833D01*
X108828359Y-112374472D01*
X108828353Y-112374471D01*
X108823270Y-112373566D01*
X108749438Y-112372664D01*
X108605067Y-112370900D01*
X108605065Y-112370900D01*
X108599897Y-112370837D01*
X108379077Y-112404627D01*
X108166742Y-112474029D01*
X107968593Y-112577179D01*
X107964460Y-112580282D01*
X107964457Y-112580284D01*
X107794086Y-112708202D01*
X107789951Y-112711307D01*
X107762031Y-112740524D01*
X107678715Y-112827709D01*
X107635615Y-112872810D01*
X107528187Y-113030293D01*
X107473279Y-113075293D01*
X107402754Y-113083464D01*
X107339007Y-113052210D01*
X107318310Y-113027726D01*
X107237808Y-112903289D01*
X107237806Y-112903286D01*
X107235000Y-112898949D01*
X107084656Y-112733723D01*
X107080605Y-112730524D01*
X107080601Y-112730520D01*
X106913400Y-112598472D01*
X106913396Y-112598470D01*
X106909345Y-112595270D01*
X106713775Y-112487310D01*
X106708906Y-112485586D01*
X106708902Y-112485584D01*
X106508073Y-112414467D01*
X106508069Y-112414466D01*
X106503198Y-112412741D01*
X106498105Y-112411834D01*
X106498102Y-112411833D01*
X106288359Y-112374472D01*
X106288353Y-112374471D01*
X106283270Y-112373566D01*
X106209438Y-112372664D01*
X106065067Y-112370900D01*
X106065065Y-112370900D01*
X106059897Y-112370837D01*
X105839077Y-112404627D01*
X105626742Y-112474029D01*
X105428593Y-112577179D01*
X105424460Y-112580282D01*
X105424457Y-112580284D01*
X105254086Y-112708202D01*
X105249951Y-112711307D01*
X105193523Y-112770356D01*
X105169269Y-112795736D01*
X105107745Y-112831166D01*
X105036832Y-112827709D01*
X104979046Y-112786463D01*
X104960193Y-112752915D01*
X104918753Y-112642375D01*
X104915601Y-112633967D01*
X104828247Y-112517411D01*
X104711691Y-112430057D01*
X104575302Y-112378927D01*
X104513120Y-112372172D01*
X102716852Y-112372172D01*
X102654670Y-112378927D01*
X102518281Y-112430057D01*
X102401725Y-112517411D01*
X102314371Y-112633967D01*
X102263241Y-112770356D01*
X102256486Y-112832538D01*
X102256486Y-114628806D01*
X99095023Y-114628806D01*
X99186757Y-114419830D01*
X99188483Y-114415898D01*
X99267244Y-114139406D01*
X99307751Y-113854784D01*
X99307845Y-113836951D01*
X99309235Y-113571583D01*
X99309235Y-113571576D01*
X99309257Y-113567297D01*
X99271732Y-113282266D01*
X99265635Y-113259977D01*
X99211487Y-113062047D01*
X99195871Y-113004964D01*
X99152503Y-112903289D01*
X99084763Y-112744476D01*
X99084761Y-112744472D01*
X99083077Y-112740524D01*
X98935439Y-112493839D01*
X98755687Y-112269472D01*
X98547149Y-112071577D01*
X98313683Y-111903814D01*
X98291843Y-111892250D01*
X98187869Y-111837199D01*
X98059608Y-111769288D01*
X97789627Y-111670489D01*
X97508736Y-111609245D01*
X97477685Y-111606801D01*
X97285718Y-111591693D01*
X97285709Y-111591693D01*
X97283261Y-111591500D01*
X97127729Y-111591500D01*
X97125593Y-111591646D01*
X97125582Y-111591646D01*
X96917452Y-111605835D01*
X96917446Y-111605836D01*
X96913175Y-111606127D01*
X96908980Y-111606996D01*
X96908978Y-111606996D01*
X96772416Y-111635277D01*
X96631658Y-111664426D01*
X96360657Y-111760393D01*
X96356848Y-111762359D01*
X96109788Y-111889876D01*
X96105188Y-111892250D01*
X96101687Y-111894711D01*
X96101683Y-111894713D01*
X96011992Y-111957749D01*
X95869977Y-112057559D01*
X95854892Y-112071577D01*
X95734449Y-112183500D01*
X95659378Y-112253260D01*
X95477287Y-112475732D01*
X95327073Y-112720858D01*
X95325347Y-112724791D01*
X95325346Y-112724792D01*
X95246991Y-112903289D01*
X95211517Y-112984102D01*
X95210342Y-112988229D01*
X95210341Y-112988230D01*
X95183583Y-113082164D01*
X95132756Y-113260594D01*
X95102917Y-113470260D01*
X95101477Y-113480379D01*
X95092249Y-113545216D01*
X95092227Y-113549505D01*
X95092226Y-113549512D01*
X95090911Y-113800580D01*
X95090743Y-113832703D01*
X93903500Y-113832703D01*
X93903500Y-100497367D01*
X95752237Y-100497367D01*
X95752534Y-100502520D01*
X95752534Y-100502523D01*
X95759864Y-100629640D01*
X95765096Y-100720387D01*
X95766233Y-100725433D01*
X95766234Y-100725439D01*
X95786105Y-100813611D01*
X95814208Y-100938311D01*
X95860303Y-101051829D01*
X95892259Y-101130528D01*
X95898252Y-101145288D01*
X96014973Y-101335760D01*
X96161236Y-101504610D01*
X96165216Y-101507914D01*
X96169967Y-101511859D01*
X96209602Y-101570762D01*
X96211099Y-101641743D01*
X96173983Y-101702265D01*
X96133711Y-101726784D01*
X96089295Y-101743435D01*
X96018281Y-101770057D01*
X95901725Y-101857411D01*
X95814371Y-101973967D01*
X95763241Y-102110356D01*
X95756486Y-102172538D01*
X95756486Y-103968806D01*
X95763241Y-104030988D01*
X95814371Y-104167377D01*
X95901725Y-104283933D01*
X96018281Y-104371287D01*
X96154670Y-104422417D01*
X96216852Y-104429172D01*
X98013120Y-104429172D01*
X98075302Y-104422417D01*
X98211691Y-104371287D01*
X98328247Y-104283933D01*
X98415601Y-104167377D01*
X98466731Y-104030988D01*
X98473486Y-103968806D01*
X98473486Y-102172538D01*
X98466731Y-102110356D01*
X98415601Y-101973967D01*
X98328247Y-101857411D01*
X98211691Y-101770057D01*
X98163007Y-101751806D01*
X98093189Y-101725632D01*
X98036425Y-101682990D01*
X98011725Y-101616428D01*
X98026933Y-101547080D01*
X98048479Y-101518399D01*
X98066237Y-101500703D01*
X98153082Y-101414161D01*
X98212580Y-101331361D01*
X98280421Y-101236949D01*
X98283439Y-101232749D01*
X98289444Y-101220600D01*
X98380122Y-101037125D01*
X98380123Y-101037123D01*
X98382416Y-101032483D01*
X98382966Y-101030672D01*
X116151482Y-101030672D01*
X116152172Y-101037237D01*
X116169657Y-101203594D01*
X116171444Y-101220600D01*
X116230459Y-101402228D01*
X116233762Y-101407950D01*
X116233763Y-101407951D01*
X116250184Y-101436392D01*
X116325946Y-101567616D01*
X116330364Y-101572523D01*
X116330365Y-101572524D01*
X116409584Y-101660506D01*
X116453733Y-101709538D01*
X116532692Y-101766905D01*
X116592395Y-101810282D01*
X116608234Y-101821790D01*
X116614262Y-101824474D01*
X116614264Y-101824475D01*
X116776667Y-101896781D01*
X116782698Y-101899466D01*
X116876099Y-101919319D01*
X116963042Y-101937800D01*
X116963047Y-101937800D01*
X116969499Y-101939172D01*
X117160473Y-101939172D01*
X117166926Y-101937800D01*
X117166939Y-101937799D01*
X117326778Y-101903823D01*
X117397568Y-101909224D01*
X117442070Y-101937974D01*
X120095458Y-104591362D01*
X120954595Y-105450500D01*
X120988621Y-105512812D01*
X120991500Y-105539595D01*
X120991500Y-109871233D01*
X120990973Y-109882416D01*
X120989298Y-109889909D01*
X120989547Y-109897835D01*
X120989547Y-109897836D01*
X120991438Y-109957986D01*
X120991500Y-109961945D01*
X120991500Y-109989856D01*
X120991997Y-109993790D01*
X120991997Y-109993791D01*
X120992005Y-109993856D01*
X120992938Y-110005693D01*
X120994327Y-110049889D01*
X120999978Y-110069339D01*
X121003987Y-110088700D01*
X121006526Y-110108797D01*
X121009445Y-110116168D01*
X121009445Y-110116170D01*
X121022804Y-110149912D01*
X121026649Y-110161142D01*
X121038982Y-110203593D01*
X121043015Y-110210412D01*
X121043017Y-110210417D01*
X121049293Y-110221028D01*
X121057988Y-110238776D01*
X121065448Y-110257617D01*
X121070110Y-110264033D01*
X121070110Y-110264034D01*
X121091436Y-110293387D01*
X121097952Y-110303307D01*
X121114403Y-110331123D01*
X121120458Y-110341362D01*
X121134779Y-110355683D01*
X121147619Y-110370716D01*
X121159528Y-110387107D01*
X121165634Y-110392158D01*
X121193605Y-110415298D01*
X121202384Y-110423288D01*
X122471343Y-111692247D01*
X122478887Y-111700537D01*
X122483000Y-111707018D01*
X122488777Y-111712443D01*
X122532667Y-111753658D01*
X122535509Y-111756413D01*
X122555230Y-111776134D01*
X122558425Y-111778612D01*
X122567447Y-111786318D01*
X122599679Y-111816586D01*
X122606628Y-111820406D01*
X122617432Y-111826346D01*
X122633956Y-111837199D01*
X122649959Y-111849613D01*
X122690543Y-111867176D01*
X122701173Y-111872383D01*
X122739940Y-111893695D01*
X122747617Y-111895666D01*
X122747622Y-111895668D01*
X122759558Y-111898732D01*
X122778266Y-111905137D01*
X122796855Y-111913181D01*
X122804683Y-111914421D01*
X122804690Y-111914423D01*
X122840524Y-111920099D01*
X122852144Y-111922505D01*
X122887289Y-111931528D01*
X122894970Y-111933500D01*
X122915224Y-111933500D01*
X122934934Y-111935051D01*
X122954943Y-111938220D01*
X122962835Y-111937474D01*
X122998961Y-111934059D01*
X123010819Y-111933500D01*
X123294776Y-111933500D01*
X123362897Y-111953502D01*
X123368834Y-111957562D01*
X123420874Y-111995371D01*
X123506468Y-112057559D01*
X123518248Y-112066118D01*
X123524276Y-112068802D01*
X123524278Y-112068803D01*
X123686681Y-112141109D01*
X123692712Y-112143794D01*
X123786113Y-112163647D01*
X123873056Y-112182128D01*
X123873061Y-112182128D01*
X123879513Y-112183500D01*
X124070487Y-112183500D01*
X124076939Y-112182128D01*
X124076944Y-112182128D01*
X124163888Y-112163647D01*
X124257288Y-112143794D01*
X124263319Y-112141109D01*
X124425722Y-112068803D01*
X124425724Y-112068802D01*
X124431752Y-112066118D01*
X124443533Y-112057559D01*
X124487157Y-112025864D01*
X124586253Y-111953866D01*
X124600341Y-111938220D01*
X124709621Y-111816852D01*
X124709622Y-111816851D01*
X124714040Y-111811944D01*
X124799210Y-111664426D01*
X124806223Y-111652279D01*
X124806224Y-111652278D01*
X124809527Y-111646556D01*
X124868542Y-111464928D01*
X124888504Y-111275000D01*
X124868542Y-111085072D01*
X124809527Y-110903444D01*
X124714040Y-110738056D01*
X124593826Y-110604544D01*
X124590675Y-110601045D01*
X124590674Y-110601044D01*
X124586253Y-110596134D01*
X124431752Y-110483882D01*
X124425724Y-110481198D01*
X124425722Y-110481197D01*
X124263319Y-110408891D01*
X124263318Y-110408891D01*
X124257288Y-110406206D01*
X124163888Y-110386353D01*
X124076944Y-110367872D01*
X124076939Y-110367872D01*
X124070487Y-110366500D01*
X123879513Y-110366500D01*
X123879513Y-110365476D01*
X123815641Y-110353794D01*
X123763795Y-110305292D01*
X123746401Y-110236459D01*
X123768983Y-110169149D01*
X123798247Y-110139322D01*
X123851729Y-110100465D01*
X123979516Y-109958543D01*
X124029772Y-109871498D01*
X124081154Y-109822506D01*
X124138890Y-109808500D01*
X129941891Y-109808500D01*
X129953074Y-109809027D01*
X129960567Y-109810702D01*
X129968493Y-109810453D01*
X129968494Y-109810453D01*
X130028644Y-109808562D01*
X130032603Y-109808500D01*
X130060514Y-109808500D01*
X130064449Y-109808003D01*
X130064514Y-109807995D01*
X130076351Y-109807062D01*
X130108609Y-109806048D01*
X130112628Y-109805922D01*
X130120547Y-109805673D01*
X130140001Y-109800021D01*
X130159358Y-109796013D01*
X130171588Y-109794468D01*
X130171589Y-109794468D01*
X130179455Y-109793474D01*
X130186826Y-109790555D01*
X130186828Y-109790555D01*
X130220570Y-109777196D01*
X130231800Y-109773351D01*
X130266641Y-109763229D01*
X130266642Y-109763229D01*
X130274251Y-109761018D01*
X130281070Y-109756985D01*
X130281075Y-109756983D01*
X130291686Y-109750707D01*
X130309434Y-109742012D01*
X130328275Y-109734552D01*
X130364045Y-109708564D01*
X130373965Y-109702048D01*
X130405193Y-109683580D01*
X130405196Y-109683578D01*
X130412020Y-109679542D01*
X130426341Y-109665221D01*
X130441375Y-109652380D01*
X130451352Y-109645131D01*
X130457765Y-109640472D01*
X130485956Y-109606395D01*
X130493946Y-109597616D01*
X136457233Y-103634329D01*
X136465523Y-103626785D01*
X136472004Y-103622672D01*
X136518645Y-103573004D01*
X136521399Y-103570163D01*
X136541121Y-103550441D01*
X136543598Y-103547248D01*
X136551303Y-103538227D01*
X136576145Y-103511772D01*
X136581572Y-103505993D01*
X136585393Y-103499043D01*
X136591332Y-103488240D01*
X136602188Y-103471713D01*
X136609743Y-103461974D01*
X136609744Y-103461972D01*
X136614600Y-103455712D01*
X136632160Y-103415132D01*
X136637377Y-103404484D01*
X136654861Y-103372681D01*
X136654862Y-103372679D01*
X136658681Y-103365732D01*
X136663719Y-103346109D01*
X136670123Y-103327406D01*
X136675019Y-103316092D01*
X136675019Y-103316091D01*
X136678167Y-103308817D01*
X136679406Y-103300994D01*
X136679409Y-103300984D01*
X136685085Y-103265148D01*
X136687491Y-103253528D01*
X136696514Y-103218383D01*
X136696514Y-103218382D01*
X136698486Y-103210702D01*
X136698486Y-103190448D01*
X136700037Y-103170737D01*
X136701966Y-103158558D01*
X136703206Y-103150729D01*
X136699045Y-103106710D01*
X136698486Y-103094853D01*
X136698486Y-102933196D01*
X136718488Y-102865075D01*
X136730844Y-102848893D01*
X136804026Y-102767616D01*
X136899513Y-102602228D01*
X136908968Y-102573128D01*
X156674802Y-102573128D01*
X156696284Y-102662266D01*
X156700173Y-102673561D01*
X156782719Y-102855111D01*
X156788666Y-102865453D01*
X156904058Y-103028126D01*
X156911851Y-103037154D01*
X157055921Y-103175071D01*
X157065286Y-103182467D01*
X157232831Y-103290650D01*
X157243435Y-103296146D01*
X157428402Y-103370690D01*
X157439860Y-103374084D01*
X157637018Y-103412586D01*
X157645881Y-103413663D01*
X157648590Y-103413729D01*
X158077975Y-103413729D01*
X158093214Y-103409254D01*
X158094419Y-103407864D01*
X158096090Y-103400181D01*
X158096090Y-102577844D01*
X158091615Y-102562605D01*
X158090225Y-102561400D01*
X158082542Y-102559729D01*
X156689688Y-102559729D01*
X156676157Y-102563702D01*
X156674802Y-102573128D01*
X136908968Y-102573128D01*
X136958528Y-102420600D01*
X136978490Y-102230672D01*
X136966670Y-102118212D01*
X136959218Y-102047307D01*
X136959218Y-102047305D01*
X136958528Y-102040744D01*
X136957456Y-102037445D01*
X156670442Y-102037445D01*
X156671910Y-102047737D01*
X156685475Y-102051729D01*
X158077975Y-102051729D01*
X158093214Y-102047254D01*
X158094419Y-102045864D01*
X158096090Y-102038181D01*
X158096090Y-101215844D01*
X158091615Y-101200605D01*
X158090225Y-101199400D01*
X158082542Y-101197729D01*
X157700258Y-101197729D01*
X157694282Y-101198014D01*
X157545596Y-101212200D01*
X157533862Y-101214459D01*
X157342491Y-101270601D01*
X157331415Y-101275031D01*
X157154112Y-101366348D01*
X157144066Y-101372798D01*
X156987233Y-101495991D01*
X156978584Y-101504228D01*
X156847878Y-101654852D01*
X156840943Y-101664576D01*
X156741080Y-101837196D01*
X156736106Y-101848060D01*
X156670683Y-102036456D01*
X156670442Y-102037445D01*
X136957456Y-102037445D01*
X136899513Y-101859116D01*
X136886858Y-101837196D01*
X136844923Y-101764563D01*
X136804026Y-101693728D01*
X136794358Y-101682990D01*
X136680661Y-101556717D01*
X136680660Y-101556716D01*
X136676239Y-101551806D01*
X136550817Y-101460681D01*
X136527080Y-101443435D01*
X136527079Y-101443434D01*
X136521738Y-101439554D01*
X136515710Y-101436870D01*
X136515708Y-101436869D01*
X136353305Y-101364563D01*
X136353304Y-101364563D01*
X136347274Y-101361878D01*
X136267522Y-101344926D01*
X136205048Y-101311197D01*
X136170727Y-101249048D01*
X136175455Y-101178209D01*
X136217731Y-101121171D01*
X136236907Y-101109214D01*
X136293364Y-101080696D01*
X136337495Y-101058404D01*
X136337497Y-101058403D01*
X136342996Y-101055625D01*
X136474146Y-100953160D01*
X136493991Y-100937655D01*
X136498847Y-100933861D01*
X136628078Y-100784145D01*
X136661682Y-100724992D01*
X155395777Y-100724992D01*
X155396513Y-100731995D01*
X155396513Y-100731996D01*
X155412981Y-100888673D01*
X155414737Y-100905384D01*
X155473191Y-101077093D01*
X155500308Y-101121171D01*
X155561478Y-101220600D01*
X155568235Y-101231584D01*
X155573166Y-101236619D01*
X155573168Y-101236622D01*
X155674073Y-101339662D01*
X155695144Y-101361179D01*
X155847611Y-101459437D01*
X155854231Y-101461846D01*
X155854234Y-101461848D01*
X156011439Y-101519066D01*
X156018058Y-101521475D01*
X156158142Y-101539172D01*
X156254983Y-101539172D01*
X156389628Y-101524069D01*
X156403995Y-101519066D01*
X156554267Y-101466736D01*
X156554270Y-101466734D01*
X156560925Y-101464417D01*
X156568895Y-101459437D01*
X156708775Y-101372031D01*
X156714749Y-101368298D01*
X156772250Y-101311197D01*
X156838458Y-101245450D01*
X156838461Y-101245446D01*
X156843455Y-101240487D01*
X156860799Y-101213158D01*
X156919175Y-101121171D01*
X156940646Y-101087338D01*
X156958526Y-101037125D01*
X156999130Y-100923097D01*
X156999131Y-100923092D01*
X157001492Y-100916462D01*
X157002508Y-100907948D01*
X157022135Y-100743345D01*
X157022969Y-100736352D01*
X157012676Y-100638419D01*
X157004745Y-100562960D01*
X157004744Y-100562958D01*
X157004009Y-100555960D01*
X156945555Y-100384251D01*
X156858924Y-100243435D01*
X156854207Y-100235767D01*
X156854205Y-100235764D01*
X156850511Y-100229760D01*
X156845580Y-100224725D01*
X156845578Y-100224722D01*
X156728530Y-100105197D01*
X156728529Y-100105196D01*
X156723602Y-100100165D01*
X156571135Y-100001907D01*
X156564515Y-99999498D01*
X156564512Y-99999496D01*
X156407307Y-99942278D01*
X156407306Y-99942278D01*
X156400688Y-99939869D01*
X156260604Y-99922172D01*
X156163763Y-99922172D01*
X156029118Y-99937275D01*
X156022465Y-99939592D01*
X156022464Y-99939592D01*
X155864479Y-99994608D01*
X155864476Y-99994610D01*
X155857821Y-99996927D01*
X155851842Y-100000663D01*
X155843740Y-100005726D01*
X155703997Y-100093046D01*
X155699001Y-100098007D01*
X155699000Y-100098008D01*
X155580288Y-100215894D01*
X155580285Y-100215898D01*
X155575291Y-100220857D01*
X155571517Y-100226803D01*
X155571516Y-100226805D01*
X155543939Y-100270260D01*
X155478100Y-100374006D01*
X155472077Y-100390922D01*
X155419616Y-100538247D01*
X155419615Y-100538252D01*
X155417254Y-100544882D01*
X155416421Y-100551870D01*
X155416420Y-100551873D01*
X155413241Y-100578535D01*
X155395777Y-100724992D01*
X136661682Y-100724992D01*
X136725769Y-100612179D01*
X136788197Y-100424513D01*
X136812985Y-100228295D01*
X136813380Y-100200000D01*
X136794080Y-100003167D01*
X136775697Y-99942278D01*
X136738697Y-99819731D01*
X136736916Y-99813831D01*
X136644066Y-99639204D01*
X136543991Y-99516500D01*
X136522960Y-99490713D01*
X136522957Y-99490710D01*
X136519065Y-99485938D01*
X136512523Y-99480526D01*
X136371425Y-99363799D01*
X136371421Y-99363797D01*
X136366675Y-99359870D01*
X136192701Y-99265802D01*
X136003768Y-99207318D01*
X135997643Y-99206674D01*
X135997642Y-99206674D01*
X135813204Y-99187289D01*
X135813202Y-99187289D01*
X135807075Y-99186645D01*
X135724576Y-99194153D01*
X135616251Y-99204011D01*
X135616248Y-99204012D01*
X135610112Y-99204570D01*
X135604206Y-99206308D01*
X135604202Y-99206309D01*
X135499076Y-99237249D01*
X135420381Y-99260410D01*
X135414923Y-99263263D01*
X135414919Y-99263265D01*
X135394330Y-99274029D01*
X135245110Y-99352040D01*
X135191343Y-99395270D01*
X135095785Y-99472100D01*
X135095781Y-99472104D01*
X135090975Y-99475968D01*
X135087126Y-99480555D01*
X135024515Y-99513895D01*
X134999025Y-99516500D01*
X121301016Y-99516500D01*
X121232895Y-99496498D01*
X121219374Y-99485564D01*
X121219065Y-99485938D01*
X121071425Y-99363799D01*
X121071421Y-99363797D01*
X121066675Y-99359870D01*
X120892701Y-99265802D01*
X120703768Y-99207318D01*
X120697643Y-99206674D01*
X120697642Y-99206674D01*
X120513204Y-99187289D01*
X120513202Y-99187289D01*
X120507075Y-99186645D01*
X120424576Y-99194153D01*
X120316251Y-99204011D01*
X120316248Y-99204012D01*
X120310112Y-99204570D01*
X120304206Y-99206308D01*
X120304202Y-99206309D01*
X120199076Y-99237249D01*
X120120381Y-99260410D01*
X120114923Y-99263263D01*
X120114919Y-99263265D01*
X120094330Y-99274029D01*
X119945110Y-99352040D01*
X119790975Y-99475968D01*
X119663846Y-99627474D01*
X119660879Y-99632872D01*
X119660875Y-99632877D01*
X119582095Y-99776180D01*
X119568567Y-99800787D01*
X119566706Y-99806654D01*
X119566705Y-99806656D01*
X119524535Y-99939592D01*
X119508765Y-99989306D01*
X119486719Y-100185851D01*
X119487235Y-100191995D01*
X119501067Y-100356717D01*
X119503268Y-100382934D01*
X119504967Y-100388858D01*
X119554890Y-100562960D01*
X119557783Y-100573050D01*
X119648187Y-100748956D01*
X119771035Y-100903953D01*
X119775728Y-100907947D01*
X119775729Y-100907948D01*
X119811406Y-100938311D01*
X119921650Y-101032136D01*
X120094294Y-101128624D01*
X120282392Y-101189740D01*
X120478777Y-101213158D01*
X120484912Y-101212686D01*
X120484914Y-101212686D01*
X120669830Y-101198457D01*
X120669834Y-101198456D01*
X120675972Y-101197984D01*
X120866463Y-101144798D01*
X120871967Y-101142018D01*
X120871969Y-101142017D01*
X121037495Y-101058404D01*
X121037497Y-101058403D01*
X121042996Y-101055625D01*
X121157116Y-100966465D01*
X121193986Y-100937659D01*
X121193987Y-100937658D01*
X121198847Y-100933861D01*
X121204620Y-100927172D01*
X121205795Y-100926415D01*
X121207340Y-100924943D01*
X121207620Y-100925237D01*
X121264273Y-100888673D01*
X121300005Y-100883500D01*
X135000644Y-100883500D01*
X135068765Y-100903502D01*
X135082305Y-100913545D01*
X135221650Y-101032136D01*
X135394294Y-101128624D01*
X135582392Y-101189740D01*
X135590677Y-101190728D01*
X135591113Y-101190780D01*
X135592374Y-101191319D01*
X135594532Y-101191794D01*
X135594442Y-101192204D01*
X135656387Y-101218707D01*
X135696200Y-101277490D01*
X135697912Y-101348466D01*
X135660980Y-101409101D01*
X135627445Y-101431000D01*
X135615336Y-101436392D01*
X135608234Y-101439554D01*
X135602893Y-101443434D01*
X135602892Y-101443435D01*
X135462505Y-101545432D01*
X135395637Y-101569291D01*
X135350952Y-101563516D01*
X135347274Y-101561878D01*
X135340821Y-101560506D01*
X135340820Y-101560506D01*
X135166930Y-101523544D01*
X135166925Y-101523544D01*
X135160473Y-101522172D01*
X134969499Y-101522172D01*
X134963047Y-101523544D01*
X134963042Y-101523544D01*
X134876099Y-101542025D01*
X134782698Y-101561878D01*
X134776668Y-101564563D01*
X134776667Y-101564563D01*
X134614264Y-101636869D01*
X134614262Y-101636870D01*
X134608234Y-101639554D01*
X134602893Y-101643434D01*
X134602892Y-101643435D01*
X134510885Y-101710282D01*
X134444017Y-101734141D01*
X134385576Y-101723453D01*
X134253309Y-101664564D01*
X134253301Y-101664561D01*
X134247274Y-101661878D01*
X134152547Y-101641743D01*
X134066930Y-101623544D01*
X134066925Y-101623544D01*
X134060473Y-101622172D01*
X133869499Y-101622172D01*
X133863047Y-101623544D01*
X133863042Y-101623544D01*
X133777425Y-101641743D01*
X133682698Y-101661878D01*
X133676668Y-101664563D01*
X133676667Y-101664563D01*
X133514264Y-101736869D01*
X133514262Y-101736870D01*
X133508234Y-101739554D01*
X133502893Y-101743434D01*
X133502892Y-101743435D01*
X133410885Y-101810282D01*
X133344017Y-101834141D01*
X133285576Y-101823453D01*
X133153309Y-101764564D01*
X133153301Y-101764561D01*
X133147274Y-101761878D01*
X133053874Y-101742025D01*
X132966930Y-101723544D01*
X132966925Y-101723544D01*
X132960473Y-101722172D01*
X132769499Y-101722172D01*
X132763047Y-101723544D01*
X132763042Y-101723544D01*
X132676098Y-101742025D01*
X132582698Y-101761878D01*
X132576668Y-101764563D01*
X132576667Y-101764563D01*
X132414264Y-101836869D01*
X132414262Y-101836870D01*
X132408234Y-101839554D01*
X132402893Y-101843434D01*
X132402892Y-101843435D01*
X132391062Y-101852030D01*
X132253733Y-101951806D01*
X132249312Y-101956716D01*
X132249311Y-101956717D01*
X132167744Y-102047307D01*
X132125946Y-102093728D01*
X132030459Y-102259116D01*
X131971444Y-102440744D01*
X131957035Y-102577844D01*
X131954079Y-102605965D01*
X131927066Y-102671622D01*
X131917864Y-102681890D01*
X129020158Y-105579595D01*
X128957846Y-105613621D01*
X128931063Y-105616500D01*
X124183200Y-105616500D01*
X124115079Y-105596498D01*
X124095853Y-105580157D01*
X124095580Y-105580460D01*
X124090668Y-105576037D01*
X124086253Y-105571134D01*
X124064671Y-105555454D01*
X123937094Y-105462763D01*
X123937093Y-105462762D01*
X123931752Y-105458882D01*
X123925724Y-105456198D01*
X123925722Y-105456197D01*
X123763319Y-105383891D01*
X123763318Y-105383891D01*
X123757288Y-105381206D01*
X123663888Y-105361353D01*
X123576944Y-105342872D01*
X123576939Y-105342872D01*
X123570487Y-105341500D01*
X123379513Y-105341500D01*
X123373061Y-105342872D01*
X123373056Y-105342872D01*
X123286112Y-105361353D01*
X123192712Y-105381206D01*
X123186682Y-105383891D01*
X123186681Y-105383891D01*
X123024278Y-105456197D01*
X123024276Y-105456198D01*
X123018248Y-105458882D01*
X122863747Y-105571134D01*
X122859326Y-105576044D01*
X122859325Y-105576045D01*
X122825492Y-105613621D01*
X122735960Y-105713056D01*
X122640473Y-105878444D01*
X122581458Y-106060072D01*
X122561496Y-106250000D01*
X122581458Y-106439928D01*
X122583498Y-106446206D01*
X122630033Y-106589426D01*
X122632061Y-106660393D01*
X122603836Y-106712672D01*
X122535960Y-106788056D01*
X122532659Y-106793774D01*
X122493619Y-106861393D01*
X122442237Y-106910386D01*
X122372523Y-106923822D01*
X122306612Y-106897436D01*
X122265430Y-106839604D01*
X122258500Y-106798393D01*
X122258500Y-105303767D01*
X122259027Y-105292584D01*
X122260702Y-105285091D01*
X122258562Y-105217000D01*
X122258500Y-105213043D01*
X122258500Y-105185144D01*
X122257996Y-105181153D01*
X122257063Y-105169311D01*
X122255923Y-105133036D01*
X122255674Y-105125111D01*
X122253462Y-105117497D01*
X122253461Y-105117492D01*
X122250023Y-105105659D01*
X122246012Y-105086295D01*
X122244467Y-105074064D01*
X122243474Y-105066203D01*
X122240557Y-105058836D01*
X122240556Y-105058831D01*
X122227198Y-105025092D01*
X122223354Y-105013865D01*
X122213230Y-104979022D01*
X122211018Y-104971407D01*
X122200707Y-104953972D01*
X122192012Y-104936224D01*
X122184552Y-104917383D01*
X122158564Y-104881613D01*
X122152048Y-104871693D01*
X122133580Y-104840465D01*
X122133578Y-104840462D01*
X122129542Y-104833638D01*
X122115221Y-104819317D01*
X122102380Y-104804283D01*
X122095131Y-104794306D01*
X122090472Y-104787893D01*
X122056395Y-104759702D01*
X122047616Y-104751712D01*
X121019778Y-103723873D01*
X121019770Y-103723865D01*
X121019766Y-103723862D01*
X117934324Y-100638419D01*
X117926784Y-100630133D01*
X117922672Y-100623654D01*
X117898101Y-100600580D01*
X117873021Y-100577029D01*
X117870179Y-100574274D01*
X117850442Y-100554537D01*
X117847310Y-100552108D01*
X117844341Y-100549490D01*
X117845041Y-100548696D01*
X117817603Y-100517244D01*
X117807327Y-100499446D01*
X117804026Y-100493728D01*
X117702209Y-100380648D01*
X117680661Y-100356717D01*
X117680660Y-100356716D01*
X117676239Y-100351806D01*
X117521738Y-100239554D01*
X117515710Y-100236870D01*
X117515708Y-100236869D01*
X117353305Y-100164563D01*
X117353304Y-100164563D01*
X117347274Y-100161878D01*
X117253873Y-100142025D01*
X117166930Y-100123544D01*
X117166925Y-100123544D01*
X117160473Y-100122172D01*
X116969499Y-100122172D01*
X116963047Y-100123544D01*
X116963042Y-100123544D01*
X116876098Y-100142025D01*
X116782698Y-100161878D01*
X116776668Y-100164563D01*
X116776667Y-100164563D01*
X116614264Y-100236869D01*
X116614262Y-100236870D01*
X116608234Y-100239554D01*
X116453733Y-100351806D01*
X116449312Y-100356716D01*
X116449311Y-100356717D01*
X116427764Y-100380648D01*
X116325946Y-100493728D01*
X116230459Y-100659116D01*
X116171444Y-100840744D01*
X116170754Y-100847305D01*
X116170754Y-100847307D01*
X116162440Y-100926415D01*
X116151482Y-101030672D01*
X98382966Y-101030672D01*
X98447356Y-100818741D01*
X98476515Y-100597262D01*
X98476973Y-100578535D01*
X98478060Y-100534037D01*
X98478060Y-100534033D01*
X98478142Y-100530672D01*
X98459838Y-100308033D01*
X98405417Y-100091374D01*
X98316340Y-99886512D01*
X98195000Y-99698949D01*
X98044656Y-99533723D01*
X98040605Y-99530524D01*
X98040601Y-99530520D01*
X97873400Y-99398472D01*
X97873396Y-99398470D01*
X97869345Y-99395270D01*
X97827555Y-99372201D01*
X97777584Y-99321769D01*
X97762812Y-99252326D01*
X97787928Y-99185920D01*
X97815280Y-99159313D01*
X97990314Y-99034464D01*
X97998186Y-99027811D01*
X98149038Y-98877484D01*
X98155716Y-98869637D01*
X98279989Y-98696692D01*
X98285299Y-98687855D01*
X98379656Y-98496939D01*
X98383455Y-98487344D01*
X98445363Y-98283582D01*
X98447541Y-98273509D01*
X98448972Y-98262634D01*
X98446761Y-98248450D01*
X98433603Y-98244672D01*
X95798211Y-98244672D01*
X95784680Y-98248645D01*
X95783243Y-98258638D01*
X95813551Y-98393118D01*
X95816631Y-98402947D01*
X95896756Y-98600275D01*
X95901399Y-98609466D01*
X96012680Y-98791060D01*
X96018763Y-98799371D01*
X96158199Y-98960339D01*
X96165566Y-98967555D01*
X96329420Y-99103588D01*
X96337867Y-99109503D01*
X96406955Y-99149875D01*
X96455679Y-99201514D01*
X96468750Y-99271297D01*
X96442019Y-99337068D01*
X96401570Y-99370424D01*
X96388593Y-99377179D01*
X96384460Y-99380282D01*
X96384457Y-99380284D01*
X96214086Y-99508202D01*
X96209951Y-99511307D01*
X96055615Y-99672810D01*
X95929729Y-99857352D01*
X95913989Y-99891262D01*
X95863207Y-100000663D01*
X95835674Y-100059977D01*
X95775975Y-100275242D01*
X95752237Y-100497367D01*
X93903500Y-100497367D01*
X93903500Y-95417367D01*
X95752237Y-95417367D01*
X95752534Y-95422520D01*
X95752534Y-95422523D01*
X95758353Y-95523447D01*
X95765096Y-95640387D01*
X95766233Y-95645433D01*
X95766234Y-95645439D01*
X95780510Y-95708785D01*
X95814208Y-95858311D01*
X95860508Y-95972335D01*
X95885625Y-96034190D01*
X95898252Y-96065288D01*
X95915262Y-96093046D01*
X96010919Y-96249144D01*
X96014973Y-96255760D01*
X96161236Y-96424610D01*
X96333112Y-96567304D01*
X96377830Y-96593435D01*
X96406941Y-96610446D01*
X96455665Y-96662084D01*
X96468736Y-96731867D01*
X96442005Y-96797639D01*
X96401548Y-96830999D01*
X96393443Y-96835218D01*
X96384724Y-96840708D01*
X96214419Y-96968577D01*
X96206712Y-96975420D01*
X96059576Y-97129389D01*
X96053090Y-97137399D01*
X95933084Y-97313321D01*
X95927986Y-97322295D01*
X95838324Y-97515455D01*
X95834761Y-97525142D01*
X95779375Y-97724855D01*
X95780898Y-97733279D01*
X95793278Y-97736672D01*
X98433330Y-97736672D01*
X98446861Y-97732699D01*
X98448166Y-97723619D01*
X98406200Y-97556547D01*
X98402880Y-97546796D01*
X98317958Y-97351486D01*
X98313091Y-97342411D01*
X98197412Y-97163598D01*
X98191122Y-97155429D01*
X98047792Y-96997912D01*
X98040259Y-96990887D01*
X97873125Y-96858894D01*
X97864542Y-96853192D01*
X97827588Y-96832792D01*
X97777617Y-96782359D01*
X97762845Y-96712917D01*
X97787961Y-96646511D01*
X97815313Y-96619904D01*
X97852421Y-96593435D01*
X97994846Y-96491845D01*
X98153082Y-96334161D01*
X98204596Y-96262472D01*
X98280421Y-96156949D01*
X98283439Y-96152749D01*
X98308110Y-96102832D01*
X98380122Y-95957125D01*
X98380123Y-95957123D01*
X98382416Y-95952483D01*
X98426390Y-95807749D01*
X98445851Y-95743695D01*
X98445851Y-95743693D01*
X98447356Y-95738741D01*
X98476515Y-95517262D01*
X98477079Y-95494166D01*
X98478060Y-95454037D01*
X98478060Y-95454033D01*
X98478142Y-95450672D01*
X98459838Y-95228033D01*
X98405417Y-95011374D01*
X98316340Y-94806512D01*
X98276892Y-94745534D01*
X98197808Y-94623289D01*
X98197806Y-94623286D01*
X98195000Y-94618949D01*
X98044656Y-94453723D01*
X98040605Y-94450524D01*
X98040601Y-94450520D01*
X97873400Y-94318472D01*
X97873396Y-94318470D01*
X97869345Y-94315270D01*
X97673775Y-94207310D01*
X97668906Y-94205586D01*
X97668902Y-94205584D01*
X97468073Y-94134467D01*
X97468069Y-94134466D01*
X97463198Y-94132741D01*
X97458105Y-94131834D01*
X97458102Y-94131833D01*
X97248359Y-94094472D01*
X97248353Y-94094471D01*
X97243270Y-94093566D01*
X97169438Y-94092664D01*
X97025067Y-94090900D01*
X97025065Y-94090900D01*
X97019897Y-94090837D01*
X96799077Y-94124627D01*
X96586742Y-94194029D01*
X96556429Y-94209809D01*
X96409534Y-94286278D01*
X96388593Y-94297179D01*
X96384460Y-94300282D01*
X96384457Y-94300284D01*
X96214086Y-94428202D01*
X96209951Y-94431307D01*
X96055615Y-94592810D01*
X95929729Y-94777352D01*
X95913989Y-94811262D01*
X95853472Y-94941635D01*
X95835674Y-94979977D01*
X95775975Y-95195242D01*
X95752237Y-95417367D01*
X93903500Y-95417367D01*
X93903500Y-90575000D01*
X120661496Y-90575000D01*
X120662186Y-90581565D01*
X120665548Y-90613548D01*
X120681458Y-90764928D01*
X120740473Y-90946556D01*
X120835960Y-91111944D01*
X120840378Y-91116851D01*
X120840379Y-91116852D01*
X120953289Y-91242251D01*
X120963747Y-91253866D01*
X121118248Y-91366118D01*
X121124276Y-91368802D01*
X121124278Y-91368803D01*
X121271900Y-91434528D01*
X121292712Y-91443794D01*
X121386112Y-91463647D01*
X121473056Y-91482128D01*
X121473061Y-91482128D01*
X121479513Y-91483500D01*
X121510406Y-91483500D01*
X121578527Y-91503502D01*
X121599501Y-91520405D01*
X122472401Y-92393305D01*
X122506427Y-92455617D01*
X122501362Y-92526432D01*
X122458815Y-92583268D01*
X122409504Y-92605647D01*
X122325393Y-92623525D01*
X122319363Y-92626210D01*
X122319362Y-92626210D01*
X122156959Y-92698516D01*
X122156957Y-92698517D01*
X122150929Y-92701201D01*
X122145588Y-92705081D01*
X122145587Y-92705082D01*
X122126702Y-92718803D01*
X121996428Y-92813453D01*
X121992007Y-92818363D01*
X121992006Y-92818364D01*
X121978378Y-92833500D01*
X121868641Y-92955375D01*
X121773154Y-93120763D01*
X121714139Y-93302391D01*
X121694177Y-93492319D01*
X121714139Y-93682247D01*
X121773154Y-93863875D01*
X121868641Y-94029263D01*
X121873059Y-94034170D01*
X121873060Y-94034171D01*
X121927355Y-94094472D01*
X121996428Y-94171185D01*
X122067310Y-94222684D01*
X122144653Y-94278877D01*
X122150929Y-94283437D01*
X122156957Y-94286121D01*
X122156959Y-94286122D01*
X122309673Y-94354114D01*
X122325393Y-94361113D01*
X122418793Y-94380966D01*
X122505737Y-94399447D01*
X122505742Y-94399447D01*
X122512194Y-94400819D01*
X122568087Y-94400819D01*
X122636208Y-94420821D01*
X122657182Y-94437724D01*
X125288778Y-97069320D01*
X125322804Y-97131632D01*
X125324993Y-97171586D01*
X125311496Y-97300000D01*
X125312186Y-97306565D01*
X125328955Y-97466109D01*
X125331458Y-97489928D01*
X125390473Y-97671556D01*
X125485960Y-97836944D01*
X125613747Y-97978866D01*
X125768248Y-98091118D01*
X125774276Y-98093802D01*
X125774278Y-98093803D01*
X125936681Y-98166109D01*
X125942712Y-98168794D01*
X126036112Y-98188647D01*
X126123056Y-98207128D01*
X126123061Y-98207128D01*
X126129513Y-98208500D01*
X126320487Y-98208500D01*
X126326939Y-98207128D01*
X126326944Y-98207128D01*
X126413888Y-98188647D01*
X126507288Y-98168794D01*
X126513319Y-98166109D01*
X126675722Y-98093803D01*
X126675724Y-98093802D01*
X126681752Y-98091118D01*
X126836253Y-97978866D01*
X126964040Y-97836944D01*
X127059527Y-97671556D01*
X127118542Y-97489928D01*
X127121046Y-97466109D01*
X127131007Y-97371330D01*
X127158020Y-97305673D01*
X127216242Y-97265043D01*
X127256317Y-97258500D01*
X127420487Y-97258500D01*
X127426939Y-97257128D01*
X127426944Y-97257128D01*
X127533214Y-97234539D01*
X127607288Y-97218794D01*
X127613319Y-97216109D01*
X127775722Y-97143803D01*
X127775724Y-97143802D01*
X127781752Y-97141118D01*
X127794809Y-97131632D01*
X127847579Y-97093292D01*
X127936253Y-97028866D01*
X127964124Y-96997912D01*
X128059621Y-96891852D01*
X128059622Y-96891851D01*
X128064040Y-96886944D01*
X128150985Y-96736352D01*
X128156223Y-96727279D01*
X128156224Y-96727278D01*
X128159527Y-96721556D01*
X128218542Y-96539928D01*
X128231501Y-96416635D01*
X128237814Y-96356565D01*
X128238504Y-96350000D01*
X128219866Y-96172670D01*
X128232638Y-96102832D01*
X128281140Y-96050985D01*
X128332606Y-96036932D01*
X128332318Y-96034190D01*
X128338885Y-96033500D01*
X128345487Y-96033500D01*
X128351939Y-96032128D01*
X128351944Y-96032128D01*
X128438888Y-96013647D01*
X128532288Y-95993794D01*
X128580486Y-95972335D01*
X128700722Y-95918803D01*
X128700724Y-95918802D01*
X128706752Y-95916118D01*
X128861253Y-95803866D01*
X128946864Y-95708785D01*
X129007310Y-95671545D01*
X129078293Y-95672897D01*
X129137278Y-95712410D01*
X129165536Y-95777541D01*
X129166500Y-95793095D01*
X129166500Y-96205327D01*
X129160333Y-96244263D01*
X129106458Y-96410072D01*
X129105768Y-96416633D01*
X129105768Y-96416635D01*
X129092986Y-96538247D01*
X129086496Y-96600000D01*
X129087186Y-96606565D01*
X129100356Y-96731867D01*
X129106458Y-96789928D01*
X129165473Y-96971556D01*
X129260960Y-97136944D01*
X129265378Y-97141851D01*
X129265379Y-97141852D01*
X129354190Y-97240487D01*
X129388747Y-97278866D01*
X129436170Y-97313321D01*
X129505010Y-97363336D01*
X129543248Y-97391118D01*
X129549276Y-97393802D01*
X129549278Y-97393803D01*
X129702111Y-97461848D01*
X129717712Y-97468794D01*
X129786263Y-97483365D01*
X129898056Y-97507128D01*
X129898061Y-97507128D01*
X129904513Y-97508500D01*
X130095487Y-97508500D01*
X130101939Y-97507128D01*
X130101944Y-97507128D01*
X130213737Y-97483365D01*
X130282288Y-97468794D01*
X130297889Y-97461848D01*
X130450722Y-97393803D01*
X130450724Y-97393802D01*
X130456752Y-97391118D01*
X130494991Y-97363336D01*
X130563830Y-97313321D01*
X130611253Y-97278866D01*
X130645810Y-97240487D01*
X130734621Y-97141852D01*
X130734622Y-97141851D01*
X130739040Y-97136944D01*
X130834527Y-96971556D01*
X130893542Y-96789928D01*
X130899645Y-96731867D01*
X130900368Y-96724992D01*
X155395777Y-96724992D01*
X155396513Y-96731995D01*
X155396513Y-96731996D01*
X155413315Y-96891852D01*
X155414737Y-96905384D01*
X155473191Y-97077093D01*
X155505364Y-97129389D01*
X155561211Y-97220166D01*
X155568235Y-97231584D01*
X155573166Y-97236619D01*
X155573168Y-97236622D01*
X155628804Y-97293435D01*
X155695144Y-97361179D01*
X155847611Y-97459437D01*
X155854231Y-97461846D01*
X155854234Y-97461848D01*
X156001518Y-97515455D01*
X156018058Y-97521475D01*
X156158142Y-97539172D01*
X156254983Y-97539172D01*
X156389628Y-97524069D01*
X156403995Y-97519066D01*
X156554267Y-97466736D01*
X156554270Y-97466734D01*
X156560925Y-97464417D01*
X156568895Y-97459437D01*
X156708775Y-97372031D01*
X156714749Y-97368298D01*
X156731679Y-97351486D01*
X156838458Y-97245450D01*
X156838461Y-97245446D01*
X156843455Y-97240487D01*
X156940646Y-97087338D01*
X156984112Y-96965271D01*
X156999130Y-96923097D01*
X156999131Y-96923092D01*
X157001492Y-96916462D01*
X157022969Y-96736352D01*
X157022233Y-96729348D01*
X157004745Y-96562960D01*
X157004744Y-96562958D01*
X157004009Y-96555960D01*
X156945555Y-96384251D01*
X156871339Y-96263615D01*
X156854207Y-96235767D01*
X156854205Y-96235764D01*
X156850511Y-96229760D01*
X156845580Y-96224725D01*
X156845578Y-96224722D01*
X156728530Y-96105197D01*
X156728529Y-96105196D01*
X156723602Y-96100165D01*
X156571135Y-96001907D01*
X156564515Y-95999498D01*
X156564512Y-95999496D01*
X156407307Y-95942278D01*
X156407306Y-95942278D01*
X156400688Y-95939869D01*
X156260604Y-95922172D01*
X156163763Y-95922172D01*
X156029118Y-95937275D01*
X156022465Y-95939592D01*
X156022464Y-95939592D01*
X155864479Y-95994608D01*
X155864476Y-95994610D01*
X155857821Y-95996927D01*
X155851842Y-96000663D01*
X155711199Y-96088546D01*
X155703997Y-96093046D01*
X155699001Y-96098007D01*
X155699000Y-96098008D01*
X155580288Y-96215894D01*
X155580285Y-96215898D01*
X155575291Y-96220857D01*
X155571517Y-96226803D01*
X155571516Y-96226805D01*
X155553141Y-96255760D01*
X155478100Y-96374006D01*
X155475735Y-96380648D01*
X155419616Y-96538247D01*
X155419615Y-96538252D01*
X155417254Y-96544882D01*
X155416421Y-96551870D01*
X155416420Y-96551873D01*
X155409436Y-96610446D01*
X155395777Y-96724992D01*
X130900368Y-96724992D01*
X130912814Y-96606565D01*
X130913504Y-96600000D01*
X130907014Y-96538247D01*
X130894232Y-96416635D01*
X130894232Y-96416633D01*
X130893542Y-96410072D01*
X130834527Y-96228444D01*
X130829985Y-96220576D01*
X130760465Y-96100165D01*
X130739040Y-96063056D01*
X130626595Y-95938173D01*
X130595877Y-95874166D01*
X130604642Y-95803712D01*
X130631136Y-95764768D01*
X130972890Y-95423014D01*
X156674802Y-95423014D01*
X156696284Y-95512152D01*
X156700173Y-95523447D01*
X156782719Y-95704997D01*
X156788666Y-95715339D01*
X156904058Y-95878012D01*
X156911851Y-95887040D01*
X157055921Y-96024957D01*
X157065286Y-96032353D01*
X157232831Y-96140536D01*
X157243435Y-96146032D01*
X157428402Y-96220576D01*
X157439860Y-96223970D01*
X157637018Y-96262472D01*
X157645881Y-96263549D01*
X157648590Y-96263615D01*
X158077975Y-96263615D01*
X158093214Y-96259140D01*
X158094419Y-96257750D01*
X158096090Y-96250067D01*
X158096090Y-95427730D01*
X158091615Y-95412491D01*
X158090225Y-95411286D01*
X158082542Y-95409615D01*
X156689688Y-95409615D01*
X156676157Y-95413588D01*
X156674802Y-95423014D01*
X130972890Y-95423014D01*
X131508573Y-94887331D01*
X156670442Y-94887331D01*
X156671910Y-94897623D01*
X156685475Y-94901615D01*
X158077975Y-94901615D01*
X158093214Y-94897140D01*
X158094419Y-94895750D01*
X158096090Y-94888067D01*
X158096090Y-94065730D01*
X158091615Y-94050491D01*
X158090225Y-94049286D01*
X158082542Y-94047615D01*
X157700258Y-94047615D01*
X157694282Y-94047900D01*
X157545596Y-94062086D01*
X157533862Y-94064345D01*
X157342491Y-94120487D01*
X157331415Y-94124917D01*
X157154112Y-94216234D01*
X157144066Y-94222684D01*
X156987233Y-94345877D01*
X156978584Y-94354114D01*
X156847878Y-94504738D01*
X156840943Y-94514462D01*
X156741080Y-94687082D01*
X156736106Y-94697946D01*
X156670683Y-94886342D01*
X156670442Y-94887331D01*
X131508573Y-94887331D01*
X133825499Y-92570405D01*
X133887811Y-92536379D01*
X133914594Y-92533500D01*
X133944290Y-92533500D01*
X134012411Y-92553502D01*
X134037926Y-92575189D01*
X134045697Y-92583819D01*
X134063747Y-92603866D01*
X134085329Y-92619546D01*
X134197717Y-92701201D01*
X134218248Y-92716118D01*
X134224276Y-92718802D01*
X134224278Y-92718803D01*
X134386681Y-92791109D01*
X134392712Y-92793794D01*
X134466932Y-92809570D01*
X134573056Y-92832128D01*
X134573061Y-92832128D01*
X134579513Y-92833500D01*
X134770487Y-92833500D01*
X134776939Y-92832128D01*
X134776944Y-92832128D01*
X134883068Y-92809570D01*
X134957288Y-92793794D01*
X134963319Y-92791109D01*
X135125722Y-92718803D01*
X135125724Y-92718802D01*
X135131752Y-92716118D01*
X135152284Y-92701201D01*
X135255499Y-92626210D01*
X135286253Y-92603866D01*
X135290675Y-92598955D01*
X135409621Y-92466852D01*
X135409622Y-92466851D01*
X135414040Y-92461944D01*
X135509527Y-92296556D01*
X135568542Y-92114928D01*
X135588504Y-91925000D01*
X135568542Y-91735072D01*
X135509527Y-91553444D01*
X135414040Y-91388056D01*
X135390793Y-91362237D01*
X135290675Y-91251045D01*
X135290674Y-91251044D01*
X135286253Y-91246134D01*
X135131752Y-91133882D01*
X135125724Y-91131198D01*
X135125722Y-91131197D01*
X134963319Y-91058891D01*
X134963318Y-91058891D01*
X134957288Y-91056206D01*
X134863887Y-91036353D01*
X134776944Y-91017872D01*
X134776939Y-91017872D01*
X134770487Y-91016500D01*
X134579513Y-91016500D01*
X134573061Y-91017872D01*
X134573056Y-91017872D01*
X134486112Y-91036353D01*
X134392712Y-91056206D01*
X134386682Y-91058891D01*
X134386681Y-91058891D01*
X134224278Y-91131197D01*
X134224276Y-91131198D01*
X134218248Y-91133882D01*
X134069092Y-91242251D01*
X134068837Y-91242436D01*
X134001969Y-91266294D01*
X133994776Y-91266500D01*
X133678768Y-91266500D01*
X133667585Y-91265973D01*
X133660092Y-91264298D01*
X133652166Y-91264547D01*
X133652165Y-91264547D01*
X133592002Y-91266438D01*
X133588044Y-91266500D01*
X133560144Y-91266500D01*
X133556154Y-91267004D01*
X133544320Y-91267936D01*
X133500111Y-91269326D01*
X133492495Y-91271539D01*
X133492493Y-91271539D01*
X133480652Y-91274979D01*
X133461293Y-91278988D01*
X133459983Y-91279154D01*
X133441203Y-91281526D01*
X133433837Y-91284442D01*
X133433831Y-91284444D01*
X133400098Y-91297800D01*
X133388868Y-91301645D01*
X133354017Y-91311770D01*
X133346407Y-91313981D01*
X133339584Y-91318016D01*
X133328966Y-91324295D01*
X133311213Y-91332992D01*
X133303568Y-91336019D01*
X133292383Y-91340448D01*
X133285968Y-91345109D01*
X133256612Y-91366437D01*
X133246695Y-91372951D01*
X133208638Y-91395458D01*
X133194317Y-91409779D01*
X133179284Y-91422619D01*
X133162893Y-91434528D01*
X133134702Y-91468605D01*
X133126712Y-91477384D01*
X129407747Y-95196348D01*
X129399461Y-95203888D01*
X129392982Y-95208000D01*
X129387557Y-95213777D01*
X129387556Y-95213778D01*
X129380663Y-95221118D01*
X129319450Y-95257083D01*
X129248510Y-95254244D01*
X129190366Y-95213503D01*
X129163479Y-95147794D01*
X129162814Y-95134864D01*
X129162814Y-95131562D01*
X129163504Y-95125000D01*
X129143542Y-94935072D01*
X129084527Y-94753444D01*
X128989040Y-94588056D01*
X128915863Y-94506785D01*
X128885147Y-94442779D01*
X128883500Y-94422476D01*
X128883500Y-90678767D01*
X128884027Y-90667584D01*
X128885702Y-90660091D01*
X128883562Y-90592000D01*
X128883500Y-90588043D01*
X128883500Y-90560144D01*
X128882996Y-90556153D01*
X128882063Y-90544311D01*
X128880923Y-90508036D01*
X128880674Y-90500111D01*
X128878462Y-90492497D01*
X128878461Y-90492492D01*
X128875023Y-90480659D01*
X128871012Y-90461295D01*
X128869467Y-90449064D01*
X128868474Y-90441203D01*
X128865557Y-90433836D01*
X128865556Y-90433831D01*
X128852198Y-90400092D01*
X128848354Y-90388865D01*
X128838230Y-90354022D01*
X128836018Y-90346407D01*
X128825707Y-90328972D01*
X128817012Y-90311224D01*
X128809552Y-90292383D01*
X128783564Y-90256613D01*
X128777048Y-90246693D01*
X128758580Y-90215465D01*
X128758578Y-90215462D01*
X128754542Y-90208638D01*
X128740221Y-90194317D01*
X128727380Y-90179283D01*
X128720131Y-90169306D01*
X128715472Y-90162893D01*
X128681395Y-90134702D01*
X128672616Y-90126712D01*
X128022122Y-89476218D01*
X127988096Y-89413906D01*
X127985907Y-89400293D01*
X127969232Y-89241635D01*
X127969232Y-89241633D01*
X127968542Y-89235072D01*
X127909527Y-89053444D01*
X127814040Y-88888056D01*
X127686253Y-88746134D01*
X127531752Y-88633882D01*
X127525724Y-88631198D01*
X127525722Y-88631197D01*
X127363319Y-88558891D01*
X127363318Y-88558891D01*
X127357288Y-88556206D01*
X127263887Y-88536353D01*
X127176944Y-88517872D01*
X127176939Y-88517872D01*
X127170487Y-88516500D01*
X126979513Y-88516500D01*
X126973061Y-88517872D01*
X126973056Y-88517872D01*
X126886113Y-88536353D01*
X126792712Y-88556206D01*
X126786682Y-88558891D01*
X126786681Y-88558891D01*
X126624278Y-88631197D01*
X126624276Y-88631198D01*
X126618248Y-88633882D01*
X126463747Y-88746134D01*
X126335960Y-88888056D01*
X126240473Y-89053444D01*
X126181458Y-89235072D01*
X126161496Y-89425000D01*
X126181458Y-89614928D01*
X126240473Y-89796556D01*
X126335960Y-89961944D01*
X126463747Y-90103866D01*
X126495192Y-90126712D01*
X126607953Y-90208638D01*
X126618248Y-90216118D01*
X126624276Y-90218802D01*
X126624278Y-90218803D01*
X126775130Y-90285966D01*
X126792712Y-90293794D01*
X126886113Y-90313647D01*
X126973056Y-90332128D01*
X126973061Y-90332128D01*
X126979513Y-90333500D01*
X127035405Y-90333500D01*
X127103526Y-90353502D01*
X127124501Y-90370405D01*
X127579596Y-90825501D01*
X127613621Y-90887813D01*
X127616500Y-90914596D01*
X127616500Y-94422476D01*
X127596498Y-94490597D01*
X127584142Y-94506779D01*
X127510960Y-94588056D01*
X127415473Y-94753444D01*
X127356458Y-94935072D01*
X127336496Y-95125000D01*
X127339306Y-95151732D01*
X127326535Y-95221568D01*
X127278033Y-95273416D01*
X127209201Y-95290811D01*
X127141891Y-95268231D01*
X127124901Y-95253997D01*
X124831998Y-92961093D01*
X122524719Y-90653814D01*
X122490693Y-90591502D01*
X122488915Y-90574957D01*
X122488504Y-90575000D01*
X122469232Y-90391635D01*
X122469232Y-90391633D01*
X122468542Y-90385072D01*
X122409527Y-90203444D01*
X122314040Y-90038056D01*
X122186253Y-89896134D01*
X122031752Y-89783882D01*
X122025724Y-89781198D01*
X122025722Y-89781197D01*
X121863319Y-89708891D01*
X121863318Y-89708891D01*
X121857288Y-89706206D01*
X121763887Y-89686353D01*
X121676944Y-89667872D01*
X121676939Y-89667872D01*
X121670487Y-89666500D01*
X121479513Y-89666500D01*
X121473061Y-89667872D01*
X121473056Y-89667872D01*
X121386113Y-89686353D01*
X121292712Y-89706206D01*
X121286682Y-89708891D01*
X121286681Y-89708891D01*
X121124278Y-89781197D01*
X121124276Y-89781198D01*
X121118248Y-89783882D01*
X120963747Y-89896134D01*
X120835960Y-90038056D01*
X120740473Y-90203444D01*
X120681458Y-90385072D01*
X120680768Y-90391633D01*
X120680768Y-90391635D01*
X120664098Y-90550247D01*
X120661496Y-90575000D01*
X93903500Y-90575000D01*
X93903500Y-84832703D01*
X95090743Y-84832703D01*
X95128268Y-85117734D01*
X95129401Y-85121874D01*
X95129401Y-85121876D01*
X95136659Y-85148406D01*
X95204129Y-85395036D01*
X95205813Y-85398984D01*
X95306596Y-85635264D01*
X95316923Y-85659476D01*
X95385742Y-85774464D01*
X95421566Y-85834321D01*
X95464561Y-85906161D01*
X95644313Y-86130528D01*
X95852851Y-86328423D01*
X96086317Y-86496186D01*
X96090112Y-86498195D01*
X96090113Y-86498196D01*
X96111869Y-86509715D01*
X96340392Y-86630712D01*
X96610373Y-86729511D01*
X96891264Y-86790755D01*
X96919841Y-86793004D01*
X97114282Y-86808307D01*
X97114291Y-86808307D01*
X97116739Y-86808500D01*
X97272271Y-86808500D01*
X97274407Y-86808354D01*
X97274418Y-86808354D01*
X97482548Y-86794165D01*
X97482554Y-86794164D01*
X97486825Y-86793873D01*
X97491020Y-86793004D01*
X97491022Y-86793004D01*
X97656631Y-86758708D01*
X97768342Y-86735574D01*
X98039343Y-86639607D01*
X98294812Y-86507750D01*
X98298313Y-86505289D01*
X98298317Y-86505287D01*
X98412418Y-86425095D01*
X98530023Y-86342441D01*
X98721890Y-86164147D01*
X98737479Y-86149661D01*
X98737481Y-86149658D01*
X98740622Y-86146740D01*
X98922713Y-85924268D01*
X99065668Y-85690988D01*
X99070686Y-85682799D01*
X99072927Y-85679142D01*
X99094466Y-85630076D01*
X99096545Y-85625341D01*
X102256987Y-85625341D01*
X102257357Y-85632162D01*
X102262881Y-85683024D01*
X102266507Y-85698276D01*
X102311662Y-85818726D01*
X102320200Y-85834321D01*
X102396701Y-85936396D01*
X102409262Y-85948957D01*
X102511337Y-86025458D01*
X102526932Y-86033996D01*
X102647380Y-86079150D01*
X102662635Y-86082777D01*
X102713500Y-86088303D01*
X102720314Y-86088672D01*
X103342871Y-86088672D01*
X103358110Y-86084197D01*
X103359315Y-86082807D01*
X103360986Y-86075124D01*
X103360986Y-86070556D01*
X103868986Y-86070556D01*
X103873461Y-86085795D01*
X103874851Y-86087000D01*
X103882534Y-86088671D01*
X104509655Y-86088671D01*
X104516476Y-86088301D01*
X104567338Y-86082777D01*
X104582590Y-86079151D01*
X104703040Y-86033996D01*
X104718635Y-86025458D01*
X104820710Y-85948957D01*
X104833271Y-85936396D01*
X104909772Y-85834321D01*
X104918310Y-85818726D01*
X104959211Y-85709624D01*
X105001853Y-85652860D01*
X105068414Y-85628160D01*
X105137763Y-85643368D01*
X105172430Y-85671356D01*
X105197851Y-85700703D01*
X105197855Y-85700707D01*
X105201236Y-85704610D01*
X105373112Y-85847304D01*
X105565986Y-85960010D01*
X105774678Y-86039702D01*
X105779746Y-86040733D01*
X105779749Y-86040734D01*
X105874848Y-86060082D01*
X105993583Y-86084239D01*
X105998758Y-86084429D01*
X105998760Y-86084429D01*
X106211659Y-86092236D01*
X106211663Y-86092236D01*
X106216823Y-86092425D01*
X106221943Y-86091769D01*
X106221945Y-86091769D01*
X106433274Y-86064697D01*
X106433275Y-86064697D01*
X106438402Y-86064040D01*
X106443352Y-86062555D01*
X106647415Y-86001333D01*
X106647420Y-86001331D01*
X106652370Y-85999846D01*
X106852980Y-85901568D01*
X107034846Y-85771845D01*
X107193082Y-85614161D01*
X107323439Y-85432749D01*
X107324762Y-85433700D01*
X107371631Y-85390529D01*
X107441566Y-85378297D01*
X107507012Y-85405816D01*
X107534861Y-85437666D01*
X107594973Y-85535760D01*
X107741236Y-85704610D01*
X107913112Y-85847304D01*
X108105986Y-85960010D01*
X108314678Y-86039702D01*
X108319746Y-86040733D01*
X108319749Y-86040734D01*
X108414848Y-86060082D01*
X108533583Y-86084239D01*
X108538758Y-86084429D01*
X108538760Y-86084429D01*
X108751659Y-86092236D01*
X108751663Y-86092236D01*
X108756823Y-86092425D01*
X108761943Y-86091769D01*
X108761945Y-86091769D01*
X108973274Y-86064697D01*
X108973275Y-86064697D01*
X108978402Y-86064040D01*
X108983352Y-86062555D01*
X109187415Y-86001333D01*
X109187420Y-86001331D01*
X109192370Y-85999846D01*
X109392980Y-85901568D01*
X109574846Y-85771845D01*
X109733082Y-85614161D01*
X109863439Y-85432749D01*
X109864762Y-85433700D01*
X109911631Y-85390529D01*
X109981566Y-85378297D01*
X110047012Y-85405816D01*
X110074861Y-85437666D01*
X110134973Y-85535760D01*
X110281236Y-85704610D01*
X110453112Y-85847304D01*
X110645986Y-85960010D01*
X110854678Y-86039702D01*
X110859746Y-86040733D01*
X110859749Y-86040734D01*
X110954848Y-86060082D01*
X111073583Y-86084239D01*
X111078758Y-86084429D01*
X111078760Y-86084429D01*
X111291659Y-86092236D01*
X111291663Y-86092236D01*
X111296823Y-86092425D01*
X111301943Y-86091769D01*
X111301945Y-86091769D01*
X111513274Y-86064697D01*
X111513275Y-86064697D01*
X111518402Y-86064040D01*
X111523352Y-86062555D01*
X111727415Y-86001333D01*
X111727420Y-86001331D01*
X111732370Y-85999846D01*
X111932980Y-85901568D01*
X112114846Y-85771845D01*
X112273082Y-85614161D01*
X112403439Y-85432749D01*
X112404762Y-85433700D01*
X112451631Y-85390529D01*
X112521566Y-85378297D01*
X112587012Y-85405816D01*
X112614861Y-85437666D01*
X112674973Y-85535760D01*
X112821236Y-85704610D01*
X112993112Y-85847304D01*
X113185986Y-85960010D01*
X113394678Y-86039702D01*
X113399746Y-86040733D01*
X113399749Y-86040734D01*
X113494848Y-86060082D01*
X113613583Y-86084239D01*
X113618758Y-86084429D01*
X113618760Y-86084429D01*
X113831659Y-86092236D01*
X113831663Y-86092236D01*
X113836823Y-86092425D01*
X113841943Y-86091769D01*
X113841945Y-86091769D01*
X114053274Y-86064697D01*
X114053275Y-86064697D01*
X114058402Y-86064040D01*
X114063352Y-86062555D01*
X114267415Y-86001333D01*
X114267420Y-86001331D01*
X114272370Y-85999846D01*
X114472980Y-85901568D01*
X114654846Y-85771845D01*
X114813082Y-85614161D01*
X114943439Y-85432749D01*
X114944762Y-85433700D01*
X114991631Y-85390529D01*
X115061566Y-85378297D01*
X115127012Y-85405816D01*
X115154861Y-85437666D01*
X115214973Y-85535760D01*
X115361236Y-85704610D01*
X115533112Y-85847304D01*
X115725986Y-85960010D01*
X115934678Y-86039702D01*
X115939746Y-86040733D01*
X115939749Y-86040734D01*
X116034848Y-86060082D01*
X116153583Y-86084239D01*
X116158758Y-86084429D01*
X116158760Y-86084429D01*
X116371659Y-86092236D01*
X116371663Y-86092236D01*
X116376823Y-86092425D01*
X116381943Y-86091769D01*
X116381945Y-86091769D01*
X116593274Y-86064697D01*
X116593275Y-86064697D01*
X116598402Y-86064040D01*
X116603352Y-86062555D01*
X116807415Y-86001333D01*
X116807420Y-86001331D01*
X116812370Y-85999846D01*
X117012980Y-85901568D01*
X117194846Y-85771845D01*
X117353082Y-85614161D01*
X117483439Y-85432749D01*
X117484762Y-85433700D01*
X117531631Y-85390529D01*
X117601566Y-85378297D01*
X117667012Y-85405816D01*
X117694861Y-85437666D01*
X117754973Y-85535760D01*
X117901236Y-85704610D01*
X118073112Y-85847304D01*
X118265986Y-85960010D01*
X118474678Y-86039702D01*
X118479746Y-86040733D01*
X118479749Y-86040734D01*
X118574848Y-86060082D01*
X118693583Y-86084239D01*
X118698758Y-86084429D01*
X118698760Y-86084429D01*
X118911659Y-86092236D01*
X118911663Y-86092236D01*
X118916823Y-86092425D01*
X118921943Y-86091769D01*
X118921945Y-86091769D01*
X119133274Y-86064697D01*
X119133275Y-86064697D01*
X119138402Y-86064040D01*
X119143352Y-86062555D01*
X119347415Y-86001333D01*
X119347420Y-86001331D01*
X119352370Y-85999846D01*
X119552980Y-85901568D01*
X119734846Y-85771845D01*
X119893082Y-85614161D01*
X120023439Y-85432749D01*
X120024762Y-85433700D01*
X120071631Y-85390529D01*
X120141566Y-85378297D01*
X120207012Y-85405816D01*
X120234861Y-85437666D01*
X120294973Y-85535760D01*
X120441236Y-85704610D01*
X120613112Y-85847304D01*
X120805986Y-85960010D01*
X121014678Y-86039702D01*
X121019746Y-86040733D01*
X121019749Y-86040734D01*
X121114848Y-86060082D01*
X121233583Y-86084239D01*
X121238758Y-86084429D01*
X121238760Y-86084429D01*
X121451659Y-86092236D01*
X121451663Y-86092236D01*
X121456823Y-86092425D01*
X121461943Y-86091769D01*
X121461945Y-86091769D01*
X121673274Y-86064697D01*
X121673275Y-86064697D01*
X121678402Y-86064040D01*
X121683352Y-86062555D01*
X121887415Y-86001333D01*
X121887420Y-86001331D01*
X121892370Y-85999846D01*
X122092980Y-85901568D01*
X122274846Y-85771845D01*
X122433082Y-85614161D01*
X122563439Y-85432749D01*
X122568965Y-85421569D01*
X122660122Y-85237125D01*
X122660123Y-85237123D01*
X122662416Y-85232483D01*
X122727356Y-85018741D01*
X122730003Y-84998638D01*
X128503243Y-84998638D01*
X128533551Y-85133118D01*
X128536631Y-85142947D01*
X128616756Y-85340275D01*
X128621399Y-85349466D01*
X128732680Y-85531060D01*
X128738763Y-85539371D01*
X128878199Y-85700339D01*
X128885566Y-85707555D01*
X129049420Y-85843588D01*
X129057867Y-85849503D01*
X129241742Y-85956951D01*
X129251028Y-85961401D01*
X129449987Y-86037375D01*
X129459885Y-86040251D01*
X129563236Y-86061278D01*
X129577285Y-86060082D01*
X129580986Y-86049737D01*
X129580986Y-86049189D01*
X130088986Y-86049189D01*
X130093050Y-86063031D01*
X130106464Y-86065065D01*
X130113170Y-86064206D01*
X130123248Y-86062064D01*
X130327241Y-86000863D01*
X130336828Y-85997105D01*
X130528081Y-85903411D01*
X130536931Y-85898136D01*
X130710314Y-85774464D01*
X130718186Y-85767811D01*
X130869038Y-85617484D01*
X130875716Y-85609637D01*
X131003008Y-85432491D01*
X131004265Y-85433394D01*
X131051359Y-85390034D01*
X131121297Y-85377817D01*
X131186737Y-85405350D01*
X131214565Y-85437183D01*
X131274973Y-85535760D01*
X131421236Y-85704610D01*
X131593112Y-85847304D01*
X131785986Y-85960010D01*
X131994678Y-86039702D01*
X131999746Y-86040733D01*
X131999749Y-86040734D01*
X132094848Y-86060082D01*
X132213583Y-86084239D01*
X132218758Y-86084429D01*
X132218760Y-86084429D01*
X132431659Y-86092236D01*
X132431663Y-86092236D01*
X132436823Y-86092425D01*
X132441943Y-86091769D01*
X132441945Y-86091769D01*
X132653274Y-86064697D01*
X132653275Y-86064697D01*
X132658402Y-86064040D01*
X132663352Y-86062555D01*
X132867415Y-86001333D01*
X132867420Y-86001331D01*
X132872370Y-85999846D01*
X133072980Y-85901568D01*
X133254846Y-85771845D01*
X133413082Y-85614161D01*
X133543439Y-85432749D01*
X133544762Y-85433700D01*
X133591631Y-85390529D01*
X133661566Y-85378297D01*
X133727012Y-85405816D01*
X133754861Y-85437666D01*
X133814973Y-85535760D01*
X133961236Y-85704610D01*
X134133112Y-85847304D01*
X134325986Y-85960010D01*
X134534678Y-86039702D01*
X134539746Y-86040733D01*
X134539749Y-86040734D01*
X134634848Y-86060082D01*
X134753583Y-86084239D01*
X134758758Y-86084429D01*
X134758760Y-86084429D01*
X134971659Y-86092236D01*
X134971663Y-86092236D01*
X134976823Y-86092425D01*
X134981943Y-86091769D01*
X134981945Y-86091769D01*
X135193274Y-86064697D01*
X135193275Y-86064697D01*
X135198402Y-86064040D01*
X135203352Y-86062555D01*
X135407415Y-86001333D01*
X135407420Y-86001331D01*
X135412370Y-85999846D01*
X135612980Y-85901568D01*
X135794846Y-85771845D01*
X135953082Y-85614161D01*
X136083439Y-85432749D01*
X136084762Y-85433700D01*
X136131631Y-85390529D01*
X136201566Y-85378297D01*
X136267012Y-85405816D01*
X136294861Y-85437666D01*
X136354973Y-85535760D01*
X136501236Y-85704610D01*
X136673112Y-85847304D01*
X136865986Y-85960010D01*
X137074678Y-86039702D01*
X137079746Y-86040733D01*
X137079749Y-86040734D01*
X137174848Y-86060082D01*
X137293583Y-86084239D01*
X137298758Y-86084429D01*
X137298760Y-86084429D01*
X137511659Y-86092236D01*
X137511663Y-86092236D01*
X137516823Y-86092425D01*
X137521943Y-86091769D01*
X137521945Y-86091769D01*
X137733274Y-86064697D01*
X137733275Y-86064697D01*
X137738402Y-86064040D01*
X137743352Y-86062555D01*
X137947415Y-86001333D01*
X137947420Y-86001331D01*
X137952370Y-85999846D01*
X138152980Y-85901568D01*
X138334846Y-85771845D01*
X138493082Y-85614161D01*
X138623439Y-85432749D01*
X138624762Y-85433700D01*
X138671631Y-85390529D01*
X138741566Y-85378297D01*
X138807012Y-85405816D01*
X138834861Y-85437666D01*
X138894973Y-85535760D01*
X139041236Y-85704610D01*
X139213112Y-85847304D01*
X139405986Y-85960010D01*
X139614678Y-86039702D01*
X139619746Y-86040733D01*
X139619749Y-86040734D01*
X139714848Y-86060082D01*
X139833583Y-86084239D01*
X139838758Y-86084429D01*
X139838760Y-86084429D01*
X140051659Y-86092236D01*
X140051663Y-86092236D01*
X140056823Y-86092425D01*
X140061943Y-86091769D01*
X140061945Y-86091769D01*
X140273274Y-86064697D01*
X140273275Y-86064697D01*
X140278402Y-86064040D01*
X140283352Y-86062555D01*
X140487415Y-86001333D01*
X140487420Y-86001331D01*
X140492370Y-85999846D01*
X140692980Y-85901568D01*
X140874846Y-85771845D01*
X141033082Y-85614161D01*
X141163439Y-85432749D01*
X141164762Y-85433700D01*
X141211631Y-85390529D01*
X141281566Y-85378297D01*
X141347012Y-85405816D01*
X141374861Y-85437666D01*
X141434973Y-85535760D01*
X141581236Y-85704610D01*
X141753112Y-85847304D01*
X141945986Y-85960010D01*
X142154678Y-86039702D01*
X142159746Y-86040733D01*
X142159749Y-86040734D01*
X142254848Y-86060082D01*
X142373583Y-86084239D01*
X142378758Y-86084429D01*
X142378760Y-86084429D01*
X142591659Y-86092236D01*
X142591663Y-86092236D01*
X142596823Y-86092425D01*
X142601943Y-86091769D01*
X142601945Y-86091769D01*
X142813274Y-86064697D01*
X142813275Y-86064697D01*
X142818402Y-86064040D01*
X142823352Y-86062555D01*
X143027415Y-86001333D01*
X143027420Y-86001331D01*
X143032370Y-85999846D01*
X143232980Y-85901568D01*
X143414846Y-85771845D01*
X143573082Y-85614161D01*
X143703439Y-85432749D01*
X143704762Y-85433700D01*
X143751631Y-85390529D01*
X143821566Y-85378297D01*
X143887012Y-85405816D01*
X143914861Y-85437666D01*
X143974973Y-85535760D01*
X144121236Y-85704610D01*
X144293112Y-85847304D01*
X144485986Y-85960010D01*
X144694678Y-86039702D01*
X144699746Y-86040733D01*
X144699749Y-86040734D01*
X144794848Y-86060082D01*
X144913583Y-86084239D01*
X144918758Y-86084429D01*
X144918760Y-86084429D01*
X145131659Y-86092236D01*
X145131663Y-86092236D01*
X145136823Y-86092425D01*
X145141943Y-86091769D01*
X145141945Y-86091769D01*
X145353274Y-86064697D01*
X145353275Y-86064697D01*
X145358402Y-86064040D01*
X145363352Y-86062555D01*
X145567415Y-86001333D01*
X145567420Y-86001331D01*
X145572370Y-85999846D01*
X145772980Y-85901568D01*
X145954846Y-85771845D01*
X146063077Y-85663991D01*
X146125448Y-85630076D01*
X146196254Y-85635264D01*
X146253016Y-85677910D01*
X146269998Y-85709013D01*
X146292041Y-85767811D01*
X146314371Y-85827377D01*
X146401725Y-85943933D01*
X146518281Y-86031287D01*
X146654670Y-86082417D01*
X146716852Y-86089172D01*
X148513120Y-86089172D01*
X148575302Y-86082417D01*
X148711691Y-86031287D01*
X148828247Y-85943933D01*
X148915601Y-85827377D01*
X148966731Y-85690988D01*
X148973486Y-85628806D01*
X148973486Y-84863375D01*
X153090743Y-84863375D01*
X153128268Y-85148406D01*
X153204129Y-85425708D01*
X153205813Y-85429656D01*
X153312229Y-85679142D01*
X153316923Y-85690148D01*
X153363637Y-85768201D01*
X153459027Y-85927586D01*
X153464561Y-85936833D01*
X153644313Y-86161200D01*
X153661397Y-86177412D01*
X153837897Y-86344904D01*
X153852851Y-86359095D01*
X153875787Y-86375576D01*
X154059726Y-86507750D01*
X154086317Y-86526858D01*
X154090112Y-86528867D01*
X154090113Y-86528868D01*
X154111869Y-86540387D01*
X154340392Y-86661384D01*
X154610373Y-86760183D01*
X154891264Y-86821427D01*
X154919841Y-86823676D01*
X155114282Y-86838979D01*
X155114291Y-86838979D01*
X155116739Y-86839172D01*
X155272271Y-86839172D01*
X155274407Y-86839026D01*
X155274418Y-86839026D01*
X155482548Y-86824837D01*
X155482554Y-86824836D01*
X155486825Y-86824545D01*
X155491020Y-86823676D01*
X155491022Y-86823676D01*
X155649992Y-86790755D01*
X155768342Y-86766246D01*
X156039343Y-86670279D01*
X156294812Y-86538422D01*
X156298313Y-86535961D01*
X156298317Y-86535959D01*
X156412418Y-86455767D01*
X156530023Y-86373113D01*
X156740622Y-86177412D01*
X156922713Y-85954940D01*
X157072927Y-85709814D01*
X157076927Y-85700703D01*
X157186757Y-85450502D01*
X157188483Y-85446570D01*
X157193742Y-85428110D01*
X157266068Y-85174206D01*
X157267244Y-85170078D01*
X157307751Y-84885456D01*
X157307845Y-84867623D01*
X157309235Y-84602255D01*
X157309235Y-84602248D01*
X157309257Y-84597969D01*
X157271732Y-84312938D01*
X157264506Y-84286522D01*
X157228209Y-84153843D01*
X157195871Y-84035636D01*
X157181104Y-84001016D01*
X157084763Y-83775148D01*
X157084761Y-83775144D01*
X157083077Y-83771196D01*
X156979704Y-83598472D01*
X156937643Y-83528193D01*
X156937640Y-83528189D01*
X156935439Y-83524511D01*
X156755687Y-83300144D01*
X156547149Y-83102249D01*
X156313683Y-82934486D01*
X156291843Y-82922922D01*
X156255754Y-82903814D01*
X156059608Y-82799960D01*
X155924617Y-82750560D01*
X155793658Y-82702636D01*
X155793656Y-82702635D01*
X155789627Y-82701161D01*
X155508736Y-82639917D01*
X155477685Y-82637473D01*
X155285718Y-82622365D01*
X155285709Y-82622365D01*
X155283261Y-82622172D01*
X155127729Y-82622172D01*
X155125593Y-82622318D01*
X155125582Y-82622318D01*
X154917452Y-82636507D01*
X154917446Y-82636508D01*
X154913175Y-82636799D01*
X154908980Y-82637668D01*
X154908978Y-82637668D01*
X154783965Y-82663557D01*
X154631658Y-82695098D01*
X154360657Y-82791065D01*
X154105188Y-82922922D01*
X154101687Y-82925383D01*
X154101683Y-82925385D01*
X154091594Y-82932476D01*
X153869977Y-83088231D01*
X153856599Y-83100663D01*
X153674939Y-83269472D01*
X153659378Y-83283932D01*
X153477287Y-83506404D01*
X153420609Y-83598894D01*
X153333818Y-83740524D01*
X153327073Y-83751530D01*
X153325347Y-83755463D01*
X153325346Y-83755464D01*
X153273835Y-83872810D01*
X153211517Y-84014774D01*
X153210342Y-84018901D01*
X153210341Y-84018902D01*
X153199824Y-84055822D01*
X153132756Y-84291266D01*
X153092249Y-84575888D01*
X153092227Y-84580177D01*
X153092226Y-84580184D01*
X153090765Y-84859089D01*
X153090743Y-84863375D01*
X148973486Y-84863375D01*
X148973486Y-83832538D01*
X148966731Y-83770356D01*
X148915601Y-83633967D01*
X148828247Y-83517411D01*
X148711691Y-83430057D01*
X148575302Y-83378927D01*
X148513120Y-83372172D01*
X146716852Y-83372172D01*
X146654670Y-83378927D01*
X146518281Y-83430057D01*
X146401725Y-83517411D01*
X146314371Y-83633967D01*
X146311219Y-83642375D01*
X146269905Y-83752579D01*
X146227263Y-83809343D01*
X146160702Y-83834043D01*
X146091353Y-83818835D01*
X146058729Y-83793148D01*
X146008137Y-83737547D01*
X146008128Y-83737538D01*
X146004656Y-83733723D01*
X146000605Y-83730524D01*
X146000601Y-83730520D01*
X145833400Y-83598472D01*
X145833396Y-83598470D01*
X145829345Y-83595270D01*
X145793014Y-83575214D01*
X145777122Y-83566441D01*
X145633775Y-83487310D01*
X145628906Y-83485586D01*
X145628902Y-83485584D01*
X145428073Y-83414467D01*
X145428069Y-83414466D01*
X145423198Y-83412741D01*
X145418105Y-83411834D01*
X145418102Y-83411833D01*
X145208359Y-83374472D01*
X145208353Y-83374471D01*
X145203270Y-83373566D01*
X145129438Y-83372664D01*
X144985067Y-83370900D01*
X144985065Y-83370900D01*
X144979897Y-83370837D01*
X144759077Y-83404627D01*
X144546742Y-83474029D01*
X144348593Y-83577179D01*
X144344460Y-83580282D01*
X144344457Y-83580284D01*
X144261436Y-83642618D01*
X144169951Y-83711307D01*
X144144527Y-83737912D01*
X144076266Y-83809343D01*
X144015615Y-83872810D01*
X143908187Y-84030293D01*
X143853279Y-84075293D01*
X143782754Y-84083464D01*
X143719007Y-84052210D01*
X143698310Y-84027726D01*
X143617808Y-83903289D01*
X143617806Y-83903286D01*
X143615000Y-83898949D01*
X143464656Y-83733723D01*
X143460605Y-83730524D01*
X143460601Y-83730520D01*
X143293400Y-83598472D01*
X143293396Y-83598470D01*
X143289345Y-83595270D01*
X143253014Y-83575214D01*
X143237122Y-83566441D01*
X143093775Y-83487310D01*
X143088906Y-83485586D01*
X143088902Y-83485584D01*
X142888073Y-83414467D01*
X142888069Y-83414466D01*
X142883198Y-83412741D01*
X142878105Y-83411834D01*
X142878102Y-83411833D01*
X142668359Y-83374472D01*
X142668353Y-83374471D01*
X142663270Y-83373566D01*
X142589438Y-83372664D01*
X142445067Y-83370900D01*
X142445065Y-83370900D01*
X142439897Y-83370837D01*
X142219077Y-83404627D01*
X142006742Y-83474029D01*
X141808593Y-83577179D01*
X141804460Y-83580282D01*
X141804457Y-83580284D01*
X141721436Y-83642618D01*
X141629951Y-83711307D01*
X141604527Y-83737912D01*
X141536266Y-83809343D01*
X141475615Y-83872810D01*
X141368187Y-84030293D01*
X141313279Y-84075293D01*
X141242754Y-84083464D01*
X141179007Y-84052210D01*
X141158310Y-84027726D01*
X141077808Y-83903289D01*
X141077806Y-83903286D01*
X141075000Y-83898949D01*
X140924656Y-83733723D01*
X140920605Y-83730524D01*
X140920601Y-83730520D01*
X140753400Y-83598472D01*
X140753396Y-83598470D01*
X140749345Y-83595270D01*
X140713014Y-83575214D01*
X140697122Y-83566441D01*
X140553775Y-83487310D01*
X140548906Y-83485586D01*
X140548902Y-83485584D01*
X140348073Y-83414467D01*
X140348069Y-83414466D01*
X140343198Y-83412741D01*
X140338105Y-83411834D01*
X140338102Y-83411833D01*
X140128359Y-83374472D01*
X140128353Y-83374471D01*
X140123270Y-83373566D01*
X140049438Y-83372664D01*
X139905067Y-83370900D01*
X139905065Y-83370900D01*
X139899897Y-83370837D01*
X139679077Y-83404627D01*
X139466742Y-83474029D01*
X139268593Y-83577179D01*
X139264460Y-83580282D01*
X139264457Y-83580284D01*
X139181436Y-83642618D01*
X139089951Y-83711307D01*
X139064527Y-83737912D01*
X138996266Y-83809343D01*
X138935615Y-83872810D01*
X138828187Y-84030293D01*
X138773279Y-84075293D01*
X138702754Y-84083464D01*
X138639007Y-84052210D01*
X138618310Y-84027726D01*
X138537808Y-83903289D01*
X138537806Y-83903286D01*
X138535000Y-83898949D01*
X138384656Y-83733723D01*
X138380605Y-83730524D01*
X138380601Y-83730520D01*
X138213400Y-83598472D01*
X138213396Y-83598470D01*
X138209345Y-83595270D01*
X138173014Y-83575214D01*
X138157122Y-83566441D01*
X138013775Y-83487310D01*
X138008906Y-83485586D01*
X138008902Y-83485584D01*
X137808073Y-83414467D01*
X137808069Y-83414466D01*
X137803198Y-83412741D01*
X137798105Y-83411834D01*
X137798102Y-83411833D01*
X137588359Y-83374472D01*
X137588353Y-83374471D01*
X137583270Y-83373566D01*
X137509438Y-83372664D01*
X137365067Y-83370900D01*
X137365065Y-83370900D01*
X137359897Y-83370837D01*
X137139077Y-83404627D01*
X136926742Y-83474029D01*
X136728593Y-83577179D01*
X136724460Y-83580282D01*
X136724457Y-83580284D01*
X136641436Y-83642618D01*
X136549951Y-83711307D01*
X136524527Y-83737912D01*
X136456266Y-83809343D01*
X136395615Y-83872810D01*
X136288187Y-84030293D01*
X136233279Y-84075293D01*
X136162754Y-84083464D01*
X136099007Y-84052210D01*
X136078310Y-84027726D01*
X135997808Y-83903289D01*
X135997806Y-83903286D01*
X135995000Y-83898949D01*
X135844656Y-83733723D01*
X135840605Y-83730524D01*
X135840601Y-83730520D01*
X135673400Y-83598472D01*
X135673396Y-83598470D01*
X135669345Y-83595270D01*
X135633014Y-83575214D01*
X135617122Y-83566441D01*
X135473775Y-83487310D01*
X135468906Y-83485586D01*
X135468902Y-83485584D01*
X135268073Y-83414467D01*
X135268069Y-83414466D01*
X135263198Y-83412741D01*
X135258105Y-83411834D01*
X135258102Y-83411833D01*
X135048359Y-83374472D01*
X135048353Y-83374471D01*
X135043270Y-83373566D01*
X134969438Y-83372664D01*
X134825067Y-83370900D01*
X134825065Y-83370900D01*
X134819897Y-83370837D01*
X134599077Y-83404627D01*
X134386742Y-83474029D01*
X134188593Y-83577179D01*
X134184460Y-83580282D01*
X134184457Y-83580284D01*
X134101436Y-83642618D01*
X134009951Y-83711307D01*
X133984527Y-83737912D01*
X133916266Y-83809343D01*
X133855615Y-83872810D01*
X133748187Y-84030293D01*
X133693279Y-84075293D01*
X133622754Y-84083464D01*
X133559007Y-84052210D01*
X133538310Y-84027726D01*
X133457808Y-83903289D01*
X133457806Y-83903286D01*
X133455000Y-83898949D01*
X133304656Y-83733723D01*
X133300605Y-83730524D01*
X133300601Y-83730520D01*
X133133400Y-83598472D01*
X133133396Y-83598470D01*
X133129345Y-83595270D01*
X133093014Y-83575214D01*
X133077122Y-83566441D01*
X132933775Y-83487310D01*
X132928906Y-83485586D01*
X132928902Y-83485584D01*
X132728073Y-83414467D01*
X132728069Y-83414466D01*
X132723198Y-83412741D01*
X132718105Y-83411834D01*
X132718102Y-83411833D01*
X132508359Y-83374472D01*
X132508353Y-83374471D01*
X132503270Y-83373566D01*
X132429438Y-83372664D01*
X132285067Y-83370900D01*
X132285065Y-83370900D01*
X132279897Y-83370837D01*
X132059077Y-83404627D01*
X131846742Y-83474029D01*
X131648593Y-83577179D01*
X131644460Y-83580282D01*
X131644457Y-83580284D01*
X131561436Y-83642618D01*
X131469951Y-83711307D01*
X131444527Y-83737912D01*
X131376266Y-83809343D01*
X131315615Y-83872810D01*
X131312706Y-83877075D01*
X131312700Y-83877083D01*
X131310741Y-83879955D01*
X131208190Y-84030290D01*
X131207884Y-84030738D01*
X131152973Y-84075741D01*
X131082448Y-84083912D01*
X131018701Y-84052658D01*
X130998004Y-84028174D01*
X130917412Y-83903598D01*
X130911122Y-83895429D01*
X130767792Y-83737912D01*
X130760259Y-83730887D01*
X130593125Y-83598894D01*
X130584538Y-83593189D01*
X130398103Y-83490271D01*
X130388691Y-83486041D01*
X130187945Y-83414952D01*
X130177974Y-83412318D01*
X130106823Y-83399644D01*
X130093526Y-83401104D01*
X130088986Y-83415661D01*
X130088986Y-86049189D01*
X129580986Y-86049189D01*
X129580986Y-85002787D01*
X129576511Y-84987548D01*
X129575121Y-84986343D01*
X129567438Y-84984672D01*
X128518211Y-84984672D01*
X128504680Y-84988645D01*
X128503243Y-84998638D01*
X122730003Y-84998638D01*
X122756515Y-84797262D01*
X122756597Y-84793912D01*
X122758060Y-84734037D01*
X122758060Y-84734033D01*
X122758142Y-84730672D01*
X122739838Y-84508033D01*
X122728992Y-84464855D01*
X128499375Y-84464855D01*
X128500898Y-84473279D01*
X128513278Y-84476672D01*
X129562871Y-84476672D01*
X129578110Y-84472197D01*
X129579315Y-84470807D01*
X129580986Y-84463124D01*
X129580986Y-83413774D01*
X129577068Y-83400430D01*
X129562792Y-83398443D01*
X129524310Y-83404332D01*
X129514274Y-83406723D01*
X129311854Y-83472884D01*
X129302345Y-83476881D01*
X129113449Y-83575214D01*
X129104724Y-83580708D01*
X128934419Y-83708577D01*
X128926712Y-83715420D01*
X128779576Y-83869389D01*
X128773090Y-83877399D01*
X128653084Y-84053321D01*
X128647986Y-84062295D01*
X128558324Y-84255455D01*
X128554761Y-84265142D01*
X128499375Y-84464855D01*
X122728992Y-84464855D01*
X122685417Y-84291374D01*
X122596340Y-84086512D01*
X122541030Y-84001016D01*
X122477808Y-83903289D01*
X122477806Y-83903286D01*
X122475000Y-83898949D01*
X122324656Y-83733723D01*
X122320605Y-83730524D01*
X122320601Y-83730520D01*
X122153400Y-83598472D01*
X122153396Y-83598470D01*
X122149345Y-83595270D01*
X122113014Y-83575214D01*
X122097122Y-83566441D01*
X121953775Y-83487310D01*
X121948906Y-83485586D01*
X121948902Y-83485584D01*
X121748073Y-83414467D01*
X121748069Y-83414466D01*
X121743198Y-83412741D01*
X121738105Y-83411834D01*
X121738102Y-83411833D01*
X121528359Y-83374472D01*
X121528353Y-83374471D01*
X121523270Y-83373566D01*
X121449438Y-83372664D01*
X121305067Y-83370900D01*
X121305065Y-83370900D01*
X121299897Y-83370837D01*
X121079077Y-83404627D01*
X120866742Y-83474029D01*
X120668593Y-83577179D01*
X120664460Y-83580282D01*
X120664457Y-83580284D01*
X120581436Y-83642618D01*
X120489951Y-83711307D01*
X120464527Y-83737912D01*
X120396266Y-83809343D01*
X120335615Y-83872810D01*
X120228187Y-84030293D01*
X120173279Y-84075293D01*
X120102754Y-84083464D01*
X120039007Y-84052210D01*
X120018310Y-84027726D01*
X119937808Y-83903289D01*
X119937806Y-83903286D01*
X119935000Y-83898949D01*
X119784656Y-83733723D01*
X119780605Y-83730524D01*
X119780601Y-83730520D01*
X119613400Y-83598472D01*
X119613396Y-83598470D01*
X119609345Y-83595270D01*
X119573014Y-83575214D01*
X119557122Y-83566441D01*
X119413775Y-83487310D01*
X119408906Y-83485586D01*
X119408902Y-83485584D01*
X119208073Y-83414467D01*
X119208069Y-83414466D01*
X119203198Y-83412741D01*
X119198105Y-83411834D01*
X119198102Y-83411833D01*
X118988359Y-83374472D01*
X118988353Y-83374471D01*
X118983270Y-83373566D01*
X118909438Y-83372664D01*
X118765067Y-83370900D01*
X118765065Y-83370900D01*
X118759897Y-83370837D01*
X118539077Y-83404627D01*
X118326742Y-83474029D01*
X118128593Y-83577179D01*
X118124460Y-83580282D01*
X118124457Y-83580284D01*
X118041436Y-83642618D01*
X117949951Y-83711307D01*
X117924527Y-83737912D01*
X117856266Y-83809343D01*
X117795615Y-83872810D01*
X117688187Y-84030293D01*
X117633279Y-84075293D01*
X117562754Y-84083464D01*
X117499007Y-84052210D01*
X117478310Y-84027726D01*
X117397808Y-83903289D01*
X117397806Y-83903286D01*
X117395000Y-83898949D01*
X117244656Y-83733723D01*
X117240605Y-83730524D01*
X117240601Y-83730520D01*
X117073400Y-83598472D01*
X117073396Y-83598470D01*
X117069345Y-83595270D01*
X117033014Y-83575214D01*
X117017122Y-83566441D01*
X116873775Y-83487310D01*
X116868906Y-83485586D01*
X116868902Y-83485584D01*
X116668073Y-83414467D01*
X116668069Y-83414466D01*
X116663198Y-83412741D01*
X116658105Y-83411834D01*
X116658102Y-83411833D01*
X116448359Y-83374472D01*
X116448353Y-83374471D01*
X116443270Y-83373566D01*
X116369438Y-83372664D01*
X116225067Y-83370900D01*
X116225065Y-83370900D01*
X116219897Y-83370837D01*
X115999077Y-83404627D01*
X115786742Y-83474029D01*
X115588593Y-83577179D01*
X115584460Y-83580282D01*
X115584457Y-83580284D01*
X115501436Y-83642618D01*
X115409951Y-83711307D01*
X115384527Y-83737912D01*
X115316266Y-83809343D01*
X115255615Y-83872810D01*
X115148187Y-84030293D01*
X115093279Y-84075293D01*
X115022754Y-84083464D01*
X114959007Y-84052210D01*
X114938310Y-84027726D01*
X114857808Y-83903289D01*
X114857806Y-83903286D01*
X114855000Y-83898949D01*
X114704656Y-83733723D01*
X114700605Y-83730524D01*
X114700601Y-83730520D01*
X114533400Y-83598472D01*
X114533396Y-83598470D01*
X114529345Y-83595270D01*
X114493014Y-83575214D01*
X114477122Y-83566441D01*
X114333775Y-83487310D01*
X114328906Y-83485586D01*
X114328902Y-83485584D01*
X114128073Y-83414467D01*
X114128069Y-83414466D01*
X114123198Y-83412741D01*
X114118105Y-83411834D01*
X114118102Y-83411833D01*
X113908359Y-83374472D01*
X113908353Y-83374471D01*
X113903270Y-83373566D01*
X113829438Y-83372664D01*
X113685067Y-83370900D01*
X113685065Y-83370900D01*
X113679897Y-83370837D01*
X113459077Y-83404627D01*
X113246742Y-83474029D01*
X113048593Y-83577179D01*
X113044460Y-83580282D01*
X113044457Y-83580284D01*
X112961436Y-83642618D01*
X112869951Y-83711307D01*
X112844527Y-83737912D01*
X112776266Y-83809343D01*
X112715615Y-83872810D01*
X112608187Y-84030293D01*
X112553279Y-84075293D01*
X112482754Y-84083464D01*
X112419007Y-84052210D01*
X112398310Y-84027726D01*
X112317808Y-83903289D01*
X112317806Y-83903286D01*
X112315000Y-83898949D01*
X112164656Y-83733723D01*
X112160605Y-83730524D01*
X112160601Y-83730520D01*
X111993400Y-83598472D01*
X111993396Y-83598470D01*
X111989345Y-83595270D01*
X111953014Y-83575214D01*
X111937122Y-83566441D01*
X111793775Y-83487310D01*
X111788906Y-83485586D01*
X111788902Y-83485584D01*
X111588073Y-83414467D01*
X111588069Y-83414466D01*
X111583198Y-83412741D01*
X111578105Y-83411834D01*
X111578102Y-83411833D01*
X111368359Y-83374472D01*
X111368353Y-83374471D01*
X111363270Y-83373566D01*
X111289438Y-83372664D01*
X111145067Y-83370900D01*
X111145065Y-83370900D01*
X111139897Y-83370837D01*
X110919077Y-83404627D01*
X110706742Y-83474029D01*
X110508593Y-83577179D01*
X110504460Y-83580282D01*
X110504457Y-83580284D01*
X110421436Y-83642618D01*
X110329951Y-83711307D01*
X110304527Y-83737912D01*
X110236266Y-83809343D01*
X110175615Y-83872810D01*
X110068187Y-84030293D01*
X110013279Y-84075293D01*
X109942754Y-84083464D01*
X109879007Y-84052210D01*
X109858310Y-84027726D01*
X109777808Y-83903289D01*
X109777806Y-83903286D01*
X109775000Y-83898949D01*
X109624656Y-83733723D01*
X109620605Y-83730524D01*
X109620601Y-83730520D01*
X109453400Y-83598472D01*
X109453396Y-83598470D01*
X109449345Y-83595270D01*
X109413014Y-83575214D01*
X109397122Y-83566441D01*
X109253775Y-83487310D01*
X109248906Y-83485586D01*
X109248902Y-83485584D01*
X109048073Y-83414467D01*
X109048069Y-83414466D01*
X109043198Y-83412741D01*
X109038105Y-83411834D01*
X109038102Y-83411833D01*
X108828359Y-83374472D01*
X108828353Y-83374471D01*
X108823270Y-83373566D01*
X108749438Y-83372664D01*
X108605067Y-83370900D01*
X108605065Y-83370900D01*
X108599897Y-83370837D01*
X108379077Y-83404627D01*
X108166742Y-83474029D01*
X107968593Y-83577179D01*
X107964460Y-83580282D01*
X107964457Y-83580284D01*
X107881436Y-83642618D01*
X107789951Y-83711307D01*
X107764527Y-83737912D01*
X107696266Y-83809343D01*
X107635615Y-83872810D01*
X107528187Y-84030293D01*
X107473279Y-84075293D01*
X107402754Y-84083464D01*
X107339007Y-84052210D01*
X107318310Y-84027726D01*
X107237808Y-83903289D01*
X107237806Y-83903286D01*
X107235000Y-83898949D01*
X107084656Y-83733723D01*
X107080605Y-83730524D01*
X107080601Y-83730520D01*
X106913400Y-83598472D01*
X106913396Y-83598470D01*
X106909345Y-83595270D01*
X106873014Y-83575214D01*
X106857122Y-83566441D01*
X106713775Y-83487310D01*
X106708906Y-83485586D01*
X106708902Y-83485584D01*
X106508073Y-83414467D01*
X106508069Y-83414466D01*
X106503198Y-83412741D01*
X106498105Y-83411834D01*
X106498102Y-83411833D01*
X106288359Y-83374472D01*
X106288353Y-83374471D01*
X106283270Y-83373566D01*
X106209438Y-83372664D01*
X106065067Y-83370900D01*
X106065065Y-83370900D01*
X106059897Y-83370837D01*
X105839077Y-83404627D01*
X105626742Y-83474029D01*
X105428593Y-83577179D01*
X105424460Y-83580282D01*
X105424457Y-83580284D01*
X105341436Y-83642618D01*
X105249951Y-83711307D01*
X105246379Y-83715045D01*
X105168884Y-83796138D01*
X105107360Y-83831567D01*
X105036448Y-83828110D01*
X104978662Y-83786864D01*
X104959809Y-83753316D01*
X104918310Y-83642618D01*
X104909772Y-83627023D01*
X104833271Y-83524948D01*
X104820710Y-83512387D01*
X104718635Y-83435886D01*
X104703040Y-83427348D01*
X104582592Y-83382194D01*
X104567337Y-83378567D01*
X104516472Y-83373041D01*
X104509658Y-83372672D01*
X103887101Y-83372672D01*
X103871862Y-83377147D01*
X103870657Y-83378537D01*
X103868986Y-83386220D01*
X103868986Y-86070556D01*
X103360986Y-86070556D01*
X103360986Y-85002787D01*
X103356511Y-84987548D01*
X103355121Y-84986343D01*
X103347438Y-84984672D01*
X102275102Y-84984672D01*
X102259863Y-84989147D01*
X102258658Y-84990537D01*
X102256987Y-84998220D01*
X102256987Y-85625341D01*
X99096545Y-85625341D01*
X99186757Y-85419830D01*
X99188483Y-85415898D01*
X99267244Y-85139406D01*
X99307751Y-84854784D01*
X99307845Y-84836951D01*
X99309235Y-84571583D01*
X99309235Y-84571576D01*
X99309257Y-84567297D01*
X99294941Y-84458557D01*
X102256986Y-84458557D01*
X102261461Y-84473796D01*
X102262851Y-84475001D01*
X102270534Y-84476672D01*
X103342871Y-84476672D01*
X103358110Y-84472197D01*
X103359315Y-84470807D01*
X103360986Y-84463124D01*
X103360986Y-83390788D01*
X103356511Y-83375549D01*
X103355121Y-83374344D01*
X103347438Y-83372673D01*
X102720317Y-83372673D01*
X102713496Y-83373043D01*
X102662634Y-83378567D01*
X102647382Y-83382193D01*
X102526932Y-83427348D01*
X102511337Y-83435886D01*
X102409262Y-83512387D01*
X102396701Y-83524948D01*
X102320200Y-83627023D01*
X102311662Y-83642618D01*
X102266508Y-83763066D01*
X102262881Y-83778321D01*
X102257355Y-83829186D01*
X102256986Y-83836000D01*
X102256986Y-84458557D01*
X99294941Y-84458557D01*
X99271732Y-84282266D01*
X99267048Y-84265142D01*
X99237220Y-84156110D01*
X99195871Y-84004964D01*
X99185295Y-83980170D01*
X99084763Y-83744476D01*
X99084761Y-83744472D01*
X99083077Y-83740524D01*
X98983887Y-83574790D01*
X98937643Y-83497521D01*
X98937640Y-83497517D01*
X98935439Y-83493839D01*
X98755687Y-83269472D01*
X98579471Y-83102249D01*
X98550258Y-83074527D01*
X98550255Y-83074525D01*
X98547149Y-83071577D01*
X98343702Y-82925385D01*
X98317172Y-82906321D01*
X98317171Y-82906320D01*
X98313683Y-82903814D01*
X98291843Y-82892250D01*
X98121335Y-82801971D01*
X98059608Y-82769288D01*
X97917506Y-82717286D01*
X97793658Y-82671964D01*
X97793656Y-82671963D01*
X97789627Y-82670489D01*
X97508736Y-82609245D01*
X97477685Y-82606801D01*
X97285718Y-82591693D01*
X97285709Y-82591693D01*
X97283261Y-82591500D01*
X97127729Y-82591500D01*
X97125593Y-82591646D01*
X97125582Y-82591646D01*
X96917452Y-82605835D01*
X96917446Y-82605836D01*
X96913175Y-82606127D01*
X96908980Y-82606996D01*
X96908978Y-82606996D01*
X96835696Y-82622172D01*
X96631658Y-82664426D01*
X96360657Y-82760393D01*
X96105188Y-82892250D01*
X96101687Y-82894711D01*
X96101683Y-82894713D01*
X96047952Y-82932476D01*
X95869977Y-83057559D01*
X95659378Y-83253260D01*
X95477287Y-83475732D01*
X95327073Y-83720858D01*
X95325347Y-83724791D01*
X95325346Y-83724792D01*
X95246991Y-83903289D01*
X95211517Y-83984102D01*
X95210342Y-83988229D01*
X95210341Y-83988230D01*
X95185413Y-84075741D01*
X95132756Y-84260594D01*
X95092249Y-84545216D01*
X95092227Y-84549505D01*
X95092226Y-84549512D01*
X95090911Y-84800580D01*
X95090743Y-84832703D01*
X93903500Y-84832703D01*
X93903500Y-81418908D01*
X93923502Y-81350787D01*
X93944375Y-81326011D01*
X94041946Y-81236603D01*
X94105683Y-81205328D01*
X94127071Y-81203500D01*
X158272929Y-81203500D01*
X158341050Y-81223502D01*
G37*
G04 #@! TD.AperFunction*
M02*
