G04 #@! TF.GenerationSoftware,KiCad,Pcbnew,(6.0.7-1)-1*
G04 #@! TF.CreationDate,2023-06-08T21:11:32-04:00*
G04 #@! TF.ProjectId,stm8l151k6t6_board,73746d38-6c31-4353-916b-3674365f626f,rev?*
G04 #@! TF.SameCoordinates,Original*
G04 #@! TF.FileFunction,Soldermask,Top*
G04 #@! TF.FilePolarity,Negative*
%FSLAX46Y46*%
G04 Gerber Fmt 4.6, Leading zero omitted, Abs format (unit mm)*
G04 Created by KiCad (PCBNEW (6.0.7-1)-1) date 2023-06-08 21:11:32*
%MOMM*%
%LPD*%
G01*
G04 APERTURE LIST*
G04 Aperture macros list*
%AMRoundRect*
0 Rectangle with rounded corners*
0 $1 Rounding radius*
0 $2 $3 $4 $5 $6 $7 $8 $9 X,Y pos of 4 corners*
0 Add a 4 corners polygon primitive as box body*
4,1,4,$2,$3,$4,$5,$6,$7,$8,$9,$2,$3,0*
0 Add four circle primitives for the rounded corners*
1,1,$1+$1,$2,$3*
1,1,$1+$1,$4,$5*
1,1,$1+$1,$6,$7*
1,1,$1+$1,$8,$9*
0 Add four rect primitives between the rounded corners*
20,1,$1+$1,$2,$3,$4,$5,0*
20,1,$1+$1,$4,$5,$6,$7,0*
20,1,$1+$1,$6,$7,$8,$9,0*
20,1,$1+$1,$8,$9,$2,$3,0*%
%AMRotRect*
0 Rectangle, with rotation*
0 The origin of the aperture is its center*
0 $1 length*
0 $2 width*
0 $3 Rotation angle, in degrees counterclockwise*
0 Add horizontal line*
21,1,$1,$2,0,0,$3*%
G04 Aperture macros list end*
%ADD10RoundRect,0.140000X-0.219203X-0.021213X-0.021213X-0.219203X0.219203X0.021213X0.021213X0.219203X0*%
%ADD11R,1.700000X1.700000*%
%ADD12O,1.700000X1.700000*%
%ADD13C,3.200000*%
%ADD14RoundRect,0.150000X0.512500X0.150000X-0.512500X0.150000X-0.512500X-0.150000X0.512500X-0.150000X0*%
%ADD15RoundRect,0.225000X0.225000X0.250000X-0.225000X0.250000X-0.225000X-0.250000X0.225000X-0.250000X0*%
%ADD16RotRect,1.400000X1.200000X225.000000*%
%ADD17RoundRect,0.140000X-0.140000X-0.170000X0.140000X-0.170000X0.140000X0.170000X-0.140000X0.170000X0*%
%ADD18RoundRect,0.140000X0.021213X-0.219203X0.219203X-0.021213X-0.021213X0.219203X-0.219203X0.021213X0*%
%ADD19RoundRect,0.200000X-0.200000X-0.275000X0.200000X-0.275000X0.200000X0.275000X-0.200000X0.275000X0*%
%ADD20RoundRect,0.200000X-0.275000X0.200000X-0.275000X-0.200000X0.275000X-0.200000X0.275000X0.200000X0*%
%ADD21C,0.600000*%
%ADD22R,1.350013X0.400000*%
%ADD23R,1.199898X1.600000*%
%ADD24O,2.400000X1.200000*%
%ADD25RoundRect,0.125000X-0.530330X0.353553X0.353553X-0.530330X0.530330X-0.353553X-0.353553X0.530330X0*%
%ADD26RoundRect,0.125000X-0.530330X-0.353553X-0.353553X-0.530330X0.530330X0.353553X0.353553X0.530330X0*%
%ADD27RoundRect,0.225000X0.250000X-0.225000X0.250000X0.225000X-0.250000X0.225000X-0.250000X-0.225000X0*%
%ADD28RoundRect,0.140000X0.219203X0.021213X0.021213X0.219203X-0.219203X-0.021213X-0.021213X-0.219203X0*%
%ADD29R,0.700000X1.050013*%
%ADD30RoundRect,0.243750X-0.243750X-0.456250X0.243750X-0.456250X0.243750X0.456250X-0.243750X0.456250X0*%
%ADD31RotRect,0.600000X1.100000X135.000000*%
%ADD32RoundRect,0.140000X-0.170000X0.140000X-0.170000X-0.140000X0.170000X-0.140000X0.170000X0.140000X0*%
%ADD33RoundRect,0.225000X-0.250000X0.225000X-0.250000X-0.225000X0.250000X-0.225000X0.250000X0.225000X0*%
%ADD34RoundRect,0.140000X-0.021213X0.219203X-0.219203X0.021213X0.021213X-0.219203X0.219203X-0.021213X0*%
%ADD35RoundRect,0.243750X-0.456250X0.243750X-0.456250X-0.243750X0.456250X-0.243750X0.456250X0.243750X0*%
G04 APERTURE END LIST*
D10*
X131860589Y-93660589D03*
X132539411Y-94339411D03*
D11*
X147614986Y-84730672D03*
D12*
X145074986Y-84730672D03*
X142534986Y-84730672D03*
X139994986Y-84730672D03*
X137454986Y-84730672D03*
X134914986Y-84730672D03*
X132374986Y-84730672D03*
X129834986Y-84730672D03*
D13*
X97200000Y-113700000D03*
D14*
X145252486Y-96680672D03*
X145252486Y-95730672D03*
X145252486Y-94780672D03*
X142977486Y-94780672D03*
X142977486Y-96680672D03*
D15*
X119889986Y-96730672D03*
X118339986Y-96730672D03*
D16*
X124876777Y-89521142D03*
X123321142Y-91076777D03*
X124523223Y-92278858D03*
X126078858Y-90723223D03*
D17*
X105134986Y-90850000D03*
X106094986Y-90850000D03*
D18*
X122025575Y-96270083D03*
X122704397Y-95591261D03*
D19*
X104789986Y-100150000D03*
X106439986Y-100150000D03*
D20*
X115614986Y-101048172D03*
X115614986Y-102698172D03*
D21*
X156209373Y-100730672D03*
X156209373Y-96730672D03*
D22*
X155674956Y-100000675D03*
X155674956Y-99350433D03*
X155674956Y-98700192D03*
X155674956Y-98049951D03*
X155674956Y-97399709D03*
D23*
X155600026Y-101980608D03*
X155600026Y-95480736D03*
D24*
X158350090Y-102305729D03*
X158350090Y-95155615D03*
D18*
X126460589Y-92339411D03*
X127139411Y-91660589D03*
D11*
X147614986Y-113730672D03*
D12*
X145074986Y-113730672D03*
X142534986Y-113730672D03*
X139994986Y-113730672D03*
X137454986Y-113730672D03*
X134914986Y-113730672D03*
X132374986Y-113730672D03*
X129834986Y-113730672D03*
D13*
X155200000Y-84730672D03*
D25*
X127392714Y-93798602D03*
X126827029Y-94364288D03*
X126261343Y-94929973D03*
X125695658Y-95495658D03*
X125129972Y-96061344D03*
X124564287Y-96627029D03*
X123998602Y-97192715D03*
X123432916Y-97758400D03*
D26*
X123432916Y-99702944D03*
X123998602Y-100268629D03*
X124564287Y-100834315D03*
X125129972Y-101400000D03*
X125695658Y-101965686D03*
X126261343Y-102531371D03*
X126827029Y-103097056D03*
X127392714Y-103662742D03*
D25*
X129337258Y-103662742D03*
X129902943Y-103097056D03*
X130468629Y-102531371D03*
X131034314Y-101965686D03*
X131600000Y-101400000D03*
X132165685Y-100834315D03*
X132731370Y-100268629D03*
X133297056Y-99702944D03*
D26*
X133297056Y-97758400D03*
X132731370Y-97192715D03*
X132165685Y-96627029D03*
X131600000Y-96061344D03*
X131034314Y-95495658D03*
X130468629Y-94929973D03*
X129902943Y-94364288D03*
X129337258Y-93798602D03*
D27*
X140614986Y-96505672D03*
X140614986Y-94955672D03*
D28*
X131039411Y-92839411D03*
X130360589Y-92160589D03*
D29*
X104540056Y-106500076D03*
X104540056Y-102299924D03*
X106689916Y-106500076D03*
X106689916Y-102299924D03*
D30*
X143364986Y-103480672D03*
X145239986Y-103480672D03*
D31*
X133094975Y-92594975D03*
X132105025Y-91605025D03*
D32*
X121614986Y-98000672D03*
X121614986Y-98960672D03*
D33*
X147864986Y-94955672D03*
X147864986Y-96505672D03*
D13*
X155200000Y-113700000D03*
X97200000Y-84700000D03*
D19*
X143539986Y-101230672D03*
X145189986Y-101230672D03*
D11*
X103614986Y-84730672D03*
D12*
X106154986Y-84730672D03*
X108694986Y-84730672D03*
X111234986Y-84730672D03*
X113774986Y-84730672D03*
X116314986Y-84730672D03*
X118854986Y-84730672D03*
X121394986Y-84730672D03*
D11*
X103614986Y-113730672D03*
D12*
X106154986Y-113730672D03*
X108694986Y-113730672D03*
X111234986Y-113730672D03*
X113774986Y-113730672D03*
X116314986Y-113730672D03*
X118854986Y-113730672D03*
X121394986Y-113730672D03*
D29*
X106689916Y-92499924D03*
X106689916Y-96700076D03*
X104540056Y-92499924D03*
X104540056Y-96700076D03*
D11*
X97114986Y-103070672D03*
D12*
X97114986Y-100530672D03*
X97114986Y-97990672D03*
X97114986Y-95450672D03*
D34*
X125039411Y-93860589D03*
X124360589Y-94539411D03*
D35*
X112864986Y-101043172D03*
X112864986Y-102918172D03*
M02*
