M48
; DRILL file {KiCad (6.0.7-1)-1} date Thursday, June 08, 2023 at 09:11:35 PM
; FORMAT={-:-/ absolute / metric / decimal}
; #@! TF.CreationDate,2023-06-08T21:11:35-04:00
; #@! TF.GenerationSoftware,Kicad,Pcbnew,(6.0.7-1)-1
; #@! TF.FileFunction,Plated,1,2,PTH
FMAT,2
METRIC
; #@! TA.AperFunction,Plated,PTH,ViaDrill
T1C0.400
; #@! TA.AperFunction,Plated,PTH,ViaDrill
T2C0.500
; #@! TA.AperFunction,Plated,PTH,ComponentDrill
T3C0.600
; #@! TA.AperFunction,Plated,PTH,ComponentDrill
T4C1.000
%
G90
G05
T1
X98.891Y-97.991
X103.615Y-86.285
X106.1Y-89.9
X107.7Y-92.5
X107.7Y-96.7
X107.7Y-100.2
X112.8Y-99.9
X117.065Y-101.031
X118.3Y-97.9
X120.269Y-89.916
X121.575Y-90.575
X122.0Y-94.9
X122.608Y-93.492
X122.7Y-98.9
X122.8Y-89.9
X123.24Y-109.422
X123.275Y-107.325
X123.475Y-106.25
X123.475Y-108.45
X123.975Y-111.275
X125.0Y-98.1
X126.225Y-97.3
X127.075Y-89.425
X127.325Y-96.35
X127.598Y-90.9
X128.25Y-95.125
X129.9Y-83.1
X130.0Y-96.6
X130.6Y-91.2
X132.865Y-102.631
X133.4Y-93.8
X133.965Y-102.531
X134.675Y-91.925
X135.065Y-102.431
X136.065Y-102.231
X140.6Y-93.9
X142.0Y-103.5
X142.977Y-93.823
X143.9Y-95.8
X147.8Y-97.5
X154.2Y-97.4
X154.3Y-102.0
X154.319Y-95.481
T2
X120.5Y-100.2
X135.8Y-100.2
T4
X97.115Y-95.451
X97.115Y-97.991
X97.115Y-100.531
X97.115Y-103.071
X103.615Y-84.731
X103.615Y-113.731
X106.155Y-84.731
X106.155Y-113.731
X108.695Y-84.731
X108.695Y-113.731
X111.235Y-84.731
X111.235Y-113.731
X113.775Y-84.731
X113.775Y-113.731
X116.315Y-84.731
X116.315Y-113.731
X118.855Y-84.731
X118.855Y-113.731
X121.395Y-84.731
X121.395Y-113.731
X129.835Y-84.731
X129.835Y-113.731
X132.375Y-84.731
X132.375Y-113.731
X134.915Y-84.731
X134.915Y-113.731
X137.455Y-84.731
X137.455Y-113.731
X139.995Y-84.731
X139.995Y-113.731
X142.535Y-84.731
X142.535Y-113.731
X145.075Y-84.731
X145.075Y-113.731
X147.615Y-84.731
X147.615Y-113.731
T3
X157.75Y-95.156G85X158.95Y-95.156
G05
X157.75Y-102.306G85X158.95Y-102.306
G05
T0
M30
